<svg width="10" height="13" viewBox="0 0 10 13" fill="none" xmlns="http://www.w3.org/2000/svg">
<path d="M4.02273 12.6591C3.25758 12.6591 2.59848 12.5189 2.04545 12.2386C1.49242 11.9583 1.06629 11.5739 0.767045 11.0852C0.467803 10.5966 0.318182 10.0379 0.318182 9.40909C0.318182 8.92424 0.420455 8.49432 0.625 8.11932C0.833333 7.74053 1.11932 7.39015 1.48295 7.06818C1.85038 6.74242 2.27273 6.41667 2.75 6.09091L4.43182 4.84091C4.76136 4.625 5.02462 4.39394 5.22159 4.14773C5.42235 3.90152 5.52273 3.57955 5.52273 3.18182C5.52273 2.88636 5.39205 2.60038 5.13068 2.32386C4.87311 2.04735 4.53409 1.90909 4.11364 1.90909C3.81818 1.90909 3.55682 1.98485 3.32955 2.13636C3.10606 2.28409 2.92992 2.47348 2.80114 2.70455C2.67614 2.93182 2.61364 3.16667 2.61364 3.40909C2.61364 3.68182 2.6875 3.95833 2.83523 4.23864C2.98674 4.51515 3.17803 4.79924 3.40909 5.09091C3.64394 5.37879 3.88636 5.67424 4.13636 5.97727L9.47727 12.5H7.86364L3.45455 7.18182C3.04545 6.68939 2.67424 6.24242 2.34091 5.84091C2.00758 5.43939 1.74242 5.04356 1.54545 4.65341C1.34848 4.26326 1.25 3.84091 1.25 3.38636C1.25 2.86364 1.36553 2.4053 1.59659 2.01136C1.83144 1.61364 2.15909 1.30492 2.57955 1.08523C3.00379 0.861742 3.5 0.75 4.06818 0.75C4.65152 0.75 5.15341 0.863636 5.57386 1.09091C5.99432 1.31439 6.31818 1.61174 6.54545 1.98295C6.77273 2.35038 6.88636 2.75 6.88636 3.18182C6.88636 3.73864 6.74811 4.22159 6.47159 4.63068C6.19508 5.03977 5.81818 5.42045 5.34091 5.77273L3.02273 7.5C2.5 7.88636 2.14583 8.26136 1.96023 8.625C1.77462 8.98864 1.68182 9.25 1.68182 9.40909C1.68182 9.77273 1.77652 10.1117 1.96591 10.4261C2.1553 10.7405 2.42235 10.9943 2.76705 11.1875C3.11174 11.3807 3.51515 11.4773 3.97727 11.4773C4.41667 11.4773 4.8447 11.3845 5.26136 11.1989C5.67803 11.0095 6.05492 10.7367 6.39205 10.3807C6.73295 10.0246 7.00189 9.59659 7.19886 9.09659C7.39962 8.59659 7.5 8.03409 7.5 7.40909H8.79545C8.79545 8.18182 8.70644 8.8125 8.52841 9.30114C8.35038 9.78977 8.14962 10.1723 7.92614 10.4489C7.70265 10.7254 7.52273 10.9318 7.38636 11.0682C7.34091 11.125 7.29924 11.1818 7.26136 11.2386C7.22348 11.2955 7.18182 11.3523 7.13636 11.4091C6.76136 11.8295 6.28788 12.1439 5.71591 12.3523C5.14394 12.5568 4.57955 12.6591 4.02273 12.6591Z" fill="#6B7280"/>
</svg>
