<svg width="24" height="24" viewBox="0 0 24 24" fill="none" xmlns="http://www.w3.org/2000/svg">
<path d="M14.4296 18.8201C14.6196 18.8201 14.8096 18.7501 14.9596 18.6001L21.0296 12.5301C21.3196 12.2401 21.3196 11.7601 21.0296 11.4701L14.9596 5.40012C14.6696 5.11012 14.1896 5.11012 13.8996 5.40012C13.6096 5.69012 13.6096 6.17012 13.8996 6.46012L19.4396 12.0001L13.8996 17.5401C13.6096 17.8301 13.6096 18.3101 13.8996 18.6001C14.0396 18.7501 14.2396 18.8201 14.4296 18.8201Z" fill="#060606"/>
<path d="M3.50008 12.75H20.3301C20.7401 12.75 21.0801 12.41 21.0801 12C21.0801 11.59 20.7401 11.25 20.3301 11.25H3.50008C3.09008 11.25 2.75008 11.59 2.75008 12C2.75008 12.41 3.09008 12.75 3.50008 12.75Z" fill="#060606"/>
</svg>
