<svg width="18" height="17" viewBox="0 0 18 17" fill="none" xmlns="http://www.w3.org/2000/svg">
<path fill-rule="evenodd" clip-rule="evenodd" d="M17.3337 8.46749C17.3337 13.0699 13.6027 16.8008 9.00033 16.8008C4.39795 16.8008 0.666992 13.0699 0.666992 8.46749C0.666992 3.86512 4.39795 0.134155 9.00033 0.134155C13.6027 0.134155 17.3337 3.86512 17.3337 8.46749ZM11.7993 11.2664C11.5552 11.5105 11.1595 11.5105 10.9154 11.2664L9.00033 9.35132L7.08524 11.2664C6.84116 11.5105 6.44544 11.5105 6.20136 11.2664C5.95728 11.0223 5.95728 10.6266 6.20136 10.3825L8.11645 8.46744L6.20137 6.55236C5.95729 6.30828 5.95729 5.91255 6.20137 5.66848C6.44545 5.4244 6.84118 5.4244 7.08525 5.66848L9.00033 7.58355L10.9154 5.66848C11.1595 5.42441 11.5552 5.42441 11.7993 5.66848C12.0434 5.91256 12.0434 6.30829 11.7993 6.55237L9.88422 8.46744L11.7993 10.3825C12.0434 10.6266 12.0434 11.0223 11.7993 11.2664Z" fill="#82898F"/>
</svg>
