<svg width="24" height="19" viewBox="0 0 24 19" fill="none" xmlns="http://www.w3.org/2000/svg">
<path d="M2.25 7.74953H4.5V13.7495H3C2.80109 13.7495 2.61032 13.8286 2.46967 13.9692C2.32902 14.1099 2.25 14.3006 2.25 14.4995C2.25 14.6984 2.32902 14.8892 2.46967 15.0299C2.61032 15.1705 2.80109 15.2495 3 15.2495H21C21.1989 15.2495 21.3897 15.1705 21.5303 15.0299C21.671 14.8892 21.75 14.6984 21.75 14.4995C21.75 14.3006 21.671 14.1099 21.5303 13.9692C21.3897 13.8286 21.1989 13.7495 21 13.7495H19.5V7.74953H21.75C21.9132 7.74937 22.0719 7.69599 22.202 7.59748C22.3321 7.49898 22.4265 7.36073 22.4709 7.20371C22.5153 7.04669 22.5073 6.87946 22.4481 6.7274C22.3889 6.57533 22.2817 6.44673 22.1428 6.3611L12.3928 0.361096C12.2747 0.288457 12.1387 0.25 12 0.25C11.8613 0.25 11.7253 0.288457 11.6072 0.361096L1.85719 6.3611C1.71828 6.44673 1.61108 6.57533 1.55187 6.7274C1.49266 6.87946 1.48466 7.04669 1.52908 7.20371C1.57351 7.36073 1.66793 7.49898 1.79803 7.59748C1.92814 7.69599 2.08681 7.74937 2.25 7.74953ZM6 7.74953H9V13.7495H6V7.74953ZM13.5 7.74953V13.7495H10.5V7.74953H13.5ZM18 13.7495H15V7.74953H18V13.7495ZM12 1.87985L19.1006 6.24953H4.89937L12 1.87985ZM23.25 17.4995C23.25 17.6984 23.171 17.8892 23.0303 18.0299C22.8897 18.1705 22.6989 18.2495 22.5 18.2495H1.5C1.30109 18.2495 1.11032 18.1705 0.96967 18.0299C0.829018 17.8892 0.75 17.6984 0.75 17.4995C0.75 17.3006 0.829018 17.1099 0.96967 16.9692C1.11032 16.8286 1.30109 16.7495 1.5 16.7495H22.5C22.6989 16.7495 22.8897 16.8286 23.0303 16.9692C23.171 17.1099 23.25 17.3006 23.25 17.4995Z" fill="black"/>
</svg>
