<svg width="227" height="45" viewBox="0 0 227 45" fill="none" xmlns="http://www.w3.org/2000/svg">
<path fill-rule="evenodd" clip-rule="evenodd" d="M67.5739 12.41H71.0561V32.7706H67.5739V24.1836H57.6005V32.7706H54.0889V12.41H57.6005V20.8788H67.5739V12.41ZM88.9573 25.2743C88.9573 25.6881 88.9278 26.1611 88.8687 26.572H76.6812C77.2133 28.7269 79.0726 30.1428 81.5201 30.1428C83.4977 30.1428 85.1796 29.1998 86.0368 28.0765L88.2775 29.995C86.7433 31.9134 84.2662 33.1253 81.4315 33.1253C76.6517 33.1253 73.1104 29.6994 73.1104 25.1856C73.1104 20.731 76.5334 17.3671 81.0501 17.3671C85.5639 17.3671 88.9573 20.731 88.9573 25.2743ZM81.0206 20.3467C78.8657 20.3467 77.1838 21.7626 76.6517 23.8584H85.4161C84.9136 21.7331 83.1725 20.3467 81.0206 20.3467ZM102.487 17.7189H105.792V32.7706H102.487V30.6157C101.248 32.1794 99.4185 33.1253 97.2044 33.1253C92.9567 33.1253 89.7998 29.7319 89.7998 25.2447C89.7998 20.7606 92.9567 17.3671 97.2044 17.3671C99.4185 17.3671 101.248 18.3101 102.487 19.8738V17.7189ZM97.8548 29.9358C100.509 29.9358 102.487 27.8992 102.487 25.2447C102.487 22.5903 100.509 20.5536 97.8548 20.5536C95.1708 20.5536 93.1932 22.5903 93.1932 25.2447C93.1932 27.8992 95.1708 29.9358 97.8548 29.9358ZM108.552 32.7706V11.5232H111.857V32.7706H108.552ZM123.663 20.731H119.416V27.843C119.416 29.2589 120.211 29.9358 121.597 29.9358C122.425 29.9358 123.072 29.6994 123.663 29.4067V32.5046C122.839 32.9184 122.011 33.1253 120.92 33.1253C117.674 33.1253 116.111 31.2956 116.111 28.3721V20.731H113.572V17.7189H116.111V13.8259H119.416V17.7189H123.663V20.731ZM133.849 17.3671C137.42 17.3671 139.812 19.726 139.812 23.2968V32.7706H136.507V24.3905C136.507 22.0878 135.032 20.5536 132.759 20.5536C130.367 20.5536 128.774 22.1173 128.774 24.4496V32.7706H125.469V11.5232H128.774V19.7555C129.986 18.1918 131.727 17.3671 133.849 17.3671ZM154.665 21.9695C156.731 22.6199 158.177 24.7718 158.177 27.2518C158.177 30.4679 155.726 32.7706 152.481 32.7706H142.567V12.41H151.801C154.813 12.41 157.113 14.5915 157.113 17.5445C157.113 19.5191 156.081 21.2306 154.665 21.9695ZM150.947 15.5669H145.96V20.7606H150.947C152.363 20.7606 153.512 19.6373 153.512 18.1623C153.512 16.6872 152.422 15.5669 150.947 15.5669ZM151.653 29.6107C153.309 29.6107 154.547 28.313 154.547 26.6606C154.547 25.0083 153.309 23.7402 151.653 23.7402H145.96V29.6107H151.653ZM166.377 33.1253C162.188 33.1253 159.413 30.6157 159.413 26.7789V17.7189H162.72V26.3355C162.72 28.4904 164.195 29.9358 166.377 29.9358C168.561 29.9358 170.007 28.4904 170.007 26.3355V17.7189H173.314V26.7789C173.314 30.6157 170.539 33.1253 166.377 33.1253ZM184.405 17.3671C188.623 17.3671 191.813 20.7606 191.813 25.2447C191.813 29.7319 188.623 33.1253 184.405 33.1253C182.191 33.1253 180.335 32.1794 179.093 30.5862V32.7706H175.789V11.5232H179.093V19.9033C180.335 18.3101 182.191 17.3671 184.405 17.3671ZM183.755 29.9358C186.412 29.9358 188.387 27.8992 188.387 25.2447C188.387 22.5903 186.412 20.5536 183.755 20.5536C181.1 20.5536 179.093 22.5903 179.093 25.2447C179.093 27.8992 181.1 29.9358 183.755 29.9358ZM202.303 17.3671C206.522 17.3671 209.708 20.7606 209.708 25.2447C209.708 29.7319 206.522 33.1253 202.303 33.1253C200.089 33.1253 198.23 32.1794 196.992 30.5862V32.7706H193.684V11.5232H196.992V19.9033C198.23 18.3101 200.089 17.3671 202.303 17.3671ZM201.653 29.9358C204.308 29.9358 206.288 27.8992 206.288 25.2447C206.288 22.5903 204.308 20.5536 201.653 20.5536C198.996 20.5536 196.992 22.5903 196.992 25.2447C196.992 27.8992 198.996 29.9358 201.653 29.9358ZM223.415 17.7189H226.723V32.7706H223.415V30.6157C222.176 32.1794 220.347 33.1253 218.133 33.1253C213.885 33.1253 210.725 29.7319 210.725 25.2447C210.725 20.7606 213.885 17.3671 218.133 17.3671C220.347 17.3671 222.176 18.3101 223.415 19.8738V17.7189ZM218.783 29.9358C221.437 29.9358 223.415 27.8992 223.415 25.2447C223.415 22.5903 221.437 20.5536 218.783 20.5536C216.099 20.5536 214.118 22.5903 214.118 25.2447C214.118 27.8992 216.099 29.9358 218.783 29.9358Z" fill="#131316"/>
<path fill-rule="evenodd" clip-rule="evenodd" d="M26.298 26.2395L23.5372 26.2158L23.5312 28.9826H26.301L26.298 26.2395Z" fill="#093126"/>
<path fill-rule="evenodd" clip-rule="evenodd" d="M23.5312 25.6149H26.301L26.298 22.8718L23.5372 22.8452L23.5312 25.6149Z" fill="#093126"/>
<path fill-rule="evenodd" clip-rule="evenodd" d="M22.9758 25.6151V22.8453L20.2119 22.8483L20.209 25.5885L22.9758 25.6151Z" fill="#093126"/>
<path fill-rule="evenodd" clip-rule="evenodd" d="M22.9758 26.2158L20.2119 26.2188L20.209 28.9589L22.9787 28.9855L22.9758 26.2158Z" fill="#093126"/>
<path fill-rule="evenodd" clip-rule="evenodd" d="M20.5252 15.7532C21.0395 15.2625 23.1619 13.0899 23.419 12.9776L25.0803 14.6832C25.6508 15.2418 26.1799 15.768 26.7534 16.3267L33.4663 22.9805C34.028 23.5422 34.5689 24.0772 35.1394 24.627C35.5266 24.9965 36.5051 25.9365 36.8007 26.3178L34.2615 26.3267L34.2408 32.0376C29.4108 32.0198 24.829 32.9864 21.0543 34.8516C20.1616 35.2921 19.2718 35.8094 18.5181 36.3237C16.8539 37.4588 16.3366 37.979 14.9946 39.3358L14.291 40.1221C13.5609 40.9912 12.8278 42.2356 12.683 42.4337C12.7835 43.149 13.0525 43.6013 13.7117 44.1452C13.7708 44.1954 13.8447 44.2427 13.9275 44.29C14.2822 43.5658 15.7542 41.9903 16.4252 41.3607C16.7504 41.0532 17.0105 40.7783 17.3682 40.4739C20.0729 38.1535 23.15 36.3769 26.6972 35.1945C28.1811 34.6979 31.1134 33.9471 32.6594 33.8584V33.9205C32.8958 33.4121 33.3008 32.9746 33.7738 32.7263L33.9216 32.6524C34.696 32.3036 35.2783 32.4041 36.2183 32.4041C38.0658 32.4041 39.9133 32.4041 41.7637 32.4041C42.4761 32.4041 42.8958 32.41 43.3924 32.1706L43.8181 31.9193C43.8683 31.8809 43.9156 31.8573 43.96 31.8188C44.291 31.538 44.5866 31.1685 44.7344 30.7517C44.8083 30.5389 44.9059 30.2581 44.9059 29.9861V14.8635C44.9059 14.3639 44.6901 13.888 44.43 13.4978C44.3383 13.3589 44.1137 13.1224 43.9895 13.019C43.8063 12.8712 43.6437 12.7588 43.4131 12.6524C43.1914 12.549 42.9904 12.481 42.7096 12.4366C42.2692 12.3627 36.7947 12.4012 36.2183 12.4012C35.1158 12.4012 34.0782 12.543 33.221 11.677C32.2958 10.7458 32.4347 9.94772 32.4347 8.73873V3.15197C32.4347 2.09079 32.3874 1.69173 31.8435 0.958654C31.6366 0.680794 31.3587 0.494569 31.075 0.323123C30.8119 0.163502 30.3182 0.00683594 29.9901 0.00683594H15.0773C14.761 0.00683594 14.2644 0.160546 14.0043 0.317211C13.8063 0.432494 13.623 0.547776 13.4604 0.713309C13.2092 0.967522 13.0318 1.18035 12.8751 1.52915C12.6475 2.03758 12.6357 2.42481 12.6357 3.15197V9.67873C12.6357 10.4236 12.482 10.9587 12.0061 11.5144C11.6366 11.943 11.1666 12.2061 10.6138 12.342C10.1557 12.4514 9.37233 12.4012 8.8107 12.4012H3.20621C2.43175 12.4012 2.10955 12.3893 1.54792 12.6288C1.14 12.8032 0.761634 13.1165 0.510378 13.4505C0.256165 13.7875 0.00195312 14.3816 0.00195312 14.8221V29.9861C0.00195312 30.4532 0.244342 30.9734 0.495598 31.3311C0.746854 31.6976 1.1193 31.9814 1.5154 32.1706C2.012 32.41 2.43471 32.4041 3.14413 32.4041H8.7102C9.6502 32.4041 10.4542 32.2888 11.2139 32.6849C11.2612 32.7115 11.3055 32.7293 11.3587 32.7588L11.6455 32.9539C12.2603 33.4357 12.6357 34.1481 12.6357 34.9699V41.4966C12.6357 41.807 12.6446 42.076 12.6682 42.3154V26.374L9.72705 26.4272C9.80095 26.2646 9.83051 26.2616 9.96353 26.1375L14.3738 21.8336C14.5748 21.5321 14.2704 17.2667 14.4566 16.4272H17.6697L17.6815 18.517C18.0806 18.2096 19.3103 16.9238 19.8187 16.4331C20.067 16.1966 20.2798 15.9926 20.5252 15.7532Z" fill="#093126"/>
<path fill-rule="evenodd" clip-rule="evenodd" d="M29.7441 38.9354C24.8047 38.8792 19.4691 39.9788 15.52 42.9318C15.1889 43.1801 14.1662 44.0108 13.9297 44.2916C14.2667 44.4867 14.7455 44.6374 15.0766 44.6374H29.9894C30.2407 44.6374 30.5599 44.5458 30.7491 44.4749C30.959 44.398 31.1718 44.2827 31.3462 44.1527C31.6063 43.9605 31.8517 43.7181 32.0201 43.4432C32.2744 43.0323 32.4369 42.5239 32.434 42.0155V39.0921C31.5295 39.0359 30.6781 38.9472 29.7441 38.9354Z" fill="#093126"/>
</svg>
