<svg width="23" height="23" viewBox="0 0 23 23" fill="none" xmlns="http://www.w3.org/2000/svg">
<path d="M7.81805 5.77255C7.44532 5.77255 7.13623 5.46346 7.13623 5.09073V2.36346C7.13623 1.99073 7.44532 1.68164 7.81805 1.68164C8.19078 1.68164 8.49987 1.99073 8.49987 2.36346V5.09073C8.49987 5.46346 8.19078 5.77255 7.81805 5.77255Z" fill="#FF5B27"/>
<path d="M15.091 5.77255C14.7183 5.77255 14.4092 5.46346 14.4092 5.09073V2.36346C14.4092 1.99073 14.7183 1.68164 15.091 1.68164C15.4637 1.68164 15.7728 1.99073 15.7728 2.36346V5.09073C15.7728 5.46346 15.4637 5.77255 15.091 5.77255Z" fill="#FF5B27"/>
<path d="M8.27286 13.7267C8.0365 13.7267 7.80013 13.6267 7.6274 13.4631C7.59104 13.4176 7.54559 13.3722 7.51831 13.3267C7.48195 13.2722 7.45468 13.2176 7.4365 13.1631C7.40923 13.1086 7.39105 13.054 7.38196 12.9995C7.37286 12.9358 7.36377 12.8722 7.36377 12.8176C7.36377 12.5813 7.46376 12.3449 7.6274 12.1722C7.96376 11.8358 8.57287 11.8358 8.91832 12.1722C9.08196 12.3449 9.18195 12.5813 9.18195 12.8176C9.18195 12.8722 9.17286 12.9358 9.16377 12.9995C9.15467 13.054 9.1365 13.1086 9.10922 13.1631C9.09104 13.2176 9.06377 13.2722 9.02741 13.3267C8.99104 13.3722 8.95468 13.4176 8.91832 13.4631C8.74559 13.6267 8.50922 13.7267 8.27286 13.7267Z" fill="#FF5B27"/>
<path d="M11.4545 13.7273C11.3363 13.7273 11.2181 13.7001 11.109 13.6546C10.9909 13.6092 10.8909 13.5455 10.809 13.4637C10.7727 13.4182 10.7272 13.3728 10.7 13.3273C10.6636 13.2728 10.6363 13.2182 10.6181 13.1637C10.5909 13.1092 10.5727 13.0546 10.5636 13.0001C10.5545 12.9364 10.5454 12.8728 10.5454 12.8182C10.5454 12.5819 10.6454 12.3455 10.809 12.1728C10.8909 12.091 10.9909 12.0273 11.109 11.9819C11.4363 11.8364 11.8454 11.9183 12.1 12.1728C12.2636 12.3455 12.3636 12.5819 12.3636 12.8182C12.3636 12.8728 12.3545 12.9364 12.3454 13.0001C12.3363 13.0546 12.3181 13.1092 12.2909 13.1637C12.2727 13.2182 12.2454 13.2728 12.209 13.3273C12.1727 13.3728 12.1363 13.4182 12.1 13.4637C11.9272 13.6273 11.6909 13.7273 11.4545 13.7273Z" fill="#FF5B27"/>
<path d="M8.27286 16.908C8.02741 16.908 7.80013 16.808 7.6274 16.6444C7.46376 16.4717 7.36377 16.2353 7.36377 15.9989C7.36377 15.7626 7.46376 15.5262 7.6274 15.3535C7.67285 15.3171 7.71832 15.2717 7.76377 15.2444C7.81832 15.208 7.87286 15.1808 7.9274 15.1626C7.98195 15.1353 8.0365 15.1171 8.09105 15.108C8.27286 15.0717 8.45468 15.0898 8.61832 15.1626C8.7365 15.208 8.82741 15.2717 8.91832 15.3535C9.08196 15.5262 9.18195 15.7626 9.18195 15.9989C9.18195 16.2353 9.08196 16.4717 8.91832 16.6444C8.82741 16.7262 8.7365 16.7899 8.61832 16.8353C8.50923 16.8808 8.39104 16.908 8.27286 16.908Z" fill="#FF5B27"/>
<path d="M19.1818 9.49059H3.72723C3.3545 9.49059 3.04541 9.1815 3.04541 8.80877C3.04541 8.43604 3.3545 8.12695 3.72723 8.12695H19.1818C19.5545 8.12695 19.8636 8.43604 19.8636 8.80877C19.8636 9.1815 19.5545 9.49059 19.1818 9.49059Z" fill="#FF5B27"/>
<path d="M16.909 22.1364C14.5272 22.1364 12.5908 20.2 12.5908 17.8182C12.5908 15.4364 14.5272 13.5 16.909 13.5C19.2908 13.5 21.2272 15.4364 21.2272 17.8182C21.2272 20.2 19.2908 22.1364 16.909 22.1364ZM16.909 14.8636C15.2817 14.8636 13.9545 16.1909 13.9545 17.8182C13.9545 19.4455 15.2817 20.7727 16.909 20.7727C18.5363 20.7727 19.8635 19.4455 19.8635 17.8182C19.8635 16.1909 18.5363 14.8636 16.909 14.8636Z" fill="#FF5B27"/>
<path d="M17.8819 19.508C17.7092 19.508 17.5365 19.4444 17.4001 19.3081L15.4819 17.3899C15.2183 17.1262 15.2183 16.6899 15.4819 16.4262C15.7455 16.1626 16.1819 16.1626 16.4456 16.4262L18.3637 18.3444C18.6274 18.608 18.6274 19.0444 18.3637 19.3081C18.2274 19.4444 18.0546 19.508 17.8819 19.508Z" fill="#FF5B27"/>
<path d="M15.9364 19.5354C15.7637 19.5354 15.5909 19.4718 15.4546 19.3354C15.1909 19.0718 15.1909 18.6354 15.4546 18.3718L17.3727 16.4536C17.6364 16.19 18.0728 16.19 18.3364 16.4536C18.6 16.7172 18.6 17.1536 18.3364 17.4172L16.4182 19.3354C16.2818 19.4627 16.1091 19.5354 15.9364 19.5354Z" fill="#FF5B27"/>
<path d="M14.5181 21.2267H7.81809C4.49991 21.2267 2.59082 19.3176 2.59082 15.9995V8.27219C2.59082 4.95401 4.49991 3.04492 7.81809 3.04492H15.0908C18.409 3.04492 20.3181 4.95401 20.3181 8.27219V15.4176C20.3181 15.6995 20.1454 15.954 19.8726 16.054C19.609 16.154 19.309 16.0813 19.1181 15.8631C18.5545 15.2267 17.7454 14.8631 16.8999 14.8631C15.2726 14.8631 13.9454 16.1904 13.9454 17.8176C13.9454 18.354 14.0908 18.8813 14.3726 19.3358C14.5272 19.6086 14.7272 19.8358 14.9454 20.0267C15.1635 20.2086 15.2454 20.5086 15.1454 20.7813C15.0635 21.0449 14.809 21.2267 14.5181 21.2267ZM7.81809 4.40856C5.21809 4.40856 3.95446 5.67219 3.95446 8.27219V15.9995C3.95446 18.5995 5.21809 19.8631 7.81809 19.8631H13.109C12.7726 19.2449 12.5908 18.5449 12.5908 17.8176C12.5908 15.4358 14.5272 13.4995 16.909 13.4995C17.6272 13.4995 18.3363 13.6813 18.9545 14.0177V8.27219C18.9545 5.67219 17.6908 4.40856 15.0908 4.40856H7.81809Z" fill="#FF5B27"/>
</svg>
