<svg width="23" height="23" viewBox="0 0 23 23" fill="none" xmlns="http://www.w3.org/2000/svg">
<path d="M7.81805 5.7745C7.44532 5.7745 7.13623 5.46541 7.13623 5.09268V2.36541C7.13623 1.99268 7.44532 1.68359 7.81805 1.68359C8.19078 1.68359 8.49987 1.99268 8.49987 2.36541V5.09268C8.49987 5.46541 8.19078 5.7745 7.81805 5.7745Z" fill="#1C75FB"/>
<path d="M15.091 5.7745C14.7183 5.7745 14.4092 5.46541 14.4092 5.09268V2.36541C14.4092 1.99268 14.7183 1.68359 15.091 1.68359C15.4637 1.68359 15.7728 1.99268 15.7728 2.36541V5.09268C15.7728 5.46541 15.4637 5.7745 15.091 5.7745Z" fill="#1C75FB"/>
<path d="M8.27286 13.7292C8.15468 13.7292 8.0365 13.7019 7.9274 13.6564C7.80922 13.611 7.71832 13.5473 7.62741 13.4655C7.46377 13.2928 7.36377 13.0655 7.36377 12.8201C7.36377 12.7019 7.39104 12.5837 7.4365 12.4746C7.48195 12.3655 7.54559 12.2655 7.62741 12.1746C7.71832 12.0928 7.80922 12.0291 7.9274 11.9837C8.25468 11.8473 8.66377 11.9201 8.91831 12.1746C9.08195 12.3473 9.18195 12.5837 9.18195 12.8201C9.18195 12.8746 9.17286 12.9383 9.16377 13.0019C9.15468 13.0564 9.1365 13.111 9.10922 13.1655C9.09104 13.2201 9.06377 13.2746 9.02741 13.3292C9.00013 13.3746 8.95468 13.4201 8.91831 13.4655C8.74559 13.6291 8.50922 13.7292 8.27286 13.7292Z" fill="#1C75FB"/>
<path d="M11.4545 13.7293C11.3363 13.7293 11.2181 13.702 11.109 13.6566C10.9909 13.6111 10.9 13.5475 10.809 13.4656C10.6454 13.2929 10.5454 13.0657 10.5454 12.8202C10.5454 12.702 10.5727 12.5838 10.6181 12.4747C10.6636 12.3656 10.7272 12.2657 10.809 12.1748C10.9 12.0929 10.9909 12.0293 11.109 11.9838C11.4363 11.8384 11.8454 11.9202 12.1 12.1748C12.2636 12.3475 12.3636 12.5838 12.3636 12.8202C12.3636 12.8747 12.3545 12.9384 12.3454 13.002C12.3363 13.0566 12.3181 13.1111 12.2909 13.1657C12.2727 13.2202 12.2454 13.2747 12.209 13.3293C12.1818 13.3747 12.1363 13.4202 12.1 13.4656C11.9272 13.6293 11.6909 13.7293 11.4545 13.7293Z" fill="#1C75FB"/>
<path d="M14.6361 13.7293C14.518 13.7293 14.3998 13.702 14.2907 13.6566C14.1725 13.6111 14.0816 13.5475 13.9907 13.4656C13.9543 13.4202 13.918 13.3747 13.8816 13.3293C13.8452 13.2747 13.818 13.2202 13.7998 13.1657C13.7725 13.1111 13.7543 13.0566 13.7452 13.002C13.7361 12.9384 13.7271 12.8747 13.7271 12.8202C13.7271 12.5838 13.8271 12.3475 13.9907 12.1748C14.0816 12.0929 14.1725 12.0293 14.2907 11.9838C14.627 11.8384 15.0271 11.9202 15.2816 12.1748C15.4452 12.3475 15.5452 12.5838 15.5452 12.8202C15.5452 12.8747 15.5361 12.9384 15.5271 13.002C15.518 13.0566 15.4998 13.1111 15.4725 13.1657C15.4543 13.2202 15.4271 13.2747 15.3907 13.3293C15.3634 13.3747 15.318 13.4202 15.2816 13.4656C15.1089 13.6293 14.8725 13.7293 14.6361 13.7293Z" fill="#1C75FB"/>
<path d="M8.27286 16.9103C8.15468 16.9103 8.0365 16.8831 7.9274 16.8376C7.81831 16.7922 7.71832 16.7285 7.62741 16.6467C7.46377 16.474 7.36377 16.2376 7.36377 16.0012C7.36377 15.8831 7.39104 15.7649 7.4365 15.6558C7.48195 15.5376 7.54559 15.4376 7.62741 15.3558C7.96377 15.0194 8.58195 15.0194 8.91831 15.3558C9.08195 15.5285 9.18195 15.7649 9.18195 16.0012C9.18195 16.2376 9.08195 16.474 8.91831 16.6467C8.74559 16.8103 8.50922 16.9103 8.27286 16.9103Z" fill="#1C75FB"/>
<path d="M11.4545 16.9103C11.2181 16.9103 10.9818 16.8103 10.809 16.6467C10.6454 16.474 10.5454 16.2376 10.5454 16.0012C10.5454 15.8831 10.5727 15.7649 10.6181 15.6558C10.6636 15.5376 10.7272 15.4376 10.809 15.3558C11.1454 15.0194 11.7636 15.0194 12.1 15.3558C12.1818 15.4376 12.2454 15.5376 12.2909 15.6558C12.3363 15.7649 12.3636 15.8831 12.3636 16.0012C12.3636 16.2376 12.2636 16.474 12.1 16.6467C11.9272 16.8103 11.6909 16.9103 11.4545 16.9103Z" fill="#1C75FB"/>
<path d="M14.6361 16.9108C14.3998 16.9108 14.1634 16.8108 13.9907 16.6471C13.9089 16.5653 13.8452 16.4653 13.7998 16.3472C13.7543 16.2381 13.7271 16.1199 13.7271 16.0017C13.7271 15.8835 13.7543 15.7653 13.7998 15.6562C13.8452 15.5381 13.9089 15.4381 13.9907 15.3562C14.1998 15.1472 14.518 15.0471 14.8089 15.1108C14.8725 15.1199 14.9271 15.138 14.9816 15.1653C15.0361 15.1835 15.0907 15.2108 15.1452 15.2472C15.1907 15.2744 15.2361 15.3199 15.2816 15.3562C15.4452 15.529 15.5452 15.7653 15.5452 16.0017C15.5452 16.2381 15.4452 16.4744 15.2816 16.6471C15.1089 16.8108 14.8725 16.9108 14.6361 16.9108Z" fill="#1C75FB"/>
<path d="M19.1818 9.49254H3.72723C3.3545 9.49254 3.04541 9.18345 3.04541 8.81072C3.04541 8.438 3.3545 8.12891 3.72723 8.12891H19.1818C19.5545 8.12891 19.8636 8.438 19.8636 8.81072C19.8636 9.18345 19.5545 9.49254 19.1818 9.49254Z" fill="#1C75FB"/>
<path d="M15.0908 21.2287H7.81809C4.49991 21.2287 2.59082 19.3196 2.59082 16.0014V8.27415C2.59082 4.95597 4.49991 3.04688 7.81809 3.04688H15.0908C18.409 3.04688 20.3181 4.95597 20.3181 8.27415V16.0014C20.3181 19.3196 18.409 21.2287 15.0908 21.2287ZM7.81809 4.41051C5.21809 4.41051 3.95446 5.67415 3.95446 8.27415V16.0014C3.95446 18.6014 5.21809 19.8651 7.81809 19.8651H15.0908C17.6908 19.8651 18.9545 18.6014 18.9545 16.0014V8.27415C18.9545 5.67415 17.6908 4.41051 15.0908 4.41051H7.81809Z" fill="#1C75FB"/>
</svg>
