<svg width="10" height="10" viewBox="0 0 10 10" fill="none" xmlns="http://www.w3.org/2000/svg">
<path d="M0.5 9.5H9.5M5.89221 1.65586C5.89221 1.65586 5.89221 2.47317 6.70952 3.29048C7.52683 4.10779 8.34414 4.10779 8.34414 4.10779M2.65981 7.99404L4.37617 7.74884C4.62375 7.71347 4.85318 7.59876 5.03002 7.42192L9.16146 3.29048C9.61285 2.83909 9.61285 2.10724 9.16146 1.65585L8.34415 0.838542C7.89276 0.387153 7.16091 0.387153 6.70952 0.838542L2.57808 4.96998C2.40124 5.14682 2.28653 5.37625 2.25116 5.62383L2.00596 7.34019C1.95148 7.7216 2.2784 8.04852 2.65981 7.99404Z" stroke="#28303F" stroke-width="0.9" stroke-linecap="round"/>
</svg>
