<svg width="16" height="14" viewBox="0 0 16 14" fill="none" xmlns="http://www.w3.org/2000/svg">
<path d="M14.5301 0.46967C14.823 0.762563 14.823 1.23744 14.5301 1.53033L2.53015 13.5303C2.23725 13.8232 1.76238 13.8232 1.46949 13.5303C1.17659 13.2374 1.17659 12.7626 1.46949 12.4697L13.4695 0.46967C13.7624 0.176777 14.2373 0.176777 14.5301 0.46967Z" fill="#75808A"/>
<path d="M10.8495 2.02903C10.0047 1.63122 9.05227 1.375 7.9998 1.375C5.79173 1.375 4.02389 2.50277 2.76751 3.69976C1.50824 4.8995 0.691143 6.23476 0.367696 6.81235C0.15573 7.19087 0.130484 7.64283 0.304476 8.04427C0.425986 8.32463 0.632629 8.75893 0.937202 9.26291C1.15144 9.61742 1.6125 9.73113 1.96701 9.51689C2.32151 9.30265 2.43522 8.84159 2.22098 8.48709C1.97601 8.08173 1.80602 7.73117 1.70292 7.49832C2.00723 6.962 2.72795 5.80924 3.80219 4.78578C4.9118 3.72862 6.32734 2.875 7.9998 2.875C8.60135 2.875 9.16965 2.98543 9.70244 3.17604L10.8495 2.02903Z" fill="#75808A"/>
<path d="M12.2677 4.85342C13.3031 5.85959 13.9991 6.97378 14.2967 7.49832C14.1936 7.73117 14.0236 8.08173 13.7786 8.48709C13.5644 8.84159 13.6781 9.30265 14.0326 9.51689C14.3871 9.73113 14.8482 9.61742 15.0624 9.26291C15.367 8.75893 15.5736 8.32463 15.6951 8.04427C15.8691 7.64283 15.8439 7.19087 15.6319 6.81235C15.3168 6.24963 14.5331 4.96774 13.3285 3.79266L12.2677 4.85342Z" fill="#75808A"/>
<path d="M7.99982 4.75C8.04205 4.75 8.08408 4.75087 8.12589 4.7526L5.00242 7.87608C5.00069 7.83427 4.99982 7.79224 4.99982 7.75C4.99982 6.09315 6.34296 4.75 7.99982 4.75Z" fill="#75808A"/>
<path d="M7.99982 10.75C7.52525 10.75 7.07642 10.6398 6.67752 10.4436L10.6934 6.4277C10.8896 6.82661 10.9998 7.27543 10.9998 7.75C10.9998 9.40685 9.65667 10.75 7.99982 10.75Z" fill="#75808A"/>
</svg>
