<svg width="24" height="24" viewBox="0 0 24 24" fill="none" xmlns="http://www.w3.org/2000/svg">
<path d="M4.29464 13.9828C4.58029 14.4555 4.42868 15.0702 3.95601 15.3559C3.48333 15.6415 2.86859 15.4899 2.58294 15.0172C2.17684 14.3452 1.90131 13.7662 1.7393 13.3924C1.50731 12.8571 1.54097 12.2545 1.82359 11.7498C2.25486 10.9797 3.34432 9.19934 5.02335 7.59968C6.69852 6.00369 9.05564 4.5 11.9997 4.5C14.9438 4.5 17.301 6.00369 18.9761 7.59968C20.6552 9.19933 21.7446 10.9797 22.1759 11.7498C22.4585 12.2545 22.4922 12.8571 22.2602 13.3924C22.0982 13.7662 21.8226 14.3452 21.4165 15.0172C21.1309 15.4899 20.5161 15.6415 20.0435 15.3559C19.5708 15.0702 19.4192 14.4555 19.7048 13.9828C20.0315 13.4423 20.2581 12.9749 20.3956 12.6644C19.9898 11.9493 19.0289 10.4123 17.5966 9.0477C16.1171 7.63816 14.2297 6.5 11.9997 6.5C9.76978 6.5 7.8824 7.63816 6.40292 9.0477C4.9706 10.4123 4.00964 11.9493 3.60389 12.6644C3.74137 12.9749 3.96802 13.4423 4.29464 13.9828Z" fill="black"/>
<path d="M11.9997 17C14.2089 17 15.9997 15.2091 15.9997 13C15.9997 10.7909 14.2089 9 11.9997 9C9.7906 9 7.99974 10.7909 7.99974 13C7.99974 15.2091 9.7906 17 11.9997 17Z" fill="black"/>
</svg>
