<svg width="20" height="20" viewBox="0 0 20 20" fill="none" xmlns="http://www.w3.org/2000/svg">
<path d="M2.5 5.8335H5M5 5.8335C5 7.21421 6.11929 8.3335 7.5 8.3335C8.88071 8.3335 10 7.21421 10 5.8335C10 4.45278 8.88071 3.3335 7.5 3.3335C6.11929 3.3335 5 4.45278 5 5.8335ZM2.5 14.1668H7.5M15 14.1668H17.5M15 14.1668C15 15.5475 13.8807 16.6668 12.5 16.6668C11.1193 16.6668 10 15.5475 10 14.1668C10 12.7861 11.1193 11.6668 12.5 11.6668C13.8807 11.6668 15 12.7861 15 14.1668ZM12.5 5.8335H17.5" stroke="#28303F" stroke-width="1.5" stroke-linecap="round"/>
</svg>
