<svg width="20" height="20" viewBox="0 0 20 20" fill="none" xmlns="http://www.w3.org/2000/svg">
<path d="M16.8754 2.1875H13.1254C12.8768 2.1875 12.6383 2.28627 12.4625 2.46209C12.2867 2.6379 12.1879 2.87636 12.1879 3.125C12.1879 3.37364 12.2867 3.6121 12.4625 3.78791C12.6383 3.96373 12.8768 4.0625 13.1254 4.0625H14.6098L12.0536 6.62031C10.7247 5.62718 9.06897 5.1742 7.4196 5.35252C5.77022 5.53085 4.24959 6.32724 3.16368 7.58146C2.07778 8.83567 1.50719 10.4546 1.56673 12.1125C1.62628 13.7705 2.31153 15.3443 3.48462 16.5174C4.6577 17.6905 6.23154 18.3757 7.88946 18.4353C9.54738 18.4948 11.1663 17.9242 12.4205 16.8383C13.6748 15.7524 14.4712 14.2318 14.6495 12.5824C14.8278 10.933 14.3748 9.27732 13.3817 7.94844L15.9379 5.39062V6.875C15.9379 7.12364 16.0367 7.3621 16.2125 7.53791C16.3883 7.71373 16.6268 7.8125 16.8754 7.8125C17.1241 7.8125 17.3625 7.71373 17.5384 7.53791C17.7142 7.3621 17.8129 7.12364 17.8129 6.875V3.125C17.8129 2.87636 17.7142 2.6379 17.5384 2.46209C17.3625 2.28627 17.1241 2.1875 16.8754 2.1875ZM11.4387 15.1922C10.7831 15.8476 9.94785 16.2938 9.03862 16.4745C8.12939 16.6552 7.18698 16.5623 6.33057 16.2075C5.47415 15.8526 4.74217 15.2518 4.22719 14.481C3.7122 13.7102 3.43733 12.804 3.43733 11.877C3.43733 10.9499 3.7122 10.0437 4.22719 9.27291C4.74217 8.5021 5.47415 7.90129 6.33057 7.54645C7.18698 7.19161 8.12939 7.09867 9.03862 7.27938C9.94785 7.4601 10.7831 7.90635 11.4387 8.56172C12.3163 9.44186 12.8091 10.6341 12.8091 11.877C12.8091 13.1199 12.3163 14.312 11.4387 15.1922Z" fill="#28303F"/>
</svg>
