<svg width="20" height="20" viewBox="0 0 20 20" fill="none" xmlns="http://www.w3.org/2000/svg">
<path d="M6.21237 17.9846L6.20818 17.9824C5.90266 17.8216 5.70866 17.4951 5.70866 17.1415V15.9582V15.5069L5.25972 15.4608C4.11433 15.3433 3.19295 14.8682 2.5569 14.1455C1.92015 13.4221 1.54199 12.4192 1.54199 11.1998V6.19987C1.54199 4.88107 1.98261 3.81636 2.71638 3.08259C3.45015 2.34882 4.51486 1.9082 5.83366 1.9082H14.167C15.4858 1.9082 16.5505 2.34882 17.2843 3.08259C18.018 3.81636 18.4587 4.88107 18.4587 6.19987V11.1998C18.4587 12.5186 18.018 13.5833 17.2843 14.3171C16.5505 15.0509 15.4858 15.4915 14.167 15.4915H11.0253H10.8739L10.748 15.5755L7.20129 17.94C7.20077 17.9403 7.20025 17.9407 7.19973 17.941C7.04027 18.045 6.85289 18.0998 6.66699 18.0998C6.51498 18.0998 6.35493 18.0614 6.21237 17.9846ZM6.30974 17.7453L6.55943 17.3292L6.30975 17.7453C6.46519 17.8386 6.75786 17.9173 7.05211 17.73L7.05216 17.7301L7.06059 17.7245L10.7689 15.2579L10.7694 15.2576C10.78 15.2505 10.7935 15.2438 10.8082 15.2392C10.8228 15.2346 10.8346 15.2332 10.842 15.2332H14.1753C15.3602 15.2332 16.3806 14.8476 17.106 14.1222C17.8313 13.3969 18.217 12.3765 18.217 11.1916V6.19153C18.217 5.00664 17.8313 3.98625 17.106 3.26089C16.3806 2.53553 15.3602 2.14986 14.1753 2.14986H5.83366C4.64877 2.14986 3.62838 2.53553 2.90302 3.26089C2.17766 3.98625 1.79199 5.00664 1.79199 6.19153V11.1916C1.79199 12.3765 2.17766 13.3969 2.90302 14.1222C3.62838 14.8476 4.64877 15.2332 5.83366 15.2332C5.86381 15.2332 5.89509 15.2455 5.92073 15.2712C5.94637 15.2968 5.95866 15.3281 5.95866 15.3582V17.1332C5.95866 17.5042 6.21118 17.6862 6.30974 17.7453Z" fill="#292D32" stroke="#0D062D"/>
<path d="M9.99952 10.0918C9.65786 10.0918 9.37452 9.80846 9.37452 9.4668V9.29183C9.37452 8.32516 10.0828 7.85015 10.3495 7.66682C10.6578 7.45849 10.7578 7.31683 10.7578 7.10016C10.7578 6.68349 10.4162 6.3418 9.99952 6.3418C9.58286 6.3418 9.24121 6.68349 9.24121 7.10016C9.24121 7.44183 8.95788 7.72516 8.61621 7.72516C8.27454 7.72516 7.99121 7.44183 7.99121 7.10016C7.99121 5.99183 8.89119 5.0918 9.99952 5.0918C11.1079 5.0918 12.0078 5.99183 12.0078 7.10016C12.0078 8.05016 11.3079 8.52514 11.0495 8.70014C10.7245 8.91681 10.6245 9.0585 10.6245 9.29183V9.4668C10.6245 9.8168 10.3412 10.0918 9.99952 10.0918Z" fill="#292D32"/>
<path d="M10 12.167C9.65 12.167 9.375 11.8837 9.375 11.542C9.375 11.2003 9.65833 10.917 10 10.917C10.3417 10.917 10.625 11.2003 10.625 11.542C10.625 11.8837 10.35 12.167 10 12.167Z" fill="#292D32"/>
</svg>
