<svg width="18" height="17" viewBox="0 0 18 17" fill="none" xmlns="http://www.w3.org/2000/svg">
<path fill-rule="evenodd" clip-rule="evenodd" d="M9.00033 16.8008C13.6027 16.8008 17.3337 13.0699 17.3337 8.46749C17.3337 3.86512 13.6027 0.134155 9.00033 0.134155C4.39795 0.134155 0.666992 3.86512 0.666992 8.46749C0.666992 13.0699 4.39795 16.8008 9.00033 16.8008ZM12.827 6.35123C13.0389 6.07876 12.9898 5.68609 12.7174 5.47417C12.4449 5.26225 12.0522 5.31134 11.8403 5.5838L8.50115 9.87702C8.4269 9.97249 8.28723 9.98488 8.19734 9.90397L6.0851 8.00296C5.82853 7.77205 5.43335 7.79285 5.20244 8.04941C4.97153 8.30598 4.99233 8.70116 5.24889 8.93208L7.36113 10.8331C7.9904 11.3994 8.96808 11.3127 9.48784 10.6444L12.827 6.35123Z" fill="#3FC797"/>
</svg>
