<svg width="21" height="20" viewBox="0 0 21 20" fill="none" xmlns="http://www.w3.org/2000/svg">
<path d="M18.6706 8.36824H17.9993V8.33366H10.4993V11.667H15.2089C14.5218 13.6074 12.6756 15.0003 10.4993 15.0003C7.7381 15.0003 5.49935 12.7616 5.49935 10.0003C5.49935 7.23908 7.7381 5.00033 10.4993 5.00033C11.7739 5.00033 12.9335 5.48116 13.8164 6.26658L16.1735 3.90949C14.6852 2.52241 12.6943 1.66699 10.4993 1.66699C5.89727 1.66699 2.16602 5.39824 2.16602 10.0003C2.16602 14.6024 5.89727 18.3337 10.4993 18.3337C15.1014 18.3337 18.8327 14.6024 18.8327 10.0003C18.8327 9.44158 18.7752 8.89616 18.6706 8.36824Z" fill="#FFC107"/>
<path d="M3.12695 6.12158L5.86487 8.12949C6.6057 6.29533 8.39987 5.00033 10.4995 5.00033C11.774 5.00033 12.9336 5.48116 13.8165 6.26658L16.1736 3.90949C14.6853 2.52241 12.6945 1.66699 10.4995 1.66699C7.29862 1.66699 4.52279 3.47408 3.12695 6.12158Z" fill="#FF3D00"/>
<path d="M10.5008 18.3336C12.6533 18.3336 14.6091 17.5099 16.0879 16.1703L13.5087 13.9878C12.6439 14.6454 11.5872 15.0011 10.5008 15.0003C8.33328 15.0003 6.49286 13.6182 5.79953 11.6895L3.08203 13.7832C4.4612 16.482 7.26203 18.3336 10.5008 18.3336Z" fill="#4CAF50"/>
<path d="M18.6712 8.36759H18V8.33301H10.5V11.6663H15.2096C14.8809 12.5898 14.2889 13.3968 13.5067 13.9876L13.5079 13.9868L16.0871 16.1693C15.9046 16.3351 18.8333 14.1663 18.8333 9.99967C18.8333 9.44092 18.7758 8.89551 18.6712 8.36759Z" fill="#1976D2"/>
</svg>
