<svg width="210" height="210" viewBox="0 0 210 210" fill="none" xmlns="http://www.w3.org/2000/svg">
<path d="M209.126 193.408C214.191 183.384 199.716 133.268 99.3459 133.268C26.8992 133.268 -6.35189 174.289 0.999256 195.078" fill="url(#paint0_radial_279_4473)"/>
<mask id="mask0_279_4473" style="mask-type:luminance" maskUnits="userSpaceOnUse" x="0" y="133" width="210" height="63">
<path d="M209.126 193.408C214.191 183.384 199.716 133.268 99.3459 133.268C26.8992 133.268 -6.35189 174.289 0.999256 195.078" fill="white"/>
</mask>
<g mask="url(#mask0_279_4473)">
<ellipse opacity="0.671968" cx="83.8665" cy="161.373" rx="5.51986" ry="3.06601" fill="url(#paint1_linear_279_4473)"/>
<ellipse opacity="0.451707" cx="142.786" cy="168.742" rx="8.70911" ry="4.78298" fill="url(#paint2_linear_279_4473)"/>
</g>
<path d="M108.204 123.446C108.204 123.446 107.311 123.366 107.071 123.916C106.831 124.466 108.073 126.707 108.692 127.305C109.312 127.904 110.635 127.357 109.995 125.957C109.355 124.557 108.204 123.446 108.204 123.446Z" fill="#2F2F2B"/>
<path d="M116.576 120.409C116.576 120.409 116.465 119.52 117.006 119.261C117.548 119.002 119.831 120.164 120.45 120.763C121.07 121.361 120.569 122.702 119.148 122.111C117.727 121.52 116.576 120.409 116.576 120.409Z" fill="#2F2F2B"/>
<path d="M112.682 120.575L108.024 123.439C107.872 123.533 107.771 123.69 107.751 123.867C107.702 124.279 108.086 124.607 108.484 124.49C109.798 124.104 112.291 123.34 113.159 122.86C114.36 122.196 112.682 120.575 112.682 120.575Z" fill="url(#paint3_linear_279_4473)"/>
<path d="M117.75 114.779L117.145 119.539C117.094 119.939 117.44 120.277 117.839 120.215C118.051 120.183 118.229 120.044 118.309 119.844C118.809 118.591 120.586 114.121 120.05 115.176C119.428 116.4 117.75 114.779 117.75 114.779Z" fill="url(#paint4_linear_279_4473)"/>
<path d="M105.945 113.802C105.945 113.802 106.49 114.85 107.057 115.397C107.715 116.554 108.818 118.922 110.654 122.182C111.793 124.203 113.701 120.3 112.861 118.138L111.072 113.536L118.301 115.913C119.065 116.164 119.893 115.782 120.197 115.037C120.527 114.23 120.124 113.294 119.327 112.939C118.041 112.365 115.873 111.332 112.656 109.598C112.096 109.057 111.331 108.773 111.331 108.773L105.945 113.802Z" fill="url(#paint5_linear_279_4473)"/>
<path d="M95.8681 105.633L96.5946 107.483L93.1079 107.89L87.0321 108.428L85.2287 109.379L83.1836 109.019L83.2324 108.797L85.0866 108.703L85.4902 108.285C85.4902 108.285 84.9161 107.682 85.0766 107.617C85.2371 107.551 85.6426 107.855 85.8939 107.867C86.1451 107.879 86.6159 107.488 86.6159 107.488L92.6408 106.57L95.8681 105.633Z" fill="#FFE9E9"/>
<path fill-rule="evenodd" clip-rule="evenodd" d="M112.239 96.9091L112.246 96.9293L108.639 101.968L105.395 101.998L105.395 100.275L107.98 100.601L111.819 95.7052L111.827 95.7265C111.838 95.6038 111.849 95.5135 111.849 95.5135C111.849 95.5135 111.919 95.4638 112.03 95.3851C112.044 95.1663 112.085 94.9678 112.085 94.9678C112.085 94.9678 112.854 94.5087 113.06 94.4686C113.148 94.4515 113.072 94.586 112.955 94.7464C113.258 94.5443 113.523 94.3778 113.595 94.3639C113.785 94.3271 114.05 94.6805 114.05 94.6805L114.202 95.4612L113.898 95.9253L112.239 96.9091Z" fill="#FFE9E9"/>
<path d="M103.095 99.6617C103.095 99.6617 105.76 99.6998 106.03 100.278C106.15 100.537 105.488 101.729 105.377 102.092C105.377 102.296 105.505 102.363 106.028 102.887C107.332 104.191 111.957 109.136 111.957 109.136C111.957 109.136 110.523 111.25 109.544 112.429C108.566 113.608 106.547 114.682 106.547 114.682C106.547 114.682 102.238 109.976 100.433 108.777C99.5291 108.177 98.4962 107.953 97.6895 107.878C96.8694 107.803 96.0738 107.365 95.7372 106.613L95.705 106.541C95.4769 106.032 95.7446 105.437 96.2661 105.238C96.6535 105.089 97.0747 104.911 97.3695 104.739C98.0645 104.332 98.3792 103.693 98.3792 103.693L100.271 101.734C100.271 101.734 100.812 101.291 101.465 100.606C102.117 99.9214 103.095 99.6617 103.095 99.6617Z" fill="url(#paint6_linear_279_4473)"/>
<path fill-rule="evenodd" clip-rule="evenodd" d="M98.58 100.859L97.4781 102L99.157 103.621L100.259 102.48L98.58 100.859ZM100.559 104.093C100.32 103.863 99.157 103.621 99.157 103.621L100.259 102.48C100.259 102.48 100.797 104.323 100.559 104.093Z" fill="#FECECD"/>
<ellipse cx="97.3279" cy="100.858" rx="1.66954" ry="2.43304" transform="rotate(-46 97.3279 100.858)" fill="#FFE9E9"/>
<path fill-rule="evenodd" clip-rule="evenodd" d="M96.1722 102.055C95.9337 101.631 95.1946 100.917 95.3636 100.694C95.5327 100.471 96.0589 100.206 96.1737 99.5437C96.2178 99.1997 96.2957 99.0817 96.2208 99.0094C97.3649 98.1816 97.3256 99.2994 98.3995 99.3739C98.5115 99.3817 98.5927 99.1739 98.5927 99.1739C98.5927 99.1739 97.1328 97.7641 96.906 97.7384C96.6792 97.7126 95.7683 97.6061 95.9493 98.1674C95.7623 97.9868 95.183 98.2004 94.9399 98.7388C94.6969 99.2772 94.3981 100.148 94.6756 100.61C94.9532 101.071 95.6049 101.893 96.1722 102.055Z" fill="#513450"/>
<rect x="128.748" y="29.7559" width="1.61538" height="14.5385" transform="rotate(13 128.748 29.7559)" fill="url(#paint7_linear_279_4473)"/>
<ellipse cx="125.568" cy="48.9162" rx="18.9808" ry="13.7308" transform="rotate(13 125.568 48.9162)" fill="url(#paint8_linear_279_4473)"/>
<ellipse cx="122.54" cy="60.2378" rx="50.8846" ry="18.1731" transform="rotate(13 122.54 60.2378)" fill="#E7EAEE"/>
<ellipse cx="122.176" cy="61.8121" rx="50.8846" ry="18.1731" transform="rotate(13 122.176 61.8121)" fill="url(#paint9_linear_279_4473)"/>
<ellipse cx="119.209" cy="71.0735" rx="20.1923" ry="6.86538" transform="rotate(13 119.209 71.0735)" fill="white"/>
<circle cx="129.717" cy="29.1521" r="2.42308" transform="rotate(13 129.717 29.1521)" fill="#D8D8D8"/>
<circle cx="159.741" cy="64.2673" r="3.23077" transform="rotate(13 159.741 64.2673)" fill="#F9FBFF"/>
<circle cx="112.824" cy="48.4626" r="3.23077" transform="rotate(13 112.824 48.4626)" fill="#F9FBFF"/>
<circle cx="137.221" cy="54.0935" r="3.23077" transform="rotate(13 137.221 54.0935)" fill="#F9FBFF"/>
<circle cx="88.1243" cy="47.7322" r="3.23077" transform="rotate(13 88.1243 47.7322)" fill="#F9FBFF"/>
<path fill-rule="evenodd" clip-rule="evenodd" d="M138.759 76.0006C138.812 75.8753 138.853 75.7465 138.884 75.6142C139.737 71.9197 131.62 66.8911 120.753 64.3825C109.887 61.8738 100.387 62.8351 99.5343 66.5296C99.5038 66.6619 99.4847 66.7959 99.4769 66.9315L99.4434 66.9238L58.9996 145.567L129.829 161.919L138.793 76.0083L138.759 76.0006Z" fill="url(#paint10_linear_279_4473)"/>
<ellipse opacity="0.328544" cx="105.404" cy="141.749" rx="14.1346" ry="2.82692" fill="url(#paint11_linear_279_4473)"/>
<path d="M46.8458 120.092C46.8458 120.092 51.8381 128.87 53.0862 135.069C53.0862 140.021 49.966 141.309 46.8458 141.309C43.7256 141.309 40.6055 140.021 40.6055 135.069C41.8535 129.452 46.8458 120.092 46.8458 120.092Z" fill="#E5EAEF"/>
<path d="M46.8452 137.71C46.8452 137.487 47.026 137.307 47.2491 137.307C47.4721 137.307 47.6529 137.487 47.6529 137.71V149.422H46.8452V137.71Z" fill="#CFD6DB"/>
<g opacity="0.796852">
<path d="M157.904 117.562C157.904 117.562 161.96 124.68 162.975 129.706C162.975 133.721 160.439 134.766 157.904 134.766C155.369 134.766 152.834 133.721 152.834 129.706C153.848 125.152 157.904 117.562 157.904 117.562Z" fill="#E5EAEF"/>
<path d="M157.905 131.848C157.905 131.666 158.052 131.52 158.233 131.52C158.414 131.52 158.561 131.666 158.561 131.848V141.343H157.905V131.848Z" fill="#CFD6DB"/>
</g>
<defs>
<radialGradient id="paint0_radial_279_4473" cx="0" cy="0" r="1" gradientUnits="userSpaceOnUse" gradientTransform="translate(91.0777 154.704) rotate(-90) scale(35.9382 375.339)">
<stop stop-color="#EBEDF0" stop-opacity="0.24"/>
<stop offset="0.536775" stop-color="#EBEDF0" stop-opacity="0.845525"/>
<stop offset="1" stop-color="#E0E4E7" stop-opacity="0.01"/>
</radialGradient>
<linearGradient id="paint1_linear_279_4473" x1="79.4235" y1="160.56" x2="81.1052" y2="164.156" gradientUnits="userSpaceOnUse">
<stop stop-color="#E1E7EA"/>
<stop offset="1" stop-color="#D0D6DC"/>
</linearGradient>
<linearGradient id="paint2_linear_279_4473" x1="135.473" y1="168.295" x2="138.551" y2="174.713" gradientUnits="userSpaceOnUse">
<stop stop-color="#E1E7EA"/>
<stop offset="1" stop-color="#D0D6DC"/>
</linearGradient>
<linearGradient id="paint3_linear_279_4473" x1="114.113" y1="121.957" x2="111.729" y2="119.655" gradientUnits="userSpaceOnUse">
<stop stop-color="#7A87AF"/>
<stop offset="1" stop-color="#444F77"/>
</linearGradient>
<linearGradient id="paint4_linear_279_4473" x1="117.642" y1="120.516" x2="114.831" y2="117.802" gradientUnits="userSpaceOnUse">
<stop stop-color="#7A87AF"/>
<stop offset="1" stop-color="#444F77"/>
</linearGradient>
<linearGradient id="paint5_linear_279_4473" x1="121.206" y1="114.587" x2="112.917" y2="106.583" gradientUnits="userSpaceOnUse">
<stop stop-color="#7A87AF"/>
<stop offset="1" stop-color="#444F77"/>
</linearGradient>
<linearGradient id="paint6_linear_279_4473" x1="112.402" y1="98.0185" x2="113.166" y2="116.253" gradientUnits="userSpaceOnUse">
<stop stop-color="#E5E9F0"/>
<stop offset="1" stop-color="#D2DAE8"/>
</linearGradient>
<linearGradient id="paint7_linear_279_4473" x1="130.922" y1="29.7984" x2="128.8" y2="29.7554" gradientUnits="userSpaceOnUse">
<stop stop-color="#F8FBFF"/>
<stop offset="1" stop-color="#D9DDE2"/>
</linearGradient>
<linearGradient id="paint8_linear_279_4473" x1="95.2397" y1="56.1953" x2="130.661" y2="67.3681" gradientUnits="userSpaceOnUse">
<stop stop-color="#F8FBFF"/>
<stop offset="1" stop-color="#D9DDE2"/>
</linearGradient>
<linearGradient id="paint9_linear_279_4473" x1="52.3812" y1="94.5339" x2="104.355" y2="35.9675" gradientUnits="userSpaceOnUse">
<stop stop-color="#F8FBFF"/>
<stop offset="1" stop-color="#D9DDE2"/>
</linearGradient>
<linearGradient id="paint10_linear_279_4473" x1="126.406" y1="152.37" x2="153.214" y2="66.7067" gradientUnits="userSpaceOnUse">
<stop stop-color="#F8FBFF" stop-opacity="0.2"/>
<stop offset="1" stop-color="#D9DDE2" stop-opacity="0.6"/>
</linearGradient>
<linearGradient id="paint11_linear_279_4473" x1="94.7946" y1="142.084" x2="99.6788" y2="152.513" gradientUnits="userSpaceOnUse">
<stop stop-color="#C4CDD1"/>
<stop offset="1" stop-color="#C6CFD3" stop-opacity="0.01"/>
</linearGradient>
</defs>
</svg>
