<svg width="20" height="21" viewBox="0 0 20 21" fill="none" xmlns="http://www.w3.org/2000/svg">
<path d="M18.3337 10.2501C18.3337 14.8525 14.6027 18.5834 10.0003 18.5834M18.3337 10.2501C18.3337 5.64771 14.6027 1.91675 10.0003 1.91675M18.3337 10.2501C18.3337 8.86937 14.6027 7.75008 10.0003 7.75008C5.39795 7.75008 1.66699 8.86937 1.66699 10.2501M18.3337 10.2501C18.3337 11.6308 14.6027 12.7501 10.0003 12.7501C5.39795 12.7501 1.66699 11.6308 1.66699 10.2501M10.0003 18.5834C5.39795 18.5834 1.66699 14.8525 1.66699 10.2501M10.0003 18.5834C11.8413 18.5834 13.3337 14.8525 13.3337 10.2501C13.3337 5.64771 11.8413 1.91675 10.0003 1.91675M10.0003 18.5834C8.15938 18.5834 6.66699 14.8525 6.66699 10.2501C6.66699 5.64771 8.15938 1.91675 10.0003 1.91675M1.66699 10.2501C1.66699 5.64771 5.39795 1.91675 10.0003 1.91675" stroke="#28303F" stroke-width="1.5"/>
</svg>
