<svg width="39" height="34" viewBox="0 0 39 34" fill="none" xmlns="http://www.w3.org/2000/svg">
<path d="M8.00043 9.3335C4.66043 9.3335 1.94043 11.5735 1.94043 14.3335C1.94043 14.5202 2.0871 14.6668 2.27376 14.6668H13.7271C13.9138 14.6668 14.0604 14.5202 14.0604 14.3335C14.0604 11.5735 11.3404 9.3335 8.00043 9.3335Z" fill="#9CA3AF"/>
<path d="M8.00033 1.3335C7.21366 1.3335 6.49366 1.60683 5.92033 2.06683C5.15366 2.6735 4.66699 3.6135 4.66699 4.66683C4.66699 5.2935 4.84033 5.88016 5.15366 6.38016C5.72699 7.34683 6.78033 8.00016 8.00033 8.00016C8.84033 8.00016 9.60699 7.6935 10.1937 7.16683C10.4537 6.94683 10.6803 6.68016 10.8537 6.38016C11.1603 5.88016 11.3337 5.2935 11.3337 4.66683C11.3337 2.82683 9.84033 1.3335 8.00033 1.3335ZM9.72699 4.30683L7.94699 5.94683C7.82699 6.06016 7.67366 6.1135 7.52033 6.1135C7.36033 6.1135 7.20033 6.0535 7.08033 5.9335L6.26033 5.10683C6.01366 4.86016 6.01366 4.46683 6.26033 4.22016C6.50699 3.9735 6.90033 3.9735 7.14699 4.22016L7.54033 4.6135L8.88032 3.38016C9.13366 3.14683 9.52699 3.16016 9.76033 3.4135C9.99366 3.6735 9.98033 4.0735 9.72699 4.30683Z" fill="#9CA3AF"/>
<path d="M0 21C0 20.4477 0.306332 20 0.684211 20H7.52632C7.90419 20 8.21053 20.4477 8.21053 21C8.21053 21.5523 7.90419 22 7.52632 22H0.68421C0.306331 22 0 21.5523 0 21Z" fill="#9CA3AF"/>
<path d="M10.2632 21C10.2632 20.4477 10.5695 20 10.9474 20H17.7895C18.1674 20 18.4737 20.4477 18.4737 21C18.4737 21.5523 18.1674 22 17.7895 22H10.9474C10.5695 22 10.2632 21.5523 10.2632 21Z" fill="#9CA3AF"/>
<path d="M20.5263 21C20.5263 20.4477 20.8326 20 21.2105 20H28.0526C28.4305 20 28.7368 20.4477 28.7368 21C28.7368 21.5523 28.4305 22 28.0526 22H21.2105C20.8326 22 20.5263 21.5523 20.5263 21Z" fill="#9CA3AF"/>
<path d="M30.7895 21C30.7895 20.4477 31.0958 20 31.4737 20H38.3158C38.6937 20 39 20.4477 39 21C39 21.5523 38.6937 22 38.3158 22H31.4737C31.0958 22 30.7895 21.5523 30.7895 21Z" fill="#9CA3AF"/>
<path d="M0 27C0 26.4477 0.306332 26 0.684211 26H7.52632C7.90419 26 8.21053 26.4477 8.21053 27C8.21053 27.5523 7.90419 28 7.52632 28H0.68421C0.306331 28 0 27.5523 0 27Z" fill="#9CA3AF"/>
<path d="M10.2632 27C10.2632 26.4477 10.5695 26 10.9474 26H17.7895C18.1674 26 18.4737 26.4477 18.4737 27C18.4737 27.5523 18.1674 28 17.7895 28H10.9474C10.5695 28 10.2632 27.5523 10.2632 27Z" fill="#9CA3AF"/>
<path d="M20.5263 27C20.5263 26.4477 20.8326 26 21.2105 26H28.0526C28.4305 26 28.7368 26.4477 28.7368 27C28.7368 27.5523 28.4305 28 28.0526 28H21.2105C20.8326 28 20.5263 27.5523 20.5263 27Z" fill="#9CA3AF"/>
<path d="M30.7895 27C30.7895 26.4477 31.0958 26 31.4737 26H38.3158C38.6937 26 39 26.4477 39 27C39 27.5523 38.6937 28 38.3158 28H31.4737C31.0958 28 30.7895 27.5523 30.7895 27Z" fill="#9CA3AF"/>
<path d="M0 33C0 32.4477 0.306332 32 0.684211 32H7.52632C7.90419 32 8.21053 32.4477 8.21053 33C8.21053 33.5523 7.90419 34 7.52632 34H0.68421C0.306331 34 0 33.5523 0 33Z" fill="#9CA3AF"/>
<path d="M10.2632 33C10.2632 32.4477 10.5695 32 10.9474 32H17.7895C18.1674 32 18.4737 32.4477 18.4737 33C18.4737 33.5523 18.1674 34 17.7895 34H10.9474C10.5695 34 10.2632 33.5523 10.2632 33Z" fill="#9CA3AF"/>
<path d="M20.5263 33C20.5263 32.4477 20.8326 32 21.2105 32H28.0526C28.4305 32 28.7368 32.4477 28.7368 33C28.7368 33.5523 28.4305 34 28.0526 34H21.2105C20.8326 34 20.5263 33.5523 20.5263 33Z" fill="#9CA3AF"/>
<path d="M30.7895 33C30.7895 32.4477 31.0958 32 31.4737 32H38.3158C38.6937 32 39 32.4477 39 33C39 33.5523 38.6937 34 38.3158 34H31.4737C31.0958 34 30.7895 33.5523 30.7895 33Z" fill="#9CA3AF"/>
</svg>
