<svg width="178" height="74" viewBox="0 0 178 74" fill="none" xmlns="http://www.w3.org/2000/svg">
<g filter="url(#filter0_ddddd_5348_11267)">
<circle cx="35.5" cy="33" r="32" fill="white"/>
</g>
<path d="M24.0004 24.3335C20.6604 24.3335 17.9404 26.5735 17.9404 29.3335C17.9404 29.5202 18.0871 29.6668 18.2738 29.6668H29.7271C29.9138 29.6668 30.0604 29.5202 30.0604 29.3335C30.0604 26.5735 27.3404 24.3335 24.0004 24.3335Z" fill="#9CA3AF"/>
<path d="M24.0003 16.3335C23.2137 16.3335 22.4937 16.6068 21.9203 17.0668C21.1537 17.6735 20.667 18.6135 20.667 19.6668C20.667 20.2935 20.8403 20.8802 21.1537 21.3802C21.727 22.3468 22.7803 23.0002 24.0003 23.0002C24.8403 23.0002 25.607 22.6935 26.1937 22.1668C26.4537 21.9468 26.6803 21.6802 26.8537 21.3802C27.1603 20.8802 27.3337 20.2935 27.3337 19.6668C27.3337 17.8268 25.8403 16.3335 24.0003 16.3335ZM25.727 19.3068L23.947 20.9468C23.827 21.0602 23.6737 21.1135 23.5203 21.1135C23.3603 21.1135 23.2003 21.0535 23.0803 20.9335L22.2603 20.1068C22.0137 19.8602 22.0137 19.4668 22.2603 19.2202C22.507 18.9735 22.9003 18.9735 23.147 19.2202L23.5403 19.6135L24.8803 18.3802C25.1337 18.1468 25.527 18.1602 25.7603 18.4135C25.9937 18.6735 25.9803 19.0735 25.727 19.3068Z" fill="#9CA3AF"/>
<path d="M16 36C16 35.4477 16.3063 35 16.6842 35H23.5263C23.9042 35 24.2105 35.4477 24.2105 36C24.2105 36.5523 23.9042 37 23.5263 37H16.6842C16.3063 37 16 36.5523 16 36Z" fill="#9CA3AF"/>
<path d="M26.2632 36C26.2632 35.4477 26.5695 35 26.9474 35H33.7895C34.1674 35 34.4737 35.4477 34.4737 36C34.4737 36.5523 34.1674 37 33.7895 37H26.9474C26.5695 37 26.2632 36.5523 26.2632 36Z" fill="#9CA3AF"/>
<path d="M36.5263 36C36.5263 35.4477 36.8326 35 37.2105 35H44.0526C44.4305 35 44.7368 35.4477 44.7368 36C44.7368 36.5523 44.4305 37 44.0526 37H37.2105C36.8326 37 36.5263 36.5523 36.5263 36Z" fill="#9CA3AF"/>
<path d="M46.7895 36C46.7895 35.4477 47.0958 35 47.4737 35H54.3158C54.6937 35 55 35.4477 55 36C55 36.5523 54.6937 37 54.3158 37H47.4737C47.0958 37 46.7895 36.5523 46.7895 36Z" fill="#9CA3AF"/>
<path d="M16 42C16 41.4477 16.3063 41 16.6842 41H23.5263C23.9042 41 24.2105 41.4477 24.2105 42C24.2105 42.5523 23.9042 43 23.5263 43H16.6842C16.3063 43 16 42.5523 16 42Z" fill="#9CA3AF"/>
<path d="M26.2632 42C26.2632 41.4477 26.5695 41 26.9474 41H33.7895C34.1674 41 34.4737 41.4477 34.4737 42C34.4737 42.5523 34.1674 43 33.7895 43H26.9474C26.5695 43 26.2632 42.5523 26.2632 42Z" fill="#9CA3AF"/>
<path d="M36.5263 42C36.5263 41.4477 36.8326 41 37.2105 41H44.0526C44.4305 41 44.7368 41.4477 44.7368 42C44.7368 42.5523 44.4305 43 44.0526 43H37.2105C36.8326 43 36.5263 42.5523 36.5263 42Z" fill="#9CA3AF"/>
<path d="M46.7895 42C46.7895 41.4477 47.0958 41 47.4737 41H54.3158C54.6937 41 55 41.4477 55 42C55 42.5523 54.6937 43 54.3158 43H47.4737C47.0958 43 46.7895 42.5523 46.7895 42Z" fill="#9CA3AF"/>
<path d="M16 48C16 47.4477 16.3063 47 16.6842 47H23.5263C23.9042 47 24.2105 47.4477 24.2105 48C24.2105 48.5523 23.9042 49 23.5263 49H16.6842C16.3063 49 16 48.5523 16 48Z" fill="#9CA3AF"/>
<path d="M26.2632 48C26.2632 47.4477 26.5695 47 26.9474 47H33.7895C34.1674 47 34.4737 47.4477 34.4737 48C34.4737 48.5523 34.1674 49 33.7895 49H26.9474C26.5695 49 26.2632 48.5523 26.2632 48Z" fill="#9CA3AF"/>
<path d="M36.5263 48C36.5263 47.4477 36.8326 47 37.2105 47H44.0526C44.4305 47 44.7368 47.4477 44.7368 48C44.7368 48.5523 44.4305 49 44.0526 49H37.2105C36.8326 49 36.5263 48.5523 36.5263 48Z" fill="#9CA3AF"/>
<path d="M46.7895 48C46.7895 47.4477 47.0958 47 47.4737 47H54.3158C54.6937 47 55 47.4477 55 48C55 48.5523 54.6937 49 54.3158 49H47.4737C47.0958 49 46.7895 48.5523 46.7895 48Z" fill="#9CA3AF"/>
<path d="M88.0227 38.6591C87.2576 38.6591 86.5985 38.5189 86.0455 38.2386C85.4924 37.9583 85.0663 37.5739 84.767 37.0852C84.4678 36.5966 84.3182 36.0379 84.3182 35.4091C84.3182 34.9242 84.4205 34.4943 84.625 34.1193C84.8333 33.7405 85.1193 33.3902 85.483 33.0682C85.8504 32.7424 86.2727 32.4167 86.75 32.0909L88.4318 30.8409C88.7614 30.625 89.0246 30.3939 89.2216 30.1477C89.4223 29.9015 89.5227 29.5795 89.5227 29.1818C89.5227 28.8864 89.392 28.6004 89.1307 28.3239C88.8731 28.0473 88.5341 27.9091 88.1136 27.9091C87.8182 27.9091 87.5568 27.9848 87.3295 28.1364C87.1061 28.2841 86.9299 28.4735 86.8011 28.7045C86.6761 28.9318 86.6136 29.1667 86.6136 29.4091C86.6136 29.6818 86.6875 29.9583 86.8352 30.2386C86.9867 30.5152 87.178 30.7992 87.4091 31.0909C87.6439 31.3788 87.8864 31.6742 88.1364 31.9773L93.4773 38.5H91.8636L87.4545 33.1818C87.0455 32.6894 86.6742 32.2424 86.3409 31.8409C86.0076 31.4394 85.7424 31.0436 85.5455 30.6534C85.3485 30.2633 85.25 29.8409 85.25 29.3864C85.25 28.8636 85.3655 28.4053 85.5966 28.0114C85.8314 27.6136 86.1591 27.3049 86.5795 27.0852C87.0038 26.8617 87.5 26.75 88.0682 26.75C88.6515 26.75 89.1534 26.8636 89.5739 27.0909C89.9943 27.3144 90.3182 27.6117 90.5455 27.983C90.7727 28.3504 90.8864 28.75 90.8864 29.1818C90.8864 29.7386 90.7481 30.2216 90.4716 30.6307C90.1951 31.0398 89.8182 31.4205 89.3409 31.7727L87.0227 33.5C86.5 33.8864 86.1458 34.2614 85.9602 34.625C85.7746 34.9886 85.6818 35.25 85.6818 35.4091C85.6818 35.7727 85.7765 36.1117 85.9659 36.4261C86.1553 36.7405 86.4223 36.9943 86.767 37.1875C87.1117 37.3807 87.5152 37.4773 87.9773 37.4773C88.4167 37.4773 88.8447 37.3845 89.2614 37.1989C89.678 37.0095 90.0549 36.7367 90.392 36.3807C90.733 36.0246 91.0019 35.5966 91.1989 35.0966C91.3996 34.5966 91.5 34.0341 91.5 33.4091H92.7955C92.7955 34.1818 92.7064 34.8125 92.5284 35.3011C92.3504 35.7898 92.1496 36.1723 91.9261 36.4489C91.7027 36.7254 91.5227 36.9318 91.3864 37.0682C91.3409 37.125 91.2992 37.1818 91.2614 37.2386C91.2235 37.2955 91.1818 37.3523 91.1364 37.4091C90.7614 37.8295 90.2879 38.1439 89.7159 38.3523C89.1439 38.5568 88.5795 38.6591 88.0227 38.6591Z" fill="#6B7280"/>
<g filter="url(#filter1_ddddd_5348_11267)">
<circle cx="142.5" cy="33" r="32" fill="white"/>
</g>
<path fill-rule="evenodd" clip-rule="evenodd" d="M142.326 20.8092C140.325 18.2483 137.522 17.2712 135.133 17.8096C132.704 18.357 130.877 20.4385 130.877 23.5593C130.877 28.3654 133.741 31.6851 137.106 34.0882C135.479 35.5675 134.243 37.2893 133.505 38.96C133.427 39.1363 133.355 39.3131 133.287 39.4898H124.149C123.698 39.4898 123.333 39.8556 123.333 40.3068C123.333 40.758 123.698 41.1237 124.149 41.1237H132.827C132.714 41.7595 132.687 42.379 132.762 42.9622C132.923 44.2295 133.57 45.3259 134.794 45.9391C136.099 46.5923 137.354 46.5337 138.469 46.0147C139.544 45.5145 140.451 44.6072 141.19 43.6172C141.77 42.8411 142.276 41.9739 142.703 41.1237H160.851C161.301 41.1237 161.666 40.758 161.666 40.3068C161.666 39.8556 161.301 39.4898 160.851 39.4898H143.445C143.729 38.7932 143.948 38.1669 144.095 37.6877C144.463 36.4905 144.891 34.1998 144.983 31.5902C145.159 31.5347 145.33 31.4844 145.495 31.4391C146.613 31.1329 147.421 31.0742 147.95 31.1591C148.46 31.2408 148.605 31.4281 148.659 31.5608C148.736 31.7503 148.761 32.1506 148.475 32.8471C148.107 33.742 147.92 34.5619 148.097 35.2165C148.196 35.5818 148.412 35.9022 148.752 36.1065C149.074 36.2996 149.429 36.3415 149.738 36.3221C150.339 36.2845 150.995 36.003 151.599 35.6384C152.223 35.2619 152.874 34.7467 153.476 34.144C154.017 33.602 154.572 33.1075 155.095 32.72C155.628 32.3245 156.081 32.0762 156.419 31.9754C156.584 31.9264 156.684 31.9238 156.734 31.9301C156.768 31.9343 156.774 31.9408 156.778 31.9449C156.813 31.9777 156.976 32.1981 156.976 32.9536C156.976 34.3537 157.35 35.4541 158.356 35.8572C158.812 36.0399 159.282 36.0197 159.679 35.9369C160.079 35.8534 160.468 35.6935 160.808 35.5231C161.211 35.3214 161.374 34.8306 161.172 34.4271C160.971 34.0235 160.481 33.86 160.078 34.0618C159.807 34.1978 159.558 34.2932 159.346 34.3373C159.132 34.382 159.016 34.3618 158.962 34.3402C158.943 34.3329 158.607 34.2 158.607 32.9536C158.607 32.0756 158.439 31.274 157.906 30.7644C157.319 30.2025 156.557 30.2296 155.954 30.4093C155.349 30.5893 154.719 30.9662 154.124 31.4067C153.519 31.8552 152.902 32.4074 152.322 32.9887C151.802 33.5092 151.255 33.9387 150.758 34.2388C150.644 34.3071 150.537 34.3665 150.437 34.4179C150.04 34.6209 149.685 34.3063 149.827 33.8833C149.869 33.7598 149.92 33.6222 149.983 33.4693C150.339 32.603 150.481 31.7114 150.169 30.9441C149.834 30.1202 149.083 29.6859 148.208 29.5457C147.354 29.4087 146.289 29.5276 145.065 29.8631C145.041 29.8697 145.016 29.8765 144.992 29.8833C144.912 26.7711 144.274 23.3019 142.326 20.8092ZM141.671 39.4898C142.062 38.6089 142.356 37.794 142.536 37.2072C142.828 36.2542 143.192 34.3935 143.321 32.2039C142.736 32.4478 142.108 32.7362 141.437 33.0723C140.902 33.3403 140.391 33.6398 139.906 33.9643C140.089 34.0734 140.273 34.1809 140.458 34.2867C140.849 34.5106 140.984 35.0097 140.761 35.4014C140.537 35.7931 140.039 35.9291 139.648 35.7052C139.269 35.4881 138.889 35.2618 138.511 35.0254C136.941 36.374 135.754 37.9685 135.056 39.4898H141.671ZM134.49 41.1237C134.354 41.7289 134.319 42.2805 134.38 42.7551C134.483 43.5673 134.858 44.1442 135.524 44.4777C136.361 44.8968 137.094 44.8533 137.782 44.533C138.51 44.1939 139.222 43.5247 139.884 42.6383C140.237 42.1659 140.562 41.6502 140.857 41.1237H134.49ZM140.708 31.6109C141.664 31.1319 142.552 30.738 143.369 30.4253C143.369 30.3369 143.368 30.2482 143.366 30.1594C143.316 27.105 142.712 23.9541 141.042 21.8162C139.372 19.6797 137.18 19.0229 135.491 19.4036C133.842 19.7753 132.509 21.1657 132.509 23.5593C132.509 27.7678 135.095 30.7358 138.418 33.0141C139.128 32.4923 139.893 32.0188 140.708 31.6109Z" fill="#9CA3AF"/>
<path d="M129.415 30.5386C129.734 30.8576 129.734 31.3748 129.415 31.6939L127.749 33.3628L129.415 35.0317C129.734 35.3508 129.734 35.868 129.415 36.187C129.097 36.5061 128.58 36.5061 128.262 36.187L126.595 34.5181L124.929 36.187C124.611 36.5061 124.094 36.5061 123.776 36.187C123.457 35.868 123.457 35.3508 123.776 35.0317L125.442 33.3628L123.776 31.6939C123.457 31.3748 123.457 30.8576 123.776 30.5386C124.094 30.2195 124.611 30.2195 124.929 30.5386L126.595 32.2075L128.262 30.5386C128.58 30.2195 129.097 30.2195 129.415 30.5386Z" fill="#9CA3AF"/>
<defs>
<filter id="filter0_ddddd_5348_11267" x="0.5" y="0" width="70" height="74" filterUnits="userSpaceOnUse" color-interpolation-filters="sRGB">
<feFlood flood-opacity="0" result="BackgroundImageFix"/>
<feColorMatrix in="SourceAlpha" type="matrix" values="0 0 0 0 0 0 0 0 0 0 0 0 0 0 0 0 0 0 127 0" result="hardAlpha"/>
<feMorphology radius="1" operator="dilate" in="SourceAlpha" result="effect1_dropShadow_5348_11267"/>
<feOffset/>
<feComposite in2="hardAlpha" operator="out"/>
<feColorMatrix type="matrix" values="0 0 0 0 0.00784314 0 0 0 0 0.0235294 0 0 0 0 0.0901961 0 0 0 0.08 0"/>
<feBlend mode="normal" in2="BackgroundImageFix" result="effect1_dropShadow_5348_11267"/>
<feColorMatrix in="SourceAlpha" type="matrix" values="0 0 0 0 0 0 0 0 0 0 0 0 0 0 0 0 0 0 127 0" result="hardAlpha"/>
<feMorphology radius="2" operator="erode" in="SourceAlpha" result="effect2_dropShadow_5348_11267"/>
<feOffset dy="4"/>
<feGaussianBlur stdDeviation="2"/>
<feComposite in2="hardAlpha" operator="out"/>
<feColorMatrix type="matrix" values="0 0 0 0 0.00784314 0 0 0 0 0.0235294 0 0 0 0 0.0901961 0 0 0 0.04 0"/>
<feBlend mode="normal" in2="effect1_dropShadow_5348_11267" result="effect2_dropShadow_5348_11267"/>
<feColorMatrix in="SourceAlpha" type="matrix" values="0 0 0 0 0 0 0 0 0 0 0 0 0 0 0 0 0 0 127 0" result="hardAlpha"/>
<feMorphology radius="3" operator="erode" in="SourceAlpha" result="effect3_dropShadow_5348_11267"/>
<feOffset dy="6"/>
<feGaussianBlur stdDeviation="3"/>
<feComposite in2="hardAlpha" operator="out"/>
<feColorMatrix type="matrix" values="0 0 0 0 0.00784314 0 0 0 0 0.0235294 0 0 0 0 0.0901961 0 0 0 0.08 0"/>
<feBlend mode="normal" in2="effect2_dropShadow_5348_11267" result="effect3_dropShadow_5348_11267"/>
<feColorMatrix in="SourceAlpha" type="matrix" values="0 0 0 0 0 0 0 0 0 0 0 0 0 0 0 0 0 0 127 0" result="hardAlpha"/>
<feMorphology radius="1" operator="erode" in="SourceAlpha" result="effect4_dropShadow_5348_11267"/>
<feOffset dy="2"/>
<feGaussianBlur stdDeviation="1"/>
<feComposite in2="hardAlpha" operator="out"/>
<feColorMatrix type="matrix" values="0 0 0 0 0.00784314 0 0 0 0 0.0235294 0 0 0 0 0.0901961 0 0 0 0.02 0"/>
<feBlend mode="normal" in2="effect3_dropShadow_5348_11267" result="effect4_dropShadow_5348_11267"/>
<feColorMatrix in="SourceAlpha" type="matrix" values="0 0 0 0 0 0 0 0 0 0 0 0 0 0 0 0 0 0 127 0" result="hardAlpha"/>
<feOffset dy="1"/>
<feGaussianBlur stdDeviation="0.5"/>
<feComposite in2="hardAlpha" operator="out"/>
<feColorMatrix type="matrix" values="0 0 0 0 0.00784314 0 0 0 0 0.0235294 0 0 0 0 0.0901961 0 0 0 0.08 0"/>
<feBlend mode="normal" in2="effect4_dropShadow_5348_11267" result="effect5_dropShadow_5348_11267"/>
<feBlend mode="normal" in="SourceGraphic" in2="effect5_dropShadow_5348_11267" result="shape"/>
</filter>
<filter id="filter1_ddddd_5348_11267" x="107.5" y="0" width="70" height="74" filterUnits="userSpaceOnUse" color-interpolation-filters="sRGB">
<feFlood flood-opacity="0" result="BackgroundImageFix"/>
<feColorMatrix in="SourceAlpha" type="matrix" values="0 0 0 0 0 0 0 0 0 0 0 0 0 0 0 0 0 0 127 0" result="hardAlpha"/>
<feMorphology radius="1" operator="dilate" in="SourceAlpha" result="effect1_dropShadow_5348_11267"/>
<feOffset/>
<feComposite in2="hardAlpha" operator="out"/>
<feColorMatrix type="matrix" values="0 0 0 0 0.00784314 0 0 0 0 0.0235294 0 0 0 0 0.0901961 0 0 0 0.08 0"/>
<feBlend mode="normal" in2="BackgroundImageFix" result="effect1_dropShadow_5348_11267"/>
<feColorMatrix in="SourceAlpha" type="matrix" values="0 0 0 0 0 0 0 0 0 0 0 0 0 0 0 0 0 0 127 0" result="hardAlpha"/>
<feMorphology radius="2" operator="erode" in="SourceAlpha" result="effect2_dropShadow_5348_11267"/>
<feOffset dy="4"/>
<feGaussianBlur stdDeviation="2"/>
<feComposite in2="hardAlpha" operator="out"/>
<feColorMatrix type="matrix" values="0 0 0 0 0.00784314 0 0 0 0 0.0235294 0 0 0 0 0.0901961 0 0 0 0.04 0"/>
<feBlend mode="normal" in2="effect1_dropShadow_5348_11267" result="effect2_dropShadow_5348_11267"/>
<feColorMatrix in="SourceAlpha" type="matrix" values="0 0 0 0 0 0 0 0 0 0 0 0 0 0 0 0 0 0 127 0" result="hardAlpha"/>
<feMorphology radius="3" operator="erode" in="SourceAlpha" result="effect3_dropShadow_5348_11267"/>
<feOffset dy="6"/>
<feGaussianBlur stdDeviation="3"/>
<feComposite in2="hardAlpha" operator="out"/>
<feColorMatrix type="matrix" values="0 0 0 0 0.00784314 0 0 0 0 0.0235294 0 0 0 0 0.0901961 0 0 0 0.08 0"/>
<feBlend mode="normal" in2="effect2_dropShadow_5348_11267" result="effect3_dropShadow_5348_11267"/>
<feColorMatrix in="SourceAlpha" type="matrix" values="0 0 0 0 0 0 0 0 0 0 0 0 0 0 0 0 0 0 127 0" result="hardAlpha"/>
<feMorphology radius="1" operator="erode" in="SourceAlpha" result="effect4_dropShadow_5348_11267"/>
<feOffset dy="2"/>
<feGaussianBlur stdDeviation="1"/>
<feComposite in2="hardAlpha" operator="out"/>
<feColorMatrix type="matrix" values="0 0 0 0 0.00784314 0 0 0 0 0.0235294 0 0 0 0 0.0901961 0 0 0 0.02 0"/>
<feBlend mode="normal" in2="effect3_dropShadow_5348_11267" result="effect4_dropShadow_5348_11267"/>
<feColorMatrix in="SourceAlpha" type="matrix" values="0 0 0 0 0 0 0 0 0 0 0 0 0 0 0 0 0 0 127 0" result="hardAlpha"/>
<feOffset dy="1"/>
<feGaussianBlur stdDeviation="0.5"/>
<feComposite in2="hardAlpha" operator="out"/>
<feColorMatrix type="matrix" values="0 0 0 0 0.00784314 0 0 0 0 0.0235294 0 0 0 0 0.0901961 0 0 0 0.08 0"/>
<feBlend mode="normal" in2="effect4_dropShadow_5348_11267" result="effect5_dropShadow_5348_11267"/>
<feBlend mode="normal" in="SourceGraphic" in2="effect5_dropShadow_5348_11267" result="shape"/>
</filter>
</defs>
</svg>
