<svg width="17" height="16" viewBox="0 0 17 16" fill="none" xmlns="http://www.w3.org/2000/svg">
<path d="M7.90016 2C5.46705 2.00438 4.19295 2.06411 3.37871 2.87836C2.5 3.75706 2.5 5.17132 2.5 7.99983C2.5 10.8283 2.5 12.2426 3.3787 13.1213C4.25741 14 5.67166 14 8.50017 14C11.3287 14 12.7429 14 13.6216 13.1213C14.4359 12.3071 14.4956 11.033 14.5 8.59984" stroke="#6B7280" stroke-width="1.5" stroke-linecap="round" stroke-linejoin="round"/>
<path d="M14.7236 2.86484C15.0171 2.57259 15.0182 2.09772 14.726 1.80418C14.4337 1.51064 13.9588 1.50959 13.6653 1.80183L14.7236 2.86484ZM7.30385 8.13516C7.01031 8.42741 7.00926 8.90228 7.3015 9.19582C7.59375 9.48936 8.06862 9.49041 8.36216 9.19817L7.30385 8.13516ZM13.852 2.15138L13.7212 2.88988L13.852 2.15138ZM11.1663 1.25C10.7521 1.25004 10.4163 1.58585 10.4164 2.00007C10.4164 2.41428 10.7522 2.75004 11.1664 2.75L11.1663 1.25ZM13.7497 5.33333C13.7497 5.74755 14.0855 6.08333 14.4997 6.08333C14.9139 6.08333 15.2497 5.74755 15.2497 5.33333L13.7497 5.33333ZM14.3483 2.64783L15.0868 2.51717V2.51717L14.3483 2.64783ZM13.6653 1.80183L7.30385 8.13516L8.36216 9.19817L14.7236 2.86484L13.6653 1.80183ZM13.9828 1.41287C13.4958 1.32662 12.7747 1.28808 12.2134 1.26928C11.9247 1.25961 11.6638 1.2548 11.4752 1.2524C11.3808 1.2512 11.3042 1.2506 11.2509 1.2503C11.2242 1.25015 11.2034 1.25008 11.1891 1.25004C11.1819 1.25002 11.1764 1.25001 11.1726 1.25C11.1706 1.25 11.1692 1.25 11.1681 1.25C11.1676 1.25 11.1672 1.25 11.1669 1.25C11.1667 1.25 11.1666 1.25 11.1665 1.25C11.1664 1.25 11.1664 1.25 11.1664 1.25C11.1663 1.25 11.1663 1.25 11.1664 2C11.1664 2.75 11.1664 2.75 11.1664 2.75C11.1664 2.75 11.1664 2.75 11.1664 2.75C11.1664 2.75 11.1664 2.75 11.1665 2.75C11.1666 2.75 11.1669 2.75 11.1673 2.75C11.168 2.75 11.1691 2.75 11.1707 2.75C11.1738 2.75001 11.1787 2.75002 11.1851 2.75003C11.198 2.75007 11.2174 2.75014 11.2424 2.75028C11.2926 2.75056 11.3656 2.75113 11.4561 2.75228C11.6373 2.75459 11.8875 2.75921 12.1632 2.76844C12.7309 2.78745 13.3525 2.82459 13.7212 2.88988L13.9828 1.41287ZM14.4997 5.33333C15.2497 5.33333 15.2497 5.3333 15.2497 5.33325C15.2497 5.33323 15.2497 5.33318 15.2497 5.33313C15.2497 5.33303 15.2497 5.33291 15.2497 5.33276C15.2497 5.33245 15.2497 5.33204 15.2497 5.33151C15.2497 5.33047 15.2497 5.32898 15.2497 5.32706C15.2497 5.32324 15.2497 5.3177 15.2496 5.31054C15.2496 5.29622 15.2495 5.27539 15.2494 5.24875C15.2491 5.19547 15.2485 5.11887 15.2473 5.02445C15.2448 4.83584 15.24 4.575 15.2303 4.28631C15.2115 3.72507 15.173 3.00404 15.0868 2.51717L13.6098 2.77849C13.675 3.14724 13.7122 3.76896 13.7312 4.33657C13.7404 4.61231 13.7451 4.86241 13.7474 5.04364C13.7485 5.13414 13.7491 5.20718 13.7494 5.25732C13.7495 5.28239 13.7496 5.30171 13.7497 5.31461C13.7497 5.32106 13.7497 5.3259 13.7497 5.32905C13.7497 5.33063 13.7497 5.33178 13.7497 5.33249C13.7497 5.33285 13.7497 5.3331 13.7497 5.33324C13.7497 5.33331 13.7497 5.33336 13.7497 5.33337C13.7497 5.33338 13.7497 5.33337 13.7497 5.33337C13.7497 5.33336 13.7497 5.33333 14.4997 5.33333ZM13.7212 2.88988C13.7065 2.88727 13.6777 2.87674 13.6503 2.84932C13.6229 2.82191 13.6124 2.79313 13.6098 2.77849L15.0868 2.51717C14.9858 1.94626 14.5539 1.51401 13.9828 1.41287L13.7212 2.88988Z" fill="#6B7280"/>
</svg>
