<svg width="29" height="28" viewBox="0 0 29 28" fill="none" xmlns="http://www.w3.org/2000/svg">
<g clip-path="url(#clip0_512_4739)">
<rect width="29" height="27.2941" rx="8.52941" fill="#E9E9EB"/>
<rect width="7.67647" height="27.2941" transform="translate(11.0879)" fill="#FFFEFF"/>
<rect width="7.67647" height="29" transform="matrix(0 -1 1 0 0 17.0588)" fill="#FFFEFF"/>
<path d="M22.8133 6.51073C22.2162 3.88367 19.9246 2.70093 17.9117 2.70093C17.9117 2.70093 17.9117 2.70093 17.906 2.70093C15.8988 2.70093 13.6015 3.87799 13.0044 6.50505C12.3392 9.43916 14.136 11.9241 15.7623 13.4878C16.365 14.0678 17.1384 14.3578 17.9117 14.3578C18.685 14.3578 19.4584 14.0678 20.0554 13.4878C21.6817 11.9241 23.4786 9.44485 22.8133 6.51073ZM17.9117 9.35956C16.9223 9.35956 16.1205 8.55779 16.1205 7.56838C16.1205 6.57897 16.9223 5.7772 17.9117 5.7772C18.9011 5.7772 19.7029 6.57897 19.7029 7.56838C19.7029 8.55779 18.9011 9.35956 17.9117 9.35956Z" fill="#6667FA"/>
</g>
<rect x="0.426471" y="0.426471" width="28.1471" height="26.4412" rx="8.10294" stroke="#E2E2E2" stroke-width="0.852941"/>
<defs>
<clipPath id="clip0_512_4739">
<rect width="29" height="27.2941" rx="8.52941" fill="white"/>
</clipPath>
</defs>
</svg>
