<svg width="45" height="45" viewBox="0 0 45 45" fill="none" xmlns="http://www.w3.org/2000/svg">
<path fill-rule="evenodd" clip-rule="evenodd" d="M26.298 26.2395L23.5372 26.2158L23.5312 28.9826H26.301L26.298 26.2395Z" fill="#093126"/>
<path fill-rule="evenodd" clip-rule="evenodd" d="M23.5312 25.6149H26.301L26.298 22.8718L23.5372 22.8452L23.5312 25.6149Z" fill="#093126"/>
<path fill-rule="evenodd" clip-rule="evenodd" d="M22.9758 25.6151V22.8453L20.2119 22.8483L20.209 25.5885L22.9758 25.6151Z" fill="#093126"/>
<path fill-rule="evenodd" clip-rule="evenodd" d="M22.9758 26.2158L20.2119 26.2188L20.209 28.9589L22.9787 28.9855L22.9758 26.2158Z" fill="#093126"/>
<path fill-rule="evenodd" clip-rule="evenodd" d="M20.5252 15.7532C21.0395 15.2625 23.1619 13.0899 23.419 12.9776L25.0803 14.6832C25.6508 15.2418 26.1799 15.768 26.7534 16.3267L33.4663 22.9805C34.028 23.5422 34.5689 24.0772 35.1394 24.627C35.5266 24.9965 36.5051 25.9365 36.8007 26.3178L34.2615 26.3267L34.2408 32.0376C29.4108 32.0198 24.829 32.9864 21.0543 34.8516C20.1616 35.2921 19.2718 35.8094 18.5181 36.3237C16.8539 37.4588 16.3366 37.979 14.9946 39.3358L14.291 40.1221C13.5609 40.9912 12.8278 42.2356 12.683 42.4337C12.7835 43.149 13.0525 43.6013 13.7117 44.1452C13.7708 44.1954 13.8447 44.2427 13.9275 44.29C14.2822 43.5658 15.7542 41.9903 16.4252 41.3607C16.7504 41.0532 17.0105 40.7783 17.3682 40.4739C20.0729 38.1535 23.15 36.3769 26.6972 35.1945C28.1811 34.6979 31.1134 33.9471 32.6594 33.8584V33.9205C32.8958 33.4121 33.3008 32.9746 33.7738 32.7263L33.9216 32.6524C34.696 32.3036 35.2783 32.4041 36.2183 32.4041C38.0658 32.4041 39.9133 32.4041 41.7637 32.4041C42.4761 32.4041 42.8958 32.41 43.3924 32.1706L43.8181 31.9193C43.8683 31.8809 43.9156 31.8573 43.96 31.8188C44.291 31.538 44.5866 31.1685 44.7344 30.7517C44.8083 30.5389 44.9059 30.2581 44.9059 29.9861V14.8635C44.9059 14.3639 44.6901 13.888 44.43 13.4978C44.3383 13.3589 44.1137 13.1224 43.9895 13.019C43.8063 12.8712 43.6437 12.7588 43.4131 12.6524C43.1914 12.549 42.9904 12.481 42.7096 12.4366C42.2692 12.3627 36.7947 12.4012 36.2183 12.4012C35.1158 12.4012 34.0782 12.543 33.221 11.677C32.2958 10.7458 32.4347 9.94772 32.4347 8.73873V3.15197C32.4347 2.09079 32.3874 1.69173 31.8435 0.958654C31.6366 0.680794 31.3587 0.494569 31.075 0.323123C30.8119 0.163502 30.3182 0.00683594 29.9901 0.00683594H15.0773C14.761 0.00683594 14.2644 0.160546 14.0043 0.317211C13.8063 0.432494 13.623 0.547776 13.4604 0.713309C13.2092 0.967522 13.0318 1.18035 12.8751 1.52915C12.6475 2.03758 12.6357 2.42481 12.6357 3.15197V9.67873C12.6357 10.4236 12.482 10.9587 12.0061 11.5144C11.6366 11.943 11.1666 12.2061 10.6138 12.342C10.1557 12.4514 9.37233 12.4012 8.8107 12.4012H3.20621C2.43175 12.4012 2.10955 12.3893 1.54792 12.6288C1.14 12.8032 0.761634 13.1165 0.510378 13.4505C0.256165 13.7875 0.00195312 14.3816 0.00195312 14.8221V29.9861C0.00195312 30.4532 0.244342 30.9734 0.495598 31.3311C0.746854 31.6976 1.1193 31.9814 1.5154 32.1706C2.012 32.41 2.43471 32.4041 3.14413 32.4041H8.7102C9.6502 32.4041 10.4542 32.2888 11.2139 32.6849C11.2612 32.7115 11.3055 32.7293 11.3587 32.7588L11.6455 32.9539C12.2603 33.4357 12.6357 34.1481 12.6357 34.9699V41.4966C12.6357 41.807 12.6446 42.076 12.6682 42.3154V26.374L9.72705 26.4272C9.80095 26.2646 9.83051 26.2616 9.96353 26.1375L14.3738 21.8336C14.5748 21.5321 14.2704 17.2667 14.4566 16.4272H17.6697L17.6815 18.517C18.0806 18.2096 19.3103 16.9238 19.8187 16.4331C20.067 16.1966 20.2798 15.9926 20.5252 15.7532Z" fill="#093126"/>
<path fill-rule="evenodd" clip-rule="evenodd" d="M29.7441 38.9354C24.8047 38.8792 19.4691 39.9788 15.52 42.9318C15.1889 43.1801 14.1662 44.0108 13.9297 44.2916C14.2667 44.4867 14.7455 44.6374 15.0766 44.6374H29.9894C30.2407 44.6374 30.5599 44.5458 30.7491 44.4749C30.959 44.398 31.1718 44.2827 31.3462 44.1527C31.6063 43.9605 31.8517 43.7181 32.0201 43.4432C32.2744 43.0323 32.4369 42.5239 32.434 42.0155V39.0921C31.5295 39.0359 30.6781 38.9472 29.7441 38.9354Z" fill="#093126"/>
</svg>
