<svg width="621" height="507" viewBox="0 0 621 507" fill="none" xmlns="http://www.w3.org/2000/svg">
<g id="No Internet">
<g id="circle">
<path id="Stroke 1" d="M19.8472 232.793V238.055" stroke="#D2D8DF" stroke-width="1.97805" stroke-linecap="round"/>
<g id="Group 8">
<path id="Stroke 2" d="M8.03174 235.641L12.3319 240.067" stroke="#D2D8DF" stroke-width="1.97805" stroke-linecap="round"/>
<path id="Stroke 4" d="M3 247.424H9.08036" stroke="#D2D8DF" stroke-width="1.97805" stroke-linecap="round"/>
<path id="Stroke 6" d="M7.53516 259.421L11.8353 254.994" stroke="#D2D8DF" stroke-width="1.97805" stroke-linecap="round"/>
</g>
<path id="Stroke 9" d="M19.8472 260.86V255.598" stroke="#D2D8DF" stroke-width="1.97805" stroke-linecap="round"/>
<path id="Stroke 10" d="M28.6172 257.348L25.1089 253.84" stroke="#D2D8DF" stroke-width="1.97805" stroke-linecap="round"/>
<path id="Stroke 11" d="M35.6374 248.578H30.375" stroke="#D2D8DF" stroke-width="1.97805" stroke-linecap="round"/>
<path id="Stroke 12" d="M32.1284 236.297L28.6201 239.805" stroke="#D2D8DF" stroke-width="1.97805" stroke-linecap="round"/>
<path id="Stroke 13" d="M302.265 3V6.50829" stroke="#D2D8DF" stroke-width="1.97805" stroke-linecap="round"/>
<path id="Stroke 15" d="M291.743 13.5234H295.251" stroke="#D2D8DF" stroke-width="1.97805" stroke-linecap="round"/>
<path id="Stroke 16" d="M302.265 24.0513V20.543" stroke="#D2D8DF" stroke-width="1.97805" stroke-linecap="round"/>
<path id="Stroke 17" d="M311.039 13.5293H307.531" stroke="#D2D8DF" stroke-width="1.97805" stroke-linecap="round"/>
<path id="Stroke 18" d="M98.7847 150.346V155.608" stroke="#D2D8DF" stroke-width="1.97805" stroke-linecap="round"/>
<path id="Stroke 19" d="M83.001 166.137H88.2634" stroke="#D2D8DF" stroke-width="1.97805" stroke-linecap="round"/>
<path id="Stroke 20" d="M98.7847 180.165V174.902" stroke="#D2D8DF" stroke-width="1.97805" stroke-linecap="round"/>
<path id="Stroke 21" d="M112.82 166.137H107.558" stroke="#D2D8DF" stroke-width="1.97805" stroke-linecap="round"/>
<g id="Group 42">
<path id="Stroke 22" d="M476.373 341.625C480.565 341.625 483.965 345.026 483.965 349.219C483.965 353.414 480.565 356.813 476.373 356.813C472.181 356.813 468.781 353.414 468.781 349.219" stroke="#D2D8DF" stroke-width="1.97805" stroke-linecap="round"/>
<path id="Stroke 24" d="M511.026 441.451C511.964 448 507.419 454.068 500.874 455.007C494.328 455.944 488.261 451.397 487.322 444.851C486.384 438.304 490.929 432.235 497.474 431.297" stroke="#D2D8DF" stroke-width="1.97805" stroke-linecap="round"/>
<path id="Fill 26" fill-rule="evenodd" clip-rule="evenodd" d="M511.118 272.726C515.625 271.319 522.535 265.807 524.135 259.875C525.585 265.118 531.666 271.319 537.152 271.789C530.976 273.975 525.071 280.471 524.135 285.575C523.497 280.373 515.331 273.484 511.118 272.726Z" fill="#EBECEE"/>
<path id="Fill 28" fill-rule="evenodd" clip-rule="evenodd" d="M48.3926 339.284C50.6472 338.581 54.1007 335.825 54.9004 332.859C55.6256 335.48 58.665 338.581 61.4081 338.816C58.321 339.908 55.3695 343.157 54.9004 345.709C54.5817 343.108 50.4983 339.662 48.3926 339.284Z" fill="#EBECEE"/>
<path id="Fill 30" fill-rule="evenodd" clip-rule="evenodd" d="M90.235 95.2672C90.235 98.5205 87.5991 101.156 84.3482 101.156C81.0958 101.156 78.4614 98.5205 78.4614 95.2672C78.4614 92.0155 81.0958 89.3789 84.3482 89.3789C87.5991 89.3789 90.235 92.0155 90.235 95.2672Z" fill="#D1D8DF"/>
<path id="Fill 32" fill-rule="evenodd" clip-rule="evenodd" d="M437.871 464.974C437.871 470.41 433.464 474.816 428.032 474.816C422.596 474.816 418.191 470.41 418.191 464.974C418.191 459.539 422.596 455.133 428.032 455.133C433.464 455.133 437.871 459.539 437.871 464.974Z" fill="#EBECEE"/>
<path id="Fill 34" fill-rule="evenodd" clip-rule="evenodd" d="M619.615 84.4124C619.615 88.7247 616.121 92.2193 611.811 92.2193C607.5 92.2193 604.006 88.7247 604.006 84.4124C604.006 80.1 607.5 76.6055 611.811 76.6055C616.121 76.6055 619.615 80.1 619.615 84.4124Z" fill="#EBECEE"/>
<path id="Stroke 36" fill-rule="evenodd" clip-rule="evenodd" d="M200.25 449.027C200.25 451.746 198.047 453.949 195.329 453.949C192.613 453.949 190.411 451.746 190.411 449.027C190.411 446.309 192.613 444.105 195.329 444.105C198.047 444.105 200.25 446.309 200.25 449.027Z" stroke="#D2D8DF" stroke-width="1.97805" stroke-linecap="round"/>
<path id="Stroke 38" fill-rule="evenodd" clip-rule="evenodd" d="M197.328 57.4391C197.328 60.6924 194.692 63.3274 191.441 63.3274C188.191 63.3274 185.555 60.6924 185.555 57.4391C185.555 54.1873 188.191 51.5508 191.441 51.5508C194.692 51.5508 197.328 54.1873 197.328 57.4391Z" stroke="#D2D8DF" stroke-width="1.97805" stroke-linecap="round"/>
<path id="Stroke 40" fill-rule="evenodd" clip-rule="evenodd" d="M347.484 503.526C343.722 504.957 339.512 503.067 338.081 499.306C336.65 495.543 338.538 491.33 342.301 489.9C346.061 488.469 350.271 490.358 351.703 494.12C353.135 497.883 351.245 502.094 347.484 503.526Z" stroke="#D2D8DF" stroke-width="1.97805" stroke-linecap="round"/>
</g>
</g>
<path id="Fill 1" fill-rule="evenodd" clip-rule="evenodd" d="M244.374 381.819H278.018L260.395 437.894L338.901 358.589H291.636L318.073 242.432L244.374 381.819Z" fill="url(#paint0_linear_279_4613)"/>
<g id="Group 6">
<path id="Fill 2" fill-rule="evenodd" clip-rule="evenodd" d="M445.636 207.18C437.341 201.286 427.656 197.224 417.161 195.603C411.42 145.447 368.841 106.494 317.149 106.494C284.936 106.494 256.262 121.629 237.83 145.175C231.362 143.008 224.458 141.826 217.259 141.826C184.207 141.826 156.951 166.602 153.017 198.592C125.665 207.071 105.804 232.571 105.804 262.704C105.804 299.664 135.677 329.637 172.602 329.811C174.503 330.067 176.437 330.216 178.408 330.216H397.881C401.933 330.975 406.091 331.389 410.362 331.389C447.434 331.389 477.475 301.343 477.475 264.276C477.475 240.149 464.742 219.007 445.636 207.18Z" fill="#F1F2F7"/>
<path id="Fill 4" fill-rule="evenodd" clip-rule="evenodd" d="M259.062 169.165C251.296 166.014 242.653 164.244 233.542 164.244C199.802 164.244 172.46 188.327 172.46 218.03C172.46 221.035 172.747 223.976 173.287 226.841C199.52 189.784 217.596 175.067 259.062 169.165Z" fill="#E0E2EE"/>
</g>
</g>
<defs>
<linearGradient id="paint0_linear_279_4613" x1="291.638" y1="144.7" x2="138.418" y2="218.799" gradientUnits="userSpaceOnUse">
<stop stop-color="#40B93C"/>
<stop offset="1" stop-color="#33B32F"/>
</linearGradient>
</defs>
</svg>
