<svg width="218" height="218" viewBox="0 0 218 218" fill="none" xmlns="http://www.w3.org/2000/svg">
<mask id="mask0_279_4315" style="mask-type:luminance" maskUnits="userSpaceOnUse" x="0" y="0" width="218" height="218">
<rect width="218" height="218" fill="white"/>
</mask>
<g mask="url(#mask0_279_4315)">
<path d="M222.962 200.777C228.22 190.372 213.192 138.346 108.999 138.346C33.7926 138.346 -0.725216 180.93 6.90597 202.511" fill="url(#paint0_radial_279_4315)"/>
<mask id="mask1_279_4315" style="mask-type:luminance" maskUnits="userSpaceOnUse" x="5" y="138" width="219" height="65">
<path d="M222.962 200.777C228.22 190.372 213.192 138.346 108.999 138.346C33.7926 138.346 -0.725216 180.93 6.90597 202.511" fill="white"/>
</mask>
<g mask="url(#mask1_279_4315)">
<ellipse opacity="0.671968" cx="92.9298" cy="167.521" rx="5.73014" ry="3.18281" fill="url(#paint1_linear_279_4315)"/>
<ellipse opacity="0.451707" cx="154.094" cy="175.172" rx="9.04089" ry="4.96518" fill="url(#paint2_linear_279_4315)"/>
<ellipse opacity="0.729957" cx="48.5262" cy="149.42" rx="9.04089" ry="4.96518" fill="url(#paint3_linear_279_4315)"/>
</g>
<path opacity="0.716378" d="M79.0354 144.348C75.5216 148.325 89.4268 151.998 115.009 152.861C142.866 160.451 155.525 162.51 160.642 158.587C165.759 154.664 143.793 142.423 126.595 138.555C109.397 134.688 99.9494 137.194 89.406 139.974C87.9785 140.35 88.6865 140.062 85.4478 141.15C82.2091 142.237 79.8899 143.381 79.0354 144.348Z" fill="url(#paint4_linear_279_4315)"/>
<path d="M116.685 121.848C116.685 121.848 105.9 133.862 112.503 141.27C104.095 141.8 98.5585 145.814 98.5585 145.814L93.9796 129.3L116.685 121.848Z" fill="url(#paint5_linear_279_4315)"/>
<path d="M98.8917 144.914C98.8917 144.914 90.4988 141.332 87.1441 141.326C83.7895 141.32 94.1672 128.771 94.1672 128.771L100.232 143.764L98.8917 144.914Z" fill="url(#paint6_linear_279_4315)"/>
<path fill-rule="evenodd" clip-rule="evenodd" d="M33.5737 127.512C55.5089 149.191 90.91 149.068 112.802 127.175C134.695 105.283 134.819 69.8815 113.139 47.9463L33.5737 127.512Z" fill="url(#paint7_linear_279_4315)"/>
<ellipse cx="73.5948" cy="88.44" rx="12.4339" ry="56.2613" transform="rotate(45 73.5948 88.44)" fill="url(#paint8_linear_279_4315)"/>
<mask id="mask2_279_4315" style="mask-type:luminance" maskUnits="userSpaceOnUse" x="32" y="47" width="83" height="83">
<ellipse cx="73.5948" cy="88.44" rx="12.4339" ry="56.2613" transform="rotate(45 73.5948 88.44)" fill="white"/>
</mask>
<g mask="url(#mask2_279_4315)">
<path d="M89.7963 92.0192L66.9926 81.0334L75.7946 103.851" fill="url(#paint9_linear_279_4315)"/>
</g>
<ellipse cx="64.8012" cy="79.1721" rx="8.03732" ry="8.0652" transform="rotate(-45 64.8012 79.1721)" fill="url(#paint10_linear_279_4315)"/>
<path fill-rule="evenodd" clip-rule="evenodd" d="M39.2524 72.7868C39.6461 72.7875 39.9958 72.6131 40.2578 72.351C40.5636 72.0453 40.716 71.6299 40.6934 71.1706C40.4458 66.8174 42.0793 62.5548 45.1585 59.4757C48.1939 56.4402 52.4128 54.8066 56.7221 55.0104C57.5752 55.0337 58.3178 54.3787 58.3383 53.5257C58.3588 52.6726 57.7014 51.9279 56.8483 51.9046C51.6859 51.6776 46.6145 53.6379 42.9676 57.2848C39.277 60.9754 37.3386 66.1125 37.6095 71.3187C37.6765 72.1718 38.3994 72.8511 39.2524 72.7868ZM48.8016 75.6544C49.1804 75.6002 49.5113 75.4547 49.7495 75.2165C50.0526 74.9134 50.2383 74.4495 50.1766 73.9548C49.8744 71.6605 50.605 69.4463 52.164 67.8873C53.7013 66.3499 55.8707 65.6178 58.1186 65.8737C58.9736 65.9924 59.736 65.3691 59.7734 64.4971C59.834 63.6483 59.1571 62.8415 58.2806 62.7444C55.1112 62.3899 52.0342 63.4269 49.8689 65.5922C47.6387 67.8224 46.6032 70.9443 47.0272 74.1832C47.1459 75.0381 47.9296 75.6918 48.8016 75.6544Z" fill="url(#paint11_linear_279_4315)"/>
<path d="M28.3928 70.9087C28.1318 71.1696 27.7843 71.3439 27.3719 71.3664C26.5255 71.3897 25.8323 70.74 25.7688 69.8938C25.5015 62.1902 28.4892 54.6539 33.9468 49.1962C36.7031 46.4399 39.9194 44.3308 43.4243 42.9463C43.6993 42.8036 46.047 42.4722 46.3842 43.4792C46.7214 44.4862 44.4737 45.8629 44.4737 45.8629C41.3913 47.0951 38.5614 48.957 36.1345 51.3839C31.2857 56.2327 28.6468 62.9437 28.8723 69.8227C28.8499 70.1917 28.6754 70.626 28.3928 70.9087Z" fill="url(#paint12_linear_279_4315)"/>
<mask id="mask3_279_4315" style="mask-type:luminance" maskUnits="userSpaceOnUse" x="25" y="42" width="22" height="30">
<path d="M28.3928 70.9087C28.1318 71.1696 27.7843 71.3439 27.3719 71.3664C26.5255 71.3897 25.8323 70.74 25.7688 69.8938C25.5015 62.1902 28.4892 54.6539 33.9468 49.1962C36.7031 46.4399 39.9194 44.3308 43.4243 42.9463C43.6993 42.8036 46.047 42.4722 46.3842 43.4792C46.7214 44.4862 44.4737 45.8629 44.4737 45.8629C41.3913 47.0951 38.5614 48.957 36.1345 51.3839C31.2857 56.2327 28.6468 62.9437 28.8723 69.8227C28.8499 70.1917 28.6754 70.626 28.3928 70.9087Z" fill="white"/>
</mask>
<g mask="url(#mask3_279_4315)">
</g>
<path fill-rule="evenodd" clip-rule="evenodd" d="M58.6658 39.1194C58.2036 38.6572 57.4541 38.6572 56.9918 39.1194L53.9232 42.1881L50.8547 39.1196C50.3924 38.6573 49.643 38.6573 49.1807 39.1196C48.7184 39.5819 48.7184 40.3314 49.1807 40.7936L52.2492 43.8621L49.1797 46.9315C48.7175 47.3938 48.7175 48.1433 49.1797 48.6056C49.642 49.0678 50.3915 49.0678 50.8537 48.6056L53.9232 45.5361L56.9928 48.6057C57.455 49.068 58.2045 49.068 58.6668 48.6057C59.1291 48.1435 59.1291 47.394 58.6668 46.9317L55.5972 43.8621L58.6658 40.7935C59.1281 40.3312 59.1281 39.5817 58.6658 39.1194Z" fill="#D3D3D3"/>
<path d="M144.976 126.039C144.976 126.039 144.423 127.651 144.423 128.785C143.871 138.655 145.24 156.201 145.24 156.201H147.367L150.507 130.534L154.762 156.201H156.855C156.855 156.201 157.131 139.204 156.302 128.785C156.302 127.663 155.82 126.588 155.82 126.588L144.976 126.039Z" fill="url(#paint13_linear_279_4315)"/>
<path d="M141.384 112.424L138.698 110.523L138.724 109.042L145.548 105.124L147.246 103.124L149.77 101.522L149.938 101.8L148.065 103.687L147.324 103.783C147.324 103.783 147.31 104.088 147.31 104.606C147.31 105.124 146.92 105.696 146.92 105.696L141.568 109.639L142.721 110.214L141.384 112.424Z" fill="#FFE9E9"/>
<path d="M156.578 116.246L158.696 118.723L159.708 119.262L167.628 112.097L167.302 109.938L159.708 116.246L157.959 114.636L156.578 116.246Z" fill="#FFE9E9"/>
<path d="M167.415 112.135L170.815 110.972L171.495 110.303V108.964C171.495 108.964 171.155 108.295 170.815 108.295C170.475 108.295 167.415 109.633 167.415 109.633C167.415 109.633 167.075 110.637 167.075 110.972C167.075 111.307 167.415 112.135 167.415 112.135Z" fill="#FFE9E9"/>
<path d="M168.73 105.002H170.946C171.25 105.002 171.496 105.248 171.496 105.552V111.034C171.496 111.338 171.25 111.584 170.946 111.584H168.73C168.427 111.584 168.181 111.338 168.181 111.034V105.552C168.181 105.248 168.427 105.002 168.73 105.002Z" fill="#E9E9E9"/>
<path d="M167.432 108.384C167.432 108.384 168.857 107.744 169.214 107.744C169.57 107.744 168.145 109.115 168.145 109.115C168.145 109.115 168.145 110.487 167.432 110.487C166.719 110.487 167.432 108.384 167.432 108.384Z" fill="#FFE9E9"/>
<path d="M158.9 114.328L156.704 117.071L155.135 115.627C155.135 115.627 155.788 119.89 156.077 122.008C156.365 124.126 156.077 127.597 156.077 127.597C156.077 127.597 152.368 128.226 150.116 128.392C147.864 128.558 144.66 127.541 144.66 127.541C144.66 127.541 143.763 120.911 144.66 114.228L140.832 112.821L142.49 109.738C142.49 109.738 143.763 110.214 145.252 110.372C146.742 110.529 148.015 110.372 148.015 110.372L152.159 109.94C152.159 109.94 154.855 110.079 155.474 110.691C156.092 111.303 158.9 114.328 158.9 114.328Z" fill="url(#paint14_linear_279_4315)"/>
<path fill-rule="evenodd" clip-rule="evenodd" d="M151.155 106.922H148.818V110.281V110.282H148.818C148.843 110.32 149.753 111.733 149.753 112.204C149.753 112.676 151.126 110.331 151.155 110.282H151.155V110.281V106.922Z" fill="#FECECD"/>
<ellipse cx="149.852" cy="106.405" rx="2.10006" ry="3.27" fill="#FFE9E9"/>
<path fill-rule="evenodd" clip-rule="evenodd" d="M147.547 106.768C147.715 106.145 147.715 104.77 148.051 104.726C148.387 104.681 149.059 104.941 149.731 104.436C150.067 104.159 150.235 104.124 150.235 103.985C151.915 104.317 150.91 105.318 151.747 106.42C151.834 106.535 152.083 106.42 152.083 106.42C152.083 106.42 152.083 103.705 151.915 103.463C151.747 103.221 151.075 102.245 150.739 102.941C150.739 102.593 150.067 102.234 149.395 102.501C148.723 102.767 147.715 103.289 147.547 103.985C147.379 104.681 147.211 106.072 147.547 106.768Z" fill="#513450"/>
<path d="M145.707 156.016L145.031 156.929C144.636 157.463 144.423 158.108 144.423 158.772C144.423 158.814 144.457 158.847 144.499 158.847H147.669C147.846 158.847 147.989 158.704 147.989 158.528C147.989 157.806 147.826 157.094 147.512 156.444L147.305 156.016H145.707Z" fill="#677285"/>
<path d="M156.65 156.016L157.326 156.929C157.721 157.463 157.934 158.108 157.934 158.772C157.934 158.814 157.9 158.847 157.858 158.847H154.688C154.511 158.847 154.368 158.704 154.368 158.528C154.368 157.806 154.531 157.094 154.845 156.444L155.052 156.016H156.65Z" fill="#677285"/>
</g>
<defs>
<radialGradient id="paint0_radial_279_4315" cx="0" cy="0" r="1" gradientUnits="userSpaceOnUse" gradientTransform="translate(100.416 160.598) rotate(-90) scale(37.3073 389.637)">
<stop stop-color="#EBEDF0" stop-opacity="0.24"/>
<stop offset="0.536775" stop-color="#EBEDF0" stop-opacity="0.845525"/>
<stop offset="1" stop-color="#E0E4E7" stop-opacity="0.01"/>
</radialGradient>
<linearGradient id="paint1_linear_279_4315" x1="88.3176" y1="166.677" x2="90.0633" y2="170.41" gradientUnits="userSpaceOnUse">
<stop stop-color="#E1E7EA"/>
<stop offset="1" stop-color="#D0D6DC"/>
</linearGradient>
<linearGradient id="paint2_linear_279_4315" x1="146.503" y1="174.708" x2="149.697" y2="181.371" gradientUnits="userSpaceOnUse">
<stop stop-color="#E1E7EA"/>
<stop offset="1" stop-color="#D0D6DC"/>
</linearGradient>
<linearGradient id="paint3_linear_279_4315" x1="42.7616" y1="149.501" x2="44.5691" y2="156.701" gradientUnits="userSpaceOnUse">
<stop stop-color="#FBFBFB"/>
<stop offset="1" stop-color="#D9DFE3"/>
</linearGradient>
<linearGradient id="paint4_linear_279_4315" x1="249.597" y1="155.054" x2="246.192" y2="96.6004" gradientUnits="userSpaceOnUse">
<stop stop-color="#D5E1F0" stop-opacity="0.01"/>
<stop offset="1" stop-color="#D9DDE2"/>
</linearGradient>
<linearGradient id="paint5_linear_279_4315" x1="89.6928" y1="135.818" x2="108.3" y2="143.907" gradientUnits="userSpaceOnUse">
<stop stop-color="#F8FBFF"/>
<stop offset="1" stop-color="#D9DDE2"/>
</linearGradient>
<linearGradient id="paint6_linear_279_4315" x1="91.5253" y1="147.807" x2="101.653" y2="139.136" gradientUnits="userSpaceOnUse">
<stop stop-color="#F8FBFF"/>
<stop offset="1" stop-color="#D9DDE2"/>
</linearGradient>
<linearGradient id="paint7_linear_279_4315" x1="57.6277" y1="164.879" x2="142.917" y2="103.686" gradientUnits="userSpaceOnUse">
<stop stop-color="#F8FBFF"/>
<stop offset="1" stop-color="#D9DDE2"/>
</linearGradient>
<linearGradient id="paint8_linear_279_4315" x1="67.9404" y1="-0.775846" x2="18.0251" y2="18.0573" gradientUnits="userSpaceOnUse">
<stop stop-color="#E6ECF3"/>
<stop offset="1" stop-color="#D9DDE2"/>
</linearGradient>
<linearGradient id="paint9_linear_279_4315" x1="71.4275" y1="101.164" x2="85.1799" y2="90.6795" gradientUnits="userSpaceOnUse">
<stop stop-color="white"/>
<stop offset="1" stop-color="#CCD7E7"/>
</linearGradient>
<linearGradient id="paint10_linear_279_4315" x1="53.81" y1="76.6765" x2="63.6632" y2="89.4976" gradientUnits="userSpaceOnUse">
<stop stop-color="#FDFDFD"/>
<stop offset="1" stop-color="#D7DBE0"/>
</linearGradient>
<linearGradient id="paint11_linear_279_4315" x1="78.3829" y1="44.3321" x2="51.0279" y2="30.6262" gradientUnits="userSpaceOnUse">
<stop stop-color="#EEEEEE"/>
<stop offset="1" stop-color="#D8D8D8"/>
</linearGradient>
<linearGradient id="paint12_linear_279_4315" x1="67.5229" y1="30.3066" x2="50.4744" y2="18.4909" gradientUnits="userSpaceOnUse">
<stop stop-color="#EEEEEE"/>
<stop offset="1" stop-color="#D8D8D8"/>
</linearGradient>
<linearGradient id="paint13_linear_279_4315" x1="156.876" y1="156.201" x2="156.876" y2="126.265" gradientUnits="userSpaceOnUse">
<stop stop-color="#A1A7B8"/>
<stop offset="1" stop-color="#7B8195"/>
</linearGradient>
<linearGradient id="paint14_linear_279_4315" x1="168.04" y1="118.266" x2="152.39" y2="137.841" gradientUnits="userSpaceOnUse">
<stop stop-color="#E5E9F0"/>
<stop offset="1" stop-color="#D2DAE8"/>
</linearGradient>
</defs>
</svg>
