<svg width="288" height="237" viewBox="0 0 288 237" fill="none" xmlns="http://www.w3.org/2000/svg">
<g id="No Results">
<g id="circle">
<path id="Stroke 1" d="M9.29004 109.21V111.642" stroke="#D2D8DF" stroke-width="0.789417" stroke-linecap="round"/>
<g id="Group 8">
<path id="Stroke 2" d="M3.82324 110.528L5.81078 112.574" stroke="#D2D8DF" stroke-width="0.789417" stroke-linecap="round"/>
<path id="Stroke 4" d="M1.5 115.975H4.31035" stroke="#D2D8DF" stroke-width="0.789417" stroke-linecap="round"/>
<path id="Stroke 6" d="M3.59766 121.517L5.58519 119.471" stroke="#D2D8DF" stroke-width="0.789417" stroke-linecap="round"/>
</g>
<path id="Stroke 9" d="M9.29004 122.183V119.751" stroke="#D2D8DF" stroke-width="0.789417" stroke-linecap="round"/>
<path id="Stroke 10" d="M13.3403 120.562L11.7188 118.941" stroke="#D2D8DF" stroke-width="0.789417" stroke-linecap="round"/>
<path id="Stroke 11" d="M16.5856 116.508H14.1533" stroke="#D2D8DF" stroke-width="0.789417" stroke-linecap="round"/>
<path id="Stroke 12" d="M14.9663 110.833L13.3447 112.455" stroke="#D2D8DF" stroke-width="0.789417" stroke-linecap="round"/>
<path id="Stroke 13" d="M139.822 3V4.62153" stroke="#D2D8DF" stroke-width="0.789417" stroke-linecap="round"/>
<path id="Stroke 15" d="M134.959 7.86475H136.581" stroke="#D2D8DF" stroke-width="0.789417" stroke-linecap="round"/>
<path id="Stroke 16" d="M139.822 12.728V11.1064" stroke="#D2D8DF" stroke-width="0.789417" stroke-linecap="round"/>
<path id="Stroke 17" d="M143.875 7.86475H142.254" stroke="#D2D8DF" stroke-width="0.789417" stroke-linecap="round"/>
<path id="Stroke 18" d="M45.7705 71.105V73.5373" stroke="#D2D8DF" stroke-width="0.789417" stroke-linecap="round"/>
<path id="Stroke 19" d="M38.4756 78.4014H40.9079" stroke="#D2D8DF" stroke-width="0.789417" stroke-linecap="round"/>
<path id="Stroke 20" d="M45.7705 84.8869V82.4546" stroke="#D2D8DF" stroke-width="0.789417" stroke-linecap="round"/>
<path id="Stroke 21" d="M52.2575 78.4014H49.8252" stroke="#D2D8DF" stroke-width="0.789417" stroke-linecap="round"/>
<g id="Group 42">
<path id="Stroke 22" d="M220.288 159.508C222.226 159.508 223.797 161.08 223.797 163.018C223.797 164.957 222.226 166.528 220.288 166.528C218.351 166.528 216.779 164.957 216.779 163.018" stroke="#D2D8DF" stroke-width="0.789417" stroke-linecap="round"/>
<path id="Fill 26" fill-rule="evenodd" clip-rule="evenodd" d="M236.347 127.667C238.43 127.017 241.624 124.469 242.363 121.727C243.034 124.151 245.844 127.017 248.38 127.234C245.525 128.244 242.796 131.247 242.363 133.606C242.069 131.201 238.294 128.017 236.347 127.667Z" fill="#EBECEE"/>
<path id="Fill 28" fill-rule="evenodd" clip-rule="evenodd" d="M22.4795 158.427C23.5216 158.102 25.1178 156.829 25.4874 155.458C25.8226 156.669 27.2274 158.102 28.4953 158.211C27.0684 158.716 25.7042 160.218 25.4874 161.397C25.3401 160.195 23.4528 158.602 22.4795 158.427Z" fill="#EBECEE"/>
<path id="Fill 30" fill-rule="evenodd" clip-rule="evenodd" d="M41.8197 45.6444C41.8197 47.1481 40.6014 48.366 39.0988 48.366C37.5955 48.366 36.3779 47.1481 36.3779 45.6444C36.3779 44.1415 37.5955 42.9229 39.0988 42.9229C40.6014 42.9229 41.8197 44.1415 41.8197 45.6444Z" fill="#D1D8DF"/>
<path id="Fill 32" fill-rule="evenodd" clip-rule="evenodd" d="M223.505 52.9517C223.505 55.464 221.468 57.5005 218.958 57.5005C216.445 57.5005 214.409 55.464 214.409 52.9517C214.409 50.4394 216.445 48.4028 218.958 48.4028C221.468 48.4028 223.505 50.4394 223.505 52.9517Z" fill="#EBECEE"/>
<path id="Fill 34" fill-rule="evenodd" clip-rule="evenodd" d="M286.498 40.6264C286.498 42.6196 284.884 44.2348 282.892 44.2348C280.899 44.2348 279.284 42.6196 279.284 40.6264C279.284 38.6333 280.899 37.0181 282.892 37.0181C284.884 37.0181 286.498 38.6333 286.498 40.6264Z" fill="#EBECEE"/>
<path id="Stroke 36" fill-rule="evenodd" clip-rule="evenodd" d="M92.6697 209.15C92.6697 210.407 91.6517 211.425 90.3955 211.425C89.1401 211.425 88.1221 210.407 88.1221 209.15C88.1221 207.894 89.1401 206.875 90.3955 206.875C91.6517 206.875 92.6697 207.894 92.6697 209.15Z" stroke="#D2D8DF" stroke-width="0.789417" stroke-linecap="round"/>
<path id="Stroke 38" fill-rule="evenodd" clip-rule="evenodd" d="M91.3138 28.1586C91.3138 29.6623 90.0955 30.8802 88.5929 30.8802C87.0904 30.8802 85.8721 29.6623 85.8721 28.1586C85.8721 26.6556 87.0904 25.437 88.5929 25.437C90.0955 25.437 91.3138 26.6556 91.3138 28.1586Z" stroke="#D2D8DF" stroke-width="0.789417" stroke-linecap="round"/>
<path id="Stroke 40" fill-rule="evenodd" clip-rule="evenodd" d="M160.719 234.34C158.981 235.002 157.035 234.128 156.373 232.39C155.712 230.65 156.585 228.703 158.324 228.042C160.062 227.381 162.008 228.254 162.669 229.993C163.332 231.732 162.458 233.678 160.719 234.34Z" stroke="#D2D8DF" stroke-width="0.789417" stroke-linecap="round"/>
</g>
</g>
<g id="search">
<g id="documents">
<path id="Fill 1" fill-rule="evenodd" clip-rule="evenodd" d="M159.685 170.017H93.1987C88.519 170.017 84.6885 166.175 84.6885 161.479V66.6662C84.6885 61.9708 88.519 58.1309 93.1987 58.1309H159.685C164.367 58.1309 168.197 61.9708 168.197 66.6662V161.479C168.197 166.175 164.367 170.017 159.685 170.017Z" fill="#E0E2EE"/>
<path id="Fill 3" fill-rule="evenodd" clip-rule="evenodd" d="M154.011 174.071H87.5239C82.8442 174.071 79.0137 170.23 79.0137 165.534V70.7209C79.0137 66.0255 82.8442 62.1855 87.5239 62.1855H154.011C158.692 62.1855 162.523 66.0255 162.523 70.7209V165.534C162.523 170.23 158.692 174.071 154.011 174.071Z" fill="#E8EBF2"/>
<path id="Fill 5" fill-rule="evenodd" clip-rule="evenodd" d="M148.491 177.27H81.8667C77.1773 177.27 73.3389 173.444 73.3389 168.768V74.3477C73.3389 69.6717 77.1773 65.8477 81.8667 65.8477H148.491C153.182 65.8477 157.02 69.6717 157.02 74.3477V168.768C157.02 173.444 153.182 177.27 148.491 177.27Z" fill="#D8DBEA"/>
<path id="Fill 8" fill-rule="evenodd" clip-rule="evenodd" d="M148.491 177.27H81.8667C77.1773 177.27 73.3389 173.444 73.3389 168.768V74.3477C73.3389 69.6717 77.1773 65.8477 81.8667 65.8477H148.491C153.182 65.8477 157.02 69.6717 157.02 74.3477V168.768C157.02 173.444 153.182 177.27 148.491 177.27Z" fill="#F1F2F7"/>
<path id="Fill 11" fill-rule="evenodd" clip-rule="evenodd" d="M138.889 94.6156H89.6787C88.2734 94.6156 87.123 93.5212 87.123 92.1842C87.123 90.8454 88.2734 89.751 89.6787 89.751H138.889C140.294 89.751 141.444 90.8454 141.444 92.1842C141.444 93.5212 140.294 94.6156 138.889 94.6156Z" fill="#E0E2EE"/>
<path id="Fill 13" fill-rule="evenodd" clip-rule="evenodd" d="M138.889 109.208H89.6787C88.2734 109.208 87.123 108.114 87.123 106.777C87.123 105.438 88.2734 104.344 89.6787 104.344H138.889C140.294 104.344 141.444 105.438 141.444 106.777C141.444 108.114 140.294 109.208 138.889 109.208Z" fill="#E0E2EE"/>
<path id="Fill 15" fill-rule="evenodd" clip-rule="evenodd" d="M138.889 123.804H89.6787C88.2734 123.804 87.123 122.71 87.123 121.373C87.123 120.036 88.2734 118.939 89.6787 118.939H138.889C140.294 118.939 141.444 120.036 141.444 121.373C141.444 122.71 140.294 123.804 138.889 123.804Z" fill="#E0E2EE"/>
<path id="Fill 17" fill-rule="evenodd" clip-rule="evenodd" d="M138.889 138.397H89.6787C88.2734 138.397 87.123 137.302 87.123 135.965C87.123 134.627 88.2734 133.532 89.6787 133.532H138.889C140.294 133.532 141.444 134.627 141.444 135.965C141.444 137.302 140.294 138.397 138.889 138.397Z" fill="#E0E2EE"/>
<path id="Fill 19" fill-rule="evenodd" clip-rule="evenodd" d="M115.366 152.991H89.6897C88.2783 152.991 87.123 151.897 87.123 150.56C87.123 149.221 88.2783 148.126 89.6897 148.126H115.366C116.777 148.126 117.932 149.221 117.932 150.56C117.932 151.897 116.777 152.991 115.366 152.991Z" fill="#E0E2EE"/>
</g>
<g id="search_2">
<path id="Fill 21" fill-rule="evenodd" clip-rule="evenodd" d="M167.188 134.132C157.348 143.97 142.114 145.08 131.054 137.484C129.641 136.496 128.296 135.386 127.041 134.132C126.395 133.488 125.787 132.824 125.213 132.125C124.066 130.728 123.061 129.238 122.238 127.699C120.787 125.1 119.801 122.342 119.263 119.491C117.525 110.55 120.123 100.926 127.041 94.011C133.976 87.0752 143.602 84.4944 152.544 86.2149C155.394 86.7699 158.154 87.756 160.754 89.1898C162.295 90.0315 163.765 91.0361 165.163 92.1832C165.861 92.7546 166.525 93.3652 167.169 94.011C168.426 95.2652 169.552 96.6082 170.522 98.0235C178.121 109.079 177.009 124.312 167.188 134.132Z" fill="white" fill-opacity="0.1"/>
<path id="Fill 23" fill-rule="evenodd" clip-rule="evenodd" d="M164.437 132.193C154.2 142.432 137.61 142.43 127.371 132.193C117.145 121.967 117.145 105.375 127.384 95.1376C137.61 84.9118 154.2 84.9118 164.426 95.1376C174.663 105.375 174.663 121.967 164.437 132.193ZM169.691 89.8768C156.55 76.7364 135.257 76.7364 122.116 89.8768C108.978 103.015 108.967 124.322 122.105 137.463C134.064 149.418 152.809 150.496 165.993 140.68C167.281 139.72 168.521 138.644 169.704 137.463C170.885 136.28 171.961 135.039 172.92 133.752C182.736 120.566 181.648 101.834 169.691 89.8768Z" fill="#E0E2EE"/>
<path id="Fill 25" fill-rule="evenodd" clip-rule="evenodd" d="M221.403 186.996L220.851 187.547C217.201 191.199 211.225 191.199 207.573 187.547L173.874 153.848L187.704 140.019L221.403 173.718C225.054 177.369 225.054 183.344 221.403 186.996Z" fill="url(#paint0_linear_775_6815)"/>
<path id="Fill 27" fill-rule="evenodd" clip-rule="evenodd" d="M173.647 132.722L183.605 142.68L176.535 149.748L166.579 139.79C167.893 138.81 169.157 137.712 170.366 136.507C171.571 135.302 172.669 134.036 173.647 132.722Z" fill="#E0E2EE"/>
<path id="Fill 29" fill-rule="evenodd" clip-rule="evenodd" d="M220.898 173.303L207.156 187.042L204.683 184.567L218.422 170.827L220.898 173.303Z" fill="#3BAF37"/>
<path id="Fill 31" fill-rule="evenodd" clip-rule="evenodd" d="M188.469 140.494L174.351 154.612L172.254 152.515L186.372 138.397L188.469 140.494Z" fill="url(#paint1_linear_775_6815)"/>
<path id="Fill 33" fill-rule="evenodd" clip-rule="evenodd" d="M157.659 91.6153L123.036 126.236C121.732 123.899 120.846 121.42 120.363 118.857L150.279 88.9409C152.84 89.4417 155.322 90.3263 157.659 91.6153Z" fill="white" fill-opacity="0.5"/>
<path id="Fill 35" fill-rule="evenodd" clip-rule="evenodd" d="M169.009 99.8439L131.578 135.154C130.238 134.272 128.962 133.278 127.772 132.156C127.159 131.578 126.58 130.986 126.038 130.36L163.925 94.6157C164.588 95.1289 165.218 95.6754 165.829 96.2532C167.019 97.3756 168.089 98.5774 169.009 99.8439Z" fill="white" fill-opacity="0.5"/>
</g>
</g>
</g>
<defs>
<linearGradient id="paint0_linear_775_6815" x1="199.008" y1="114.885" x2="148.74" y2="165.152" gradientUnits="userSpaceOnUse">
<stop stop-color="#99ED96"/>
<stop offset="1" stop-color="#40B93C"/>
</linearGradient>
<linearGradient id="paint1_linear_775_6815" x1="180.362" y1="130.289" x2="164.146" y2="146.505" gradientUnits="userSpaceOnUse">
<stop stop-color="#3BAF37"/>
<stop offset="1" stop-color="#40B93C"/>
</linearGradient>
</defs>
</svg>
