<svg width="804" height="660" viewBox="0 0 804 660" fill="none" xmlns="http://www.w3.org/2000/svg">
<g id="No Results">
<g id="circle">
<path id="Stroke 1" d="M27.8057 303.387V310.197" stroke="#D2D8DF" stroke-width="2.21037" stroke-linecap="round"/>
<g id="Group 8">
<path id="Stroke 2" d="M12.5083 307.078L18.0734 312.807" stroke="#D2D8DF" stroke-width="2.21037" stroke-linecap="round"/>
<path id="Stroke 4" d="M6 322.324H13.869" stroke="#D2D8DF" stroke-width="2.21037" stroke-linecap="round"/>
<path id="Stroke 6" d="M11.8711 337.85L17.4362 332.121" stroke="#D2D8DF" stroke-width="2.21037" stroke-linecap="round"/>
</g>
<path id="Stroke 9" d="M27.8057 339.711V332.9" stroke="#D2D8DF" stroke-width="2.21037" stroke-linecap="round"/>
<path id="Stroke 10" d="M39.156 335.173L34.6157 330.633" stroke="#D2D8DF" stroke-width="2.21037" stroke-linecap="round"/>
<path id="Stroke 11" d="M48.2377 323.818H41.4272" stroke="#D2D8DF" stroke-width="2.21037" stroke-linecap="round"/>
<path id="Stroke 12" d="M43.697 307.928L39.1567 312.468" stroke="#D2D8DF" stroke-width="2.21037" stroke-linecap="round"/>
<path id="Stroke 13" d="M393.299 6V10.5403" stroke="#D2D8DF" stroke-width="2.21037" stroke-linecap="round"/>
<path id="Stroke 15" d="M379.679 19.623H384.219" stroke="#D2D8DF" stroke-width="2.21037" stroke-linecap="round"/>
<path id="Stroke 16" d="M393.299 33.2395V28.6992" stroke="#D2D8DF" stroke-width="2.21037" stroke-linecap="round"/>
<path id="Stroke 17" d="M404.651 19.623H400.11" stroke="#D2D8DF" stroke-width="2.21037" stroke-linecap="round"/>
<path id="Stroke 18" d="M129.962 196.693V203.504" stroke="#D2D8DF" stroke-width="2.21037" stroke-linecap="round"/>
<path id="Stroke 19" d="M109.531 217.125H116.341" stroke="#D2D8DF" stroke-width="2.21037" stroke-linecap="round"/>
<path id="Stroke 20" d="M129.962 235.285V228.475" stroke="#D2D8DF" stroke-width="2.21037" stroke-linecap="round"/>
<path id="Stroke 21" d="M148.124 217.125H141.313" stroke="#D2D8DF" stroke-width="2.21037" stroke-linecap="round"/>
<g id="Group 42">
<path id="Stroke 22" d="M618.62 444.223C624.045 444.223 628.445 448.624 628.445 454.05C628.445 459.479 624.045 463.878 618.62 463.878C613.195 463.878 608.795 459.479 608.795 454.05" stroke="#D2D8DF" stroke-width="2.21037" stroke-linecap="round"/>
<path id="Fill 26" fill-rule="evenodd" clip-rule="evenodd" d="M663.584 355.062C669.418 353.243 678.361 346.108 680.431 338.432C682.308 345.217 690.177 353.243 697.277 353.85C689.284 356.68 681.643 365.087 680.431 371.691C679.606 364.96 669.037 356.044 663.584 355.062Z" fill="#EBECEE"/>
<path id="Fill 28" fill-rule="evenodd" clip-rule="evenodd" d="M64.7446 441.193C67.6625 440.283 72.1318 436.717 73.1668 432.879C74.1053 436.27 78.0389 440.283 81.5889 440.588C77.5937 442.001 73.7738 446.206 73.1668 449.508C72.7543 446.142 67.4698 441.683 64.7446 441.193Z" fill="#EBECEE"/>
<path id="Fill 30" fill-rule="evenodd" clip-rule="evenodd" d="M118.894 125.406C118.894 129.616 115.482 133.026 111.275 133.026C107.066 133.026 103.657 129.616 103.657 125.406C103.657 121.197 107.066 117.785 111.275 117.785C115.482 117.785 118.894 121.197 118.894 125.406Z" fill="#D1D8DF"/>
<path id="Fill 32" fill-rule="evenodd" clip-rule="evenodd" d="M627.622 145.862C627.622 152.896 621.919 158.598 614.889 158.598C607.854 158.598 602.153 152.896 602.153 145.862C602.153 138.827 607.854 133.125 614.889 133.125C621.919 133.125 627.622 138.827 627.622 145.862Z" fill="#EBECEE"/>
<path id="Fill 34" fill-rule="evenodd" clip-rule="evenodd" d="M803.999 111.359C803.999 116.94 799.478 121.463 793.901 121.463C788.321 121.463 783.8 116.94 783.8 111.359C783.8 105.778 788.321 101.256 793.901 101.256C799.478 101.256 803.999 105.778 803.999 111.359Z" fill="#EBECEE"/>
<path id="Stroke 36" fill-rule="evenodd" clip-rule="evenodd" d="M261.276 583.225C261.276 586.743 258.426 589.594 254.909 589.594C251.393 589.594 248.543 586.743 248.543 583.225C248.543 579.707 251.393 576.855 254.909 576.855C258.426 576.855 261.276 579.707 261.276 583.225Z" stroke="#D2D8DF" stroke-width="2.21037" stroke-linecap="round"/>
<path id="Stroke 38" fill-rule="evenodd" clip-rule="evenodd" d="M257.487 76.4447C257.487 80.6549 254.076 84.0651 249.868 84.0651C245.661 84.0651 242.25 80.6549 242.25 76.4447C242.25 72.2364 245.661 68.8242 249.868 68.8242C254.076 68.8242 257.487 72.2364 257.487 76.4447Z" stroke="#D2D8DF" stroke-width="2.21037" stroke-linecap="round"/>
<path id="Stroke 40" fill-rule="evenodd" clip-rule="evenodd" d="M451.819 653.754C446.951 655.607 441.502 653.161 439.65 648.293C437.798 643.424 440.242 637.972 445.112 636.121C449.979 634.269 455.427 636.713 457.279 641.583C459.133 646.452 456.687 651.902 451.819 653.754Z" stroke="#D2D8DF" stroke-width="2.21037" stroke-linecap="round"/>
</g>
</g>
<g id="search">
<g id="documents">
<path id="Fill 1" fill-rule="evenodd" clip-rule="evenodd" d="M448.916 473.646H262.753C249.65 473.646 238.925 462.888 238.925 449.741V184.264C238.925 171.117 249.65 160.365 262.753 160.365H448.916C462.024 160.365 472.75 171.117 472.75 184.264V449.741C472.75 462.888 462.024 473.646 448.916 473.646Z" fill="#E0E2EE"/>
<path id="Fill 3" fill-rule="evenodd" clip-rule="evenodd" d="M433.024 484.995H246.861C233.758 484.995 223.033 474.238 223.033 461.091V195.614C223.033 182.467 233.758 171.715 246.861 171.715H433.024C446.132 171.715 456.858 182.467 456.858 195.614V461.091C456.858 474.238 446.132 484.995 433.024 484.995Z" fill="#E8EBF2"/>
<path id="Fill 5" fill-rule="evenodd" clip-rule="evenodd" d="M417.567 493.958H231.02C217.89 493.958 207.142 483.245 207.142 470.152V205.775C207.142 192.682 217.89 181.975 231.02 181.975H417.567C430.703 181.975 441.451 192.682 441.451 205.775V470.152C441.451 483.245 430.703 493.958 417.567 493.958Z" fill="#D8DBEA"/>
<path id="Fill 8" fill-rule="evenodd" clip-rule="evenodd" d="M417.567 493.958H231.02C217.89 493.958 207.142 483.245 207.142 470.152V205.775C207.142 192.682 217.89 181.975 231.02 181.975H417.567C430.703 181.975 441.451 192.682 441.451 205.775V470.152C441.451 483.245 430.703 493.958 417.567 493.958Z" fill="#F1F2F7"/>
<path id="Fill 11" fill-rule="evenodd" clip-rule="evenodd" d="M390.679 262.521H252.891C248.956 262.521 245.735 259.457 245.735 255.713C245.735 251.965 248.956 248.9 252.891 248.9H390.679C394.614 248.9 397.835 251.965 397.835 255.713C397.835 259.457 394.614 262.521 390.679 262.521Z" fill="#E0E2EE"/>
<path id="Fill 13" fill-rule="evenodd" clip-rule="evenodd" d="M390.679 303.385H252.891C248.956 303.385 245.735 300.32 245.735 296.577C245.735 292.828 248.956 289.764 252.891 289.764H390.679C394.614 289.764 397.835 292.828 397.835 296.577C397.835 300.32 394.614 303.385 390.679 303.385Z" fill="#E0E2EE"/>
<path id="Fill 15" fill-rule="evenodd" clip-rule="evenodd" d="M390.679 344.248H252.891C248.956 344.248 245.735 341.184 245.735 337.44C245.735 333.696 248.956 330.627 252.891 330.627H390.679C394.614 330.627 397.835 333.696 397.835 337.44C397.835 341.184 394.614 344.248 390.679 344.248Z" fill="#E0E2EE"/>
<path id="Fill 17" fill-rule="evenodd" clip-rule="evenodd" d="M390.679 385.111H252.891C248.956 385.111 245.735 382.047 245.735 378.303C245.735 374.555 248.956 371.49 252.891 371.49H390.679C394.614 371.49 397.835 374.555 397.835 378.303C397.835 382.047 394.614 385.111 390.679 385.111Z" fill="#E0E2EE"/>
<path id="Fill 19" fill-rule="evenodd" clip-rule="evenodd" d="M324.814 425.974H252.921C248.97 425.974 245.735 422.91 245.735 419.167C245.735 415.418 248.97 412.354 252.921 412.354H324.814C328.766 412.354 332 415.418 332 419.167C332 422.91 328.766 425.974 324.814 425.974Z" fill="#E0E2EE"/>
</g>
<g id="search_2">
<path id="Fill 21" fill-rule="evenodd" clip-rule="evenodd" d="M469.923 373.156C442.37 400.704 399.716 403.811 368.75 382.543C364.792 379.776 361.026 376.668 357.513 373.156C355.705 371.354 354 369.494 352.394 367.536C349.182 363.625 346.369 359.455 344.063 355.146C340.002 347.867 337.24 340.144 335.732 332.161C330.868 307.127 338.142 280.18 357.513 260.818C376.931 241.398 403.882 234.171 428.921 238.989C436.899 240.543 444.629 243.304 451.909 247.318C456.225 249.675 460.338 252.488 464.255 255.7C466.208 257.3 468.068 259.01 469.871 260.818C473.389 264.33 476.543 268.09 479.259 272.053C500.537 303.008 497.423 345.661 469.923 373.156Z" fill="white" fill-opacity="0.1"/>
<path id="Fill 23" fill-rule="evenodd" clip-rule="evenodd" d="M462.213 367.731C433.549 396.401 387.096 396.395 358.426 367.731C329.794 339.099 329.794 292.641 358.464 263.977C387.096 235.344 433.549 235.344 462.181 263.977C490.845 292.641 490.845 339.099 462.213 367.731ZM476.924 249.249C440.131 212.456 380.509 212.456 343.716 249.249C306.928 286.037 306.896 345.696 343.684 382.489C377.17 415.965 429.655 418.984 466.571 391.498C470.176 388.81 473.649 385.796 476.961 382.489C480.268 379.177 483.282 375.705 485.965 372.099C513.45 335.178 510.404 282.73 476.924 249.249Z" fill="#E0E2EE"/>
<path id="Fill 25" fill-rule="evenodd" clip-rule="evenodd" d="M621.72 521.185L620.176 522.729C609.957 532.954 593.222 532.954 582.998 522.729L488.64 428.371L527.362 389.648L621.72 484.007C631.945 494.231 631.945 510.96 621.72 521.185Z" fill="url(#paint0_linear_279_4064)"/>
<path id="Fill 27" fill-rule="evenodd" clip-rule="evenodd" d="M487.999 369.217L515.883 397.1L496.087 416.89L468.209 389.007C471.889 386.264 475.427 383.188 478.812 379.814C482.186 376.439 485.262 372.896 487.999 369.217Z" fill="#E0E2EE"/>
<path id="Fill 29" fill-rule="evenodd" clip-rule="evenodd" d="M620.309 482.842L581.833 521.313L574.906 514.381L613.377 475.91L620.309 482.842Z" fill="#1A9716"/>
<path id="Fill 31" fill-rule="evenodd" clip-rule="evenodd" d="M529.503 390.98L489.973 430.51L484.1 424.638L523.63 385.107L529.503 390.98Z" fill="url(#paint1_linear_279_4064)"/>
<path id="Fill 33" fill-rule="evenodd" clip-rule="evenodd" d="M443.238 254.115L346.295 351.054C342.644 344.511 340.161 337.567 338.811 330.391L422.574 246.627C429.746 248.029 436.694 250.506 443.238 254.115Z" fill="white" fill-opacity="0.5"/>
<path id="Fill 35" fill-rule="evenodd" clip-rule="evenodd" d="M475.019 277.156L370.213 376.025C366.46 373.554 362.888 370.773 359.556 367.63C357.841 366.012 356.219 364.353 354.702 362.601L460.785 262.518C462.642 263.955 464.406 265.485 466.116 267.103C469.447 270.245 472.444 273.61 475.019 277.156Z" fill="white" fill-opacity="0.5"/>
</g>
</g>
</g>
<defs>
<linearGradient id="paint0_linear_279_4064" x1="559.014" y1="319.274" x2="418.265" y2="460.023" gradientUnits="userSpaceOnUse">
<stop stop-color="#40B93C"/>
<stop offset="1" stop-color="#38B834"/>
</linearGradient>
<linearGradient id="paint1_linear_279_4064" x1="506.802" y1="362.406" x2="461.399" y2="407.809" gradientUnits="userSpaceOnUse">
<stop stop-color="#1A9716"/>
<stop offset="1" stop-color="#1A9716"/>
</linearGradient>
</defs>
</svg>
