<svg width="25" height="24" viewBox="0 0 25 24" fill="none" xmlns="http://www.w3.org/2000/svg">
<rect x="0.0214844" width="24" height="24" rx="4" fill="#F1F3F5"/>
<path d="M12.0215 10.7667C11.6798 10.7667 11.3965 10.4834 11.3965 10.1417V7.3667C11.3965 7.02503 11.6798 6.7417 12.0215 6.7417C12.3632 6.7417 12.6465 7.02503 12.6465 7.3667V10.1417C12.6465 10.4917 12.3632 10.7667 12.0215 10.7667Z" fill="#292D32"/>
<path d="M12.0382 18.9582C9.8882 18.9582 7.74654 18.6165 5.70487 17.9332C4.94654 17.6832 4.37154 17.1415 4.12154 16.4582C3.87154 15.7749 3.95487 14.9915 4.3632 14.3082L5.42154 12.5415C5.65487 12.1499 5.8632 11.4165 5.8632 10.9582V9.2082C5.8632 5.79987 8.62987 3.0332 12.0382 3.0332C15.4465 3.0332 18.2132 5.79987 18.2132 9.2082V10.9582C18.2132 11.4082 18.4215 12.1499 18.6549 12.5415L19.7132 14.3082C20.1049 14.9582 20.1715 15.7332 19.9132 16.4415C19.6549 17.1499 19.0882 17.6915 18.3715 17.9332C16.3299 18.6249 14.1882 18.9582 12.0382 18.9582ZM12.0382 4.29154C9.32154 4.29154 7.1132 6.49987 7.1132 9.21654V10.9665C7.1132 11.6415 6.84654 12.6165 6.49654 13.1915L5.4382 14.9665C5.22154 15.3249 5.17154 15.7082 5.29654 16.0415C5.42154 16.3749 5.70487 16.6249 6.10487 16.7582C9.9382 18.0332 14.1549 18.0332 17.9882 16.7582C18.3465 16.6415 18.6215 16.3749 18.7465 16.0249C18.8799 15.6749 18.8382 15.2915 18.6465 14.9665L17.5882 13.1999C17.2382 12.6249 16.9715 11.6499 16.9715 10.9749V9.22487C16.9632 6.49987 14.7549 4.29154 12.0382 4.29154Z" fill="#292D32"/>
<path d="M12.0211 21.0831C11.1294 21.0831 10.2544 20.7164 9.62109 20.0831C8.98776 19.4498 8.62109 18.5748 8.62109 17.6831H9.87109C9.87109 18.2498 10.1044 18.7998 10.5044 19.1998C10.9044 19.5998 11.4544 19.8331 12.0211 19.8331C13.2044 19.8331 14.1711 18.8664 14.1711 17.6831H15.4211C15.4211 19.5581 13.8961 21.0831 12.0211 21.0831Z" fill="#292D32"/>
<circle cx="16.0215" cy="5" r="3" fill="#E22525"/>
</svg>
