<svg width="20" height="20" viewBox="0 0 20 20" fill="none" xmlns="http://www.w3.org/2000/svg">
<path d="M16.6236 4.87203L15.9121 5.10921L15.9121 5.10921L16.6236 4.87203ZM15.9548 5.2375C16.0858 5.63046 16.5106 5.84282 16.9035 5.71184C17.2965 5.58085 17.5088 5.15611 17.3779 4.76315L15.9548 5.2375ZM13.5702 0.95548C13.1772 0.824494 12.7525 1.03686 12.6215 1.42982C12.4905 1.82278 12.7029 2.24752 13.0958 2.3785L13.5702 0.95548ZM13.4613 1.70976L13.2241 2.42127V2.42127L13.4613 1.70976ZM3.71258 12.4004L3.14102 11.9148H3.14102L3.71258 12.4004ZM4.44531 10.6991L3.70007 10.6147L4.44531 10.6991ZM15.554 10.6991L16.2993 10.6147L15.554 10.6991ZM16.2868 12.4004L16.8583 11.9148L16.2868 12.4004ZM15.2666 8.16202L14.5214 8.24644V8.24644L15.2666 8.16202ZM4.7327 8.16202L5.47794 8.24644L4.7327 8.16202ZM13.202 16.9302C13.3473 16.5423 13.1507 16.1101 12.7629 15.9647C12.375 15.8193 11.9427 16.0159 11.7974 16.4038L13.202 16.9302ZM8.20197 16.4038C8.05661 16.0159 7.62434 15.8193 7.23647 15.9647C6.8486 16.1101 6.65201 16.5423 6.79738 16.9302L8.20197 16.4038ZM3.37577 4.87203L4.08728 5.10921L4.08728 5.10921L3.37577 4.87203ZM2.6215 4.76315C2.49051 5.15611 2.70288 5.58085 3.09584 5.71184C3.48879 5.84282 3.91353 5.63045 4.04452 5.2375L2.6215 4.76315ZM6.90351 2.3785C7.29647 2.24752 7.50884 1.82278 7.37785 1.42982C7.24687 1.03686 6.82213 0.824494 6.42917 0.95548L6.90351 2.3785ZM6.53805 1.70976L6.30088 0.998244H6.30088L6.53805 1.70976ZM15.9121 5.10921L15.9548 5.2375L17.3779 4.76315L17.3351 4.63486L15.9121 5.10921ZM13.0958 2.3785L13.2241 2.42127L13.6985 0.998244L13.5702 0.95548L13.0958 2.3785ZM17.3351 4.63486C16.7628 2.91788 15.4154 1.57057 13.6985 0.998244L13.2241 2.42127C14.4932 2.84429 15.489 3.84013 15.9121 5.10921L17.3351 4.63486ZM15.1412 14.2503H4.85812V15.7503H15.1412V14.2503ZM14.5214 8.24644L14.8088 10.7835L16.2993 10.6147L16.0119 8.0776L14.5214 8.24644ZM5.19054 10.7835L5.47794 8.24644L3.98747 8.0776L3.70007 10.6147L5.19054 10.7835ZM4.28415 12.886C4.78766 12.2933 5.10258 11.56 5.19054 10.7835L3.70007 10.6147C3.64521 11.099 3.44913 11.5521 3.14102 11.9148L4.28415 12.886ZM14.8088 10.7835C14.8968 11.56 15.2117 12.2933 15.7152 12.886L16.8583 11.9148C16.5502 11.5521 16.3541 11.099 16.2993 10.6147L14.8088 10.7835ZM4.85812 14.2503C4.23288 14.2503 3.80859 13.4457 4.28415 12.886L3.14102 11.9148C1.89424 13.3822 2.86782 15.7503 4.85812 15.7503V14.2503ZM15.1412 15.7503C17.1315 15.7503 18.1051 13.3822 16.8583 11.9148L15.7152 12.886C16.1908 13.4457 15.7665 14.2503 15.1412 14.2503V15.7503ZM16.0119 8.0776C15.6591 4.96325 13.0894 2.58366 9.99968 2.58366V4.08366C12.2917 4.08366 14.2506 5.8555 14.5214 8.24644L16.0119 8.0776ZM5.47794 8.24644C5.74879 5.8555 7.70762 4.08366 9.99968 4.08366V2.58366C6.90997 2.58366 4.34027 4.96325 3.98747 8.0776L5.47794 8.24644ZM11.7974 16.4038C11.5474 17.0707 10.8534 17.5837 9.99967 17.5837V19.0837C11.4543 19.0837 12.7241 18.2053 13.202 16.9302L11.7974 16.4038ZM9.99967 17.5837C9.14593 17.5837 8.45191 17.0707 8.20197 16.4038L6.79738 16.9302C7.27525 18.2053 8.54503 19.0837 9.99967 19.0837V17.5837ZM2.66426 4.63486L2.6215 4.76315L4.04452 5.2375L4.08728 5.10921L2.66426 4.63486ZM6.42917 0.95548L6.30088 0.998244L6.77522 2.42127L6.90351 2.3785L6.42917 0.95548ZM4.08728 5.10921C4.51031 3.84013 5.50615 2.84429 6.77522 2.42127L6.30088 0.998244C4.5839 1.57057 3.23659 2.91788 2.66426 4.63486L4.08728 5.10921Z" fill="#28303F"/>
</svg>
