<svg width="20" height="20" viewBox="0 0 20 20" fill="none" xmlns="http://www.w3.org/2000/svg">
<path d="M1.66699 6.66699H3.33366L8.5522 8.9501C9.35373 9.30077 9.72231 10.2324 9.37768 11.0365V11.0365C9.0312 11.845 8.09495 12.2195 7.28651 11.873L5.83366 11.2503" stroke="#28303F" stroke-width="1.25" stroke-linecap="round" stroke-linejoin="round"/>
<path d="M1.9465 13.608C1.63776 13.4536 1.26234 13.5787 1.10798 13.8875C0.953607 14.1962 1.07875 14.5716 1.38748 14.726L1.9465 13.608ZM9.4465 11.108L8.88748 10.8285L8.32847 11.9465L8.88748 12.226L9.4465 11.108ZM5.25936 15.9632L4.97985 16.5222L5.25936 15.9632ZM11.4446 12.8058L11.1651 13.3648L11.4446 12.8058ZM13.6807 13.9587H15.0003V12.7087H13.6807V13.9587ZM15.0003 16.042H8.24078V17.292H15.0003V16.042ZM5.53886 15.4042L1.9465 13.608L1.38748 14.726L4.97985 16.5222L5.53886 15.4042ZM11.7241 12.2468L9.4465 11.108L8.88748 12.226L11.1651 13.3648L11.7241 12.2468ZM8.24078 16.042C7.30284 16.042 6.37778 15.8236 5.53886 15.4042L4.97985 16.5222C5.99233 17.0284 7.10878 17.292 8.24078 17.292V16.042ZM16.042 15.0003C16.042 15.5756 15.5756 16.042 15.0003 16.042V17.292C16.266 17.292 17.292 16.266 17.292 15.0003H16.042ZM15.0003 13.9587C15.5756 13.9587 16.042 14.425 16.042 15.0003H17.292C17.292 13.7347 16.266 12.7087 15.0003 12.7087V13.9587ZM13.6807 12.7087C13.0015 12.7087 12.3316 12.5505 11.7241 12.2468L11.1651 13.3648C11.9462 13.7553 12.8074 13.9587 13.6807 13.9587V12.7087Z" fill="#28303F"/>
<circle cx="15.0003" cy="6.66634" r="3.33333" stroke="#28303F" stroke-width="1.25"/>
</svg>
