<svg width="20" height="20" viewBox="0 0 20 20" fill="none" xmlns="http://www.w3.org/2000/svg">
<path d="M12.5837 5.83333C12.5837 7.26007 11.4271 8.41667 10.0003 8.41667V9.91667C12.2555 9.91667 14.0837 8.0885 14.0837 5.83333H12.5837ZM10.0003 8.41667C8.57359 8.41667 7.41699 7.26007 7.41699 5.83333H5.91699C5.91699 8.0885 7.74516 9.91667 10.0003 9.91667V8.41667ZM7.41699 5.83333C7.41699 4.4066 8.57359 3.25 10.0003 3.25V1.75C7.74516 1.75 5.91699 3.57817 5.91699 5.83333H7.41699ZM10.0003 3.25C11.4271 3.25 12.5837 4.4066 12.5837 5.83333H14.0837C14.0837 3.57817 12.2555 1.75 10.0003 1.75V3.25ZM15.0837 14.5833C15.0837 14.9516 14.7656 15.487 13.7897 15.9749C12.8587 16.4404 11.52 16.75 10.0003 16.75V18.25C11.7023 18.25 13.2803 17.9067 14.4605 17.3165C15.5959 16.7489 16.5837 15.8259 16.5837 14.5833H15.0837ZM10.0003 16.75C8.48068 16.75 7.14198 16.4404 6.21095 15.9749C5.23505 15.487 4.91699 14.9516 4.91699 14.5833H3.41699C3.41699 15.8259 4.40477 16.7489 5.54013 17.3165C6.72034 17.9067 8.29831 18.25 10.0003 18.25V16.75ZM4.91699 14.5833C4.91699 14.215 5.23505 13.6797 6.21095 13.1918C7.14198 12.7262 8.48068 12.4167 10.0003 12.4167V10.9167C8.29831 10.9167 6.72034 11.26 5.54013 11.8501C4.40477 12.4178 3.41699 13.3408 3.41699 14.5833H4.91699ZM10.0003 12.4167C11.52 12.4167 12.8587 12.7262 13.7897 13.1918C14.7656 13.6797 15.0837 14.215 15.0837 14.5833H16.5837C16.5837 13.3408 15.5959 12.4178 14.4605 11.8501C13.2803 11.26 11.7023 10.9167 10.0003 10.9167V12.4167Z" fill="#28303F"/>
</svg>
