<svg width="18" height="18" viewBox="0 0 18 18" fill="none" xmlns="http://www.w3.org/2000/svg">
<path d="M9.00012 10.5C5.24262 10.5 2.18262 13.02 2.18262 16.125C2.18262 16.335 2.34762 16.5 2.55762 16.5H15.4426C15.6526 16.5 15.8176 16.335 15.8176 16.125C15.8176 13.02 12.7576 10.5 9.00012 10.5Z" fill="#9CA3AF"/>
<path d="M9 1.5C8.115 1.5 7.305 1.8075 6.66 2.325C5.7975 3.0075 5.25 4.065 5.25 5.25C5.25 5.955 5.445 6.615 5.7975 7.1775C6.4425 8.265 7.6275 9 9 9C9.945 9 10.8075 8.655 11.4675 8.0625C11.76 7.815 12.015 7.515 12.21 7.1775C12.555 6.615 12.75 5.955 12.75 5.25C12.75 3.18 11.07 1.5 9 1.5ZM10.9425 4.845L8.94 6.69C8.805 6.8175 8.6325 6.8775 8.46 6.8775C8.28 6.8775 8.1 6.81 7.965 6.675L7.0425 5.745C6.765 5.4675 6.765 5.025 7.0425 4.7475C7.32 4.47 7.7625 4.47 8.04 4.7475L8.4825 5.19L9.99 3.8025C10.275 3.54 10.7175 3.555 10.98 3.84C11.2425 4.1325 11.2275 4.5825 10.9425 4.845Z" fill="#9CA3AF"/>
</svg>
