<svg width="20" height="20" viewBox="0 0 20 20" fill="none" xmlns="http://www.w3.org/2000/svg">
<path d="M6.66667 8.33366H13.3333M6.66667 11.667H13.3333M6.66667 15.0003H10M6.66667 3.33366C6.66667 4.25413 7.41286 5.00033 8.33333 5.00033H11.6667C12.5871 5.00033 13.3333 4.25413 13.3333 3.33366M6.66667 3.33366C6.66667 2.41318 7.41286 1.66699 8.33333 1.66699H11.6667C12.5871 1.66699 13.3333 2.41318 13.3333 3.33366M6.66667 3.33366H5.83333C3.99238 3.33366 2.5 4.82604 2.5 6.66699V15.0003C2.5 16.8413 3.99238 18.3337 5.83333 18.3337H14.1667C16.0076 18.3337 17.5 16.8413 17.5 15.0003V6.66699C17.5 4.82604 16.0076 3.33366 14.1667 3.33366H13.3333" stroke="#28303F" stroke-width="1.5" stroke-linecap="round"/>
</svg>
