<svg width="20" height="20" viewBox="0 0 20 20" fill="none" xmlns="http://www.w3.org/2000/svg">
<path d="M12.5003 8.33301L11.4229 9.41042C11.0975 9.73586 11.0975 10.2635 11.4229 10.5889L12.5003 11.6663M11.667 9.99967L18.3337 9.99967M5.00033 16.6663C3.15938 16.6663 1.66699 15.174 1.66699 13.333V6.66634C1.66699 4.82539 3.15938 3.33301 5.00033 3.33301M5.00033 16.6663C6.84127 16.6663 8.33366 15.174 8.33366 13.333V6.66634C8.33366 4.82539 6.84127 3.33301 5.00033 3.33301M5.00033 16.6663H11.667C13.5079 16.6663 15.0003 15.174 15.0003 13.333M5.00033 3.33301H11.667C13.5079 3.33301 15.0003 4.82539 15.0003 6.66634" stroke="#28303F" stroke-width="1.5" stroke-linecap="round"/>
</svg>
