<svg width="47" height="46" viewBox="0 0 47 46" fill="none" xmlns="http://www.w3.org/2000/svg">
<path fill-rule="evenodd" clip-rule="evenodd" d="M23.3264 10.8092C21.3254 8.24827 18.522 7.27119 16.1331 7.80957C13.7042 8.35697 11.8773 10.4385 11.8773 13.5593C11.8773 18.3654 14.7407 21.6851 18.1061 24.0882C16.4786 25.5675 15.2428 27.2893 14.5052 28.96C14.4274 29.1363 14.3547 29.3131 14.2873 29.4898H5.14861C4.69817 29.4898 4.33301 29.8556 4.33301 30.3068C4.33301 30.758 4.69817 31.1237 5.14861 31.1237H13.8267C13.7139 31.7595 13.6871 32.379 13.7615 32.9622C13.9232 34.2295 14.57 35.3259 15.7945 35.9391C17.0987 36.5923 18.3539 36.5337 19.4691 36.0147C20.5438 35.5145 21.4505 34.6072 22.1901 33.6172C22.77 32.8411 23.2765 31.9739 23.7035 31.1237H41.8507C42.3012 31.1237 42.6663 30.758 42.6663 30.3068C42.6663 29.8556 42.3012 29.4898 41.8507 29.4898H24.4447C24.7295 28.7932 24.9476 28.1669 25.0948 27.6877C25.4626 26.4905 25.891 24.1998 25.983 21.5902C26.1594 21.5347 26.3301 21.4844 26.4954 21.4391C27.6128 21.1329 28.4208 21.0742 28.9503 21.1591C29.46 21.2408 29.6047 21.4281 29.6587 21.5608C29.7358 21.7503 29.7609 22.1506 29.4745 22.8471C29.1066 23.742 28.9201 24.5619 29.0973 25.2165C29.1962 25.5818 29.4116 25.9022 29.7523 26.1065C30.0744 26.2996 30.4293 26.3415 30.7383 26.3221C31.3385 26.2845 31.995 26.003 32.5993 25.6384C33.2234 25.2619 33.8739 24.7467 34.4756 24.144C35.0167 23.602 35.5722 23.1075 36.0948 22.72C36.6283 22.3245 37.0805 22.0762 37.4188 21.9754C37.5836 21.9264 37.6841 21.9238 37.734 21.9301C37.7679 21.9343 37.7744 21.9408 37.7783 21.9449C37.8126 21.9777 37.9762 22.1981 37.9762 22.9536C37.9762 24.3537 38.3497 25.4541 39.3556 25.8572C39.8115 26.0399 40.2816 26.0197 40.6789 25.9369C41.0791 25.8534 41.4676 25.6935 41.8077 25.5231C42.2106 25.3214 42.3739 24.8306 42.1724 24.4271C41.971 24.0235 41.4811 23.86 41.0782 24.0618C40.8066 24.1978 40.5578 24.2932 40.3463 24.3373C40.1318 24.382 40.0155 24.3618 39.9615 24.3402C39.9431 24.3329 39.6074 24.2 39.6074 22.9536C39.6074 22.0756 39.4387 21.274 38.906 20.7644C38.3187 20.2025 37.5574 20.2296 36.954 20.4093C36.3495 20.5893 35.7186 20.9662 35.1244 21.4067C34.5194 21.8552 33.9025 22.4074 33.3222 22.9887C32.8024 23.5092 32.255 23.9387 31.7576 24.2388C31.6444 24.3071 31.5373 24.3665 31.4369 24.4179C31.0396 24.6209 30.6852 24.3063 30.8273 23.8833C30.8688 23.7598 30.92 23.6222 30.9828 23.4693C31.339 22.603 31.4815 21.7114 31.1692 20.9441C30.8339 20.1202 30.0826 19.6859 29.2081 19.5457C28.3536 19.4087 27.2893 19.5276 26.065 19.8631C26.0408 19.8697 26.0165 19.8765 25.9921 19.8833C25.9121 16.7711 25.274 13.3019 23.3264 10.8092ZM22.6712 29.4898C23.0625 28.6089 23.3555 27.794 23.5357 27.2072C23.8285 26.2542 24.1917 24.3935 24.3212 22.2039C23.7364 22.4478 23.1082 22.7362 22.4371 23.0723C21.902 23.3403 21.391 23.6398 20.9062 23.9643C21.0888 24.0734 21.2727 24.1809 21.4576 24.2867C21.8487 24.5106 21.9845 25.0097 21.761 25.4014C21.5374 25.7931 21.0392 25.9291 20.6481 25.7052C20.2689 25.4881 19.8888 25.2618 19.5108 25.0254C17.9414 26.374 16.7539 27.9685 16.056 29.4898H22.6712ZM15.4904 31.1237C15.3541 31.7289 15.319 32.2805 15.3796 32.7551C15.4832 33.5673 15.858 34.1442 16.524 34.4777C17.3608 34.8968 18.0936 34.8533 18.7817 34.533C19.5102 34.1939 20.2219 33.5247 20.8841 32.6383C21.2371 32.1659 21.5624 31.6502 21.8572 31.1237H15.4904ZM21.7076 21.6109C22.6642 21.1319 23.5522 20.738 24.3693 20.4253C24.3688 20.3369 24.3678 20.2482 24.3664 20.1594C24.3164 17.105 23.7122 13.9541 22.0418 11.8162C20.3725 9.67972 18.1803 9.02293 16.4912 9.4036C14.8421 9.77526 13.5085 11.1657 13.5085 13.5593C13.5085 17.7678 16.0955 20.7358 19.4183 23.0141C20.1281 22.4923 20.8933 22.0188 21.7076 21.6109Z" fill="#9CA3AF"/>
<path d="M10.415 20.5386C10.7336 20.8576 10.7336 21.3748 10.415 21.6939L8.74886 23.3628L10.415 25.0317C10.7336 25.3508 10.7336 25.868 10.415 26.187C10.0965 26.5061 9.58012 26.5061 9.26161 26.187L7.59542 24.5181L5.92923 26.187C5.61072 26.5061 5.09431 26.5061 4.77579 26.187C4.45728 25.868 4.45728 25.3508 4.77579 25.0317L6.44198 23.3628L4.77579 21.6939C4.45728 21.3748 4.45728 20.8576 4.77579 20.5386C5.09431 20.2195 5.61072 20.2195 5.92923 20.5386L7.59542 22.2075L9.26161 20.5386C9.58012 20.2195 10.0965 20.2195 10.415 20.5386Z" fill="#9CA3AF"/>
</svg>
