<svg width="20" height="21" viewBox="0 0 20 21" fill="none" xmlns="http://www.w3.org/2000/svg">
<path d="M13.8652 9.19034C13.2478 7.66188 11.75 6.58341 10.0003 6.58341C7.69914 6.58341 5.83366 8.4489 5.83366 10.7501C5.83366 12.4998 6.91213 13.9976 8.44058 14.615M9.92996 19.0831C5.35998 19.0453 1.66699 15.329 1.66699 10.7501C1.66699 6.14771 5.39795 2.41675 10.0003 2.41675C14.5792 2.41675 18.2956 6.10974 18.3334 10.6797M10.0481 11.9364L12.2253 18.468C12.4988 19.2886 13.6595 19.2886 13.9331 18.468L14.737 16.0561C14.8266 15.7873 15.0375 15.5764 15.3063 15.4868L17.7182 14.6828C18.5388 14.4093 18.5388 13.2486 17.7182 12.975L11.1866 10.7978C10.483 10.5633 9.81352 11.2327 10.0481 11.9364Z" stroke="#28303F" stroke-width="1.5" stroke-linecap="round" stroke-linejoin="round"/>
</svg>
