<svg width="52" height="52" viewBox="0 0 52 52" fill="none" xmlns="http://www.w3.org/2000/svg">
<rect width="52" height="52" rx="26" fill="#40B93C" fill-opacity="0.1"/>
<rect x="7.64844" y="7.64648" width="36.7059" height="36.7059" rx="18.3529" fill="#40B93C"/>
<path d="M32.8852 20.1546C32.7227 20.0409 32.5394 19.9603 32.3457 19.9175C32.1521 19.8746 31.9519 19.8704 31.7565 19.9049C31.5612 19.9395 31.3746 20.0121 31.2074 20.1188C31.0402 20.2255 30.8956 20.3641 30.782 20.5266L25.0401 28.7268L21.2753 26.1551C20.9734 25.9486 20.6018 25.8704 20.2422 25.9379C19.8826 26.0053 19.5646 26.2129 19.3581 26.5148C19.1515 26.8168 19.0734 27.1884 19.1408 27.548C19.2083 27.9075 19.4158 28.2256 19.7178 28.4321L24.7643 31.879C24.9197 31.9851 25.0954 32.058 25.2802 32.0931C25.4651 32.1282 25.6553 32.1248 25.8387 32.0831C26.0345 32.0489 26.2215 31.9763 26.3892 31.8697C26.5568 31.7631 26.7017 31.6244 26.8157 31.4616L33.2575 22.2591C33.4871 21.9304 33.5768 21.5241 33.5069 21.1294C33.4371 20.7347 33.2134 20.3838 32.885 20.1539" fill="white"/>
</svg>
