<svg width="25" height="24" viewBox="0 0 25 24" fill="none" xmlns="http://www.w3.org/2000/svg">
<path d="M18.5 2H6.5C4.84 2 3.5 3.33 3.5 4.97V15.88C3.5 17.52 4.84 18.85 6.5 18.85H7.26C8.06 18.85 8.82 19.16 9.38 19.72L11.09 21.41C11.87 22.18 13.14 22.18 13.92 21.41L15.63 19.72C16.19 19.16 16.96 18.85 17.75 18.85H18.5C20.16 18.85 21.5 17.52 21.5 15.88V4.97C21.5 3.33 20.16 2 18.5 2ZM10.88 13.01C11.29 13.01 11.63 13.35 11.63 13.76C11.63 14.17 11.29 14.51 10.88 14.51H8.2C7.76 14.51 7.35 14.3 7.09 13.94C6.84 13.6 6.78 13.18 6.9 12.78C7.25 11.71 8.11 11.13 8.87 10.61C9.67 10.07 10.12 9.73 10.12 9.15C10.12 8.63 9.7 8.21 9.18 8.21C8.66 8.21 8.25 8.64 8.25 9.16C8.25 9.57 7.91 9.91 7.5 9.91C7.09 9.91 6.75 9.57 6.75 9.16C6.75 7.82 7.84 6.72 9.19 6.72C10.54 6.72 11.63 7.81 11.63 9.16C11.63 10.57 10.57 11.29 9.72 11.87C9.19 12.23 8.69 12.57 8.44 13.02H10.88V13.01ZM17.5 13.08H17.29V13.77C17.29 14.18 16.95 14.52 16.54 14.52C16.13 14.52 15.79 14.18 15.79 13.77V13.08H13.83C13.83 13.08 13.83 13.08 13.82 13.08C13.33 13.08 12.88 12.82 12.63 12.4C12.38 11.97 12.38 11.44 12.63 11.02C13.31 9.85 14.1 8.52 14.82 7.36C15.14 6.85 15.75 6.62 16.32 6.78C16.89 6.95 17.29 7.47 17.28 8.07V11.59H17.5C17.91 11.59 18.25 11.93 18.25 12.34C18.25 12.75 17.91 13.08 17.5 13.08Z" fill="#F43F5E"/>
<path d="M15.79 11.5806V8.64062C15.2 9.60062 14.59 10.6306 14.04 11.5706H15.79V11.5806Z" fill="#292D32"/>
</svg>
