<svg width="23" height="23" viewBox="0 0 23 23" fill="none" xmlns="http://www.w3.org/2000/svg">
<path d="M12.3635 13.955H2.36346C1.99073 13.955 1.68164 13.6459 1.68164 13.2732V7.47317C1.68164 7.18226 1.86345 6.92769 2.12709 6.82769C2.39981 6.72769 2.69983 6.80954 2.88165 7.02772C3.43619 7.69136 4.29983 8.06407 5.15437 8.0368C5.88165 8.01862 6.55435 7.74591 7.06344 7.26409C7.29981 7.06409 7.49072 6.82771 7.63617 6.56408C7.91799 6.08226 8.05437 5.55497 8.04528 5.01861C8.02709 4.18225 7.66348 3.41861 7.0453 2.86407C6.82712 2.67316 6.75437 2.37314 6.85437 2.10951C6.95437 1.84587 7.20893 1.66406 7.49074 1.66406H14.1816C14.5544 1.66406 14.8635 1.97315 14.8635 2.34588V11.4368C14.8635 12.8368 13.7453 13.955 12.3635 13.955ZM3.04528 12.5914H12.3635C12.9907 12.5914 13.4998 12.0823 13.4998 11.455V3.0459H8.89982C9.21801 3.63681 9.39073 4.30046 9.40891 4.99137C9.42709 5.78228 9.22708 6.56408 8.82708 7.24589C8.6089 7.6368 8.30891 8.00954 7.98163 8.28227C7.25436 8.97318 6.25435 9.38226 5.19072 9.40953C4.43617 9.43681 3.69074 9.2459 3.05438 8.90045V12.5914H3.04528Z" fill="#FFA500"/>
<path d="M17.818 19.4082H16.9089C16.5362 19.4082 16.2271 19.0991 16.2271 18.7264C16.2271 18.0991 15.718 17.59 15.0907 17.59C14.4635 17.59 13.9544 18.0991 13.9544 18.7264C13.9544 19.0991 13.6453 19.4082 13.2725 19.4082H9.63619C9.26346 19.4082 8.95437 19.0991 8.95437 18.7264C8.95437 18.0991 8.44528 17.59 7.818 17.59C7.19073 17.59 6.68164 18.0991 6.68164 18.7264C6.68164 19.0991 6.37255 19.4082 5.99982 19.4082H5.09073C3.20891 19.4082 1.68164 17.8809 1.68164 15.9991V13.2718C1.68164 12.8991 1.99073 12.59 2.36346 12.59H12.3635C12.9907 12.59 13.4998 12.0809 13.4998 11.4537V5.09002C13.4998 4.71729 13.8089 4.4082 14.1816 4.4082H15.8544C16.7544 4.4082 17.5816 4.89003 18.0271 5.67185L19.5816 8.39003C19.6998 8.59912 19.6998 8.86275 19.5816 9.07184C19.4635 9.28093 19.2362 9.4082 18.9907 9.4082H17.818C17.6907 9.4082 17.5907 9.5082 17.5907 9.63548V12.3627C17.5907 12.49 17.6907 12.59 17.818 12.59H20.5453C20.918 12.59 21.2271 12.8991 21.2271 13.2718V15.9991C21.2271 17.8809 19.6998 19.4082 17.818 19.4082ZM17.4998 18.0446H17.818C18.9453 18.0446 19.8635 17.1264 19.8635 15.9991V13.9537H17.818C16.9453 13.9537 16.2271 13.2355 16.2271 12.3627V9.63548C16.2271 8.76275 16.9362 8.04457 17.818 8.04457L16.8453 6.34457C16.6453 5.99003 16.2635 5.77184 15.8544 5.77184H14.8635V11.4537C14.8635 12.8355 13.7453 13.9537 12.3635 13.9537H3.04528V15.9991C3.04528 17.1264 3.96346 18.0446 5.09073 18.0446H5.40889C5.70889 16.9991 6.67255 16.2264 7.818 16.2264C8.96346 16.2264 9.92712 16.9991 10.2271 18.0446H12.6907C12.9907 16.9991 13.9544 16.2264 15.0998 16.2264C16.2453 16.2264 17.1998 16.9991 17.4998 18.0446Z" fill="#FFA500"/>
<path d="M7.81836 21.2266C6.43654 21.2266 5.31836 20.1084 5.31836 18.7266C5.31836 17.3447 6.43654 16.2266 7.81836 16.2266C9.20018 16.2266 10.3184 17.3447 10.3184 18.7266C10.3184 20.1084 9.20018 21.2266 7.81836 21.2266ZM7.81836 17.5902C7.19109 17.5902 6.682 18.0993 6.682 18.7266C6.682 19.3538 7.19109 19.8629 7.81836 19.8629C8.44563 19.8629 8.95472 19.3538 8.95472 18.7266C8.95472 18.0993 8.44563 17.5902 7.81836 17.5902Z" fill="#FFA500"/>
<path d="M15.0908 21.2266C13.709 21.2266 12.5908 20.1084 12.5908 18.7266C12.5908 17.3447 13.709 16.2266 15.0908 16.2266C16.4726 16.2266 17.5908 17.3447 17.5908 18.7266C17.5908 20.1084 16.4726 21.2266 15.0908 21.2266ZM15.0908 17.5902C14.4635 17.5902 13.9545 18.0993 13.9545 18.7266C13.9545 19.3538 14.4635 19.8629 15.0908 19.8629C15.7181 19.8629 16.2272 19.3538 16.2272 18.7266C16.2272 18.0993 15.7181 17.5902 15.0908 17.5902Z" fill="#FFA500"/>
<path d="M20.5452 13.954H17.818C16.9452 13.954 16.2271 13.2358 16.2271 12.3631V9.63583C16.2271 8.7631 16.9452 8.04492 17.818 8.04492H18.9907C19.2361 8.04492 19.4634 8.1722 19.5816 8.39038L21.1362 11.1177C21.1907 11.2177 21.2271 11.3358 21.2271 11.454V13.2722C21.2271 13.6449 20.918 13.954 20.5452 13.954ZM17.818 9.40856C17.6907 9.40856 17.5907 9.50856 17.5907 9.63583V12.3631C17.5907 12.4904 17.6907 12.5904 17.818 12.5904H19.8634V11.6358L18.5907 9.40856H17.818Z" fill="#FFA500"/>
<path d="M5.09064 9.40785C2.70882 9.40785 0.772461 7.47148 0.772461 5.08967C0.772461 3.76239 1.3634 2.5351 2.39067 1.71692C3.15431 1.10783 4.11792 0.771484 5.09064 0.771484C7.47246 0.771484 9.40882 2.70785 9.40882 5.08967C9.40882 6.32603 8.87246 7.50784 7.9361 8.32603C7.14519 9.02603 6.1361 9.40785 5.09064 9.40785ZM5.09064 2.13512C4.41792 2.13512 3.78152 2.36237 3.24516 2.78964C2.54516 3.34418 2.1361 4.18967 2.1361 5.08967C2.1361 6.71694 3.46337 8.04421 5.09064 8.04421C5.79973 8.04421 6.49066 7.78058 7.04521 7.30785C7.68157 6.74421 8.04519 5.94421 8.04519 5.08967C8.04519 3.46239 6.71792 2.13512 5.09064 2.13512Z" fill="#FFA500"/>
<path d="M4.18159 6.68058C3.95432 6.68058 3.72703 6.56241 3.59976 6.35332C3.40885 6.02604 3.50886 5.60783 3.83613 5.41693L4.64523 4.93514V3.9533C4.64523 3.58058 4.95433 3.27148 5.32705 3.27148C5.69978 3.27148 6.00887 3.58058 6.00887 3.9533V5.31694C6.00887 5.5533 5.88161 5.78059 5.68161 5.89877L4.54525 6.58059C4.41797 6.65332 4.29977 6.68058 4.18159 6.68058Z" fill="#FFA500"/>
</svg>
