<svg width="50" height="45" viewBox="0 0 50 45" fill="none" xmlns="http://www.w3.org/2000/svg">
<g filter="url(#filter0_di_5431_16826)">
<path d="M45.4227 6.16755C46.3069 8.45538 45.0669 10.0217 42.6668 11.5647C40.7303 12.8096 38.263 14.1583 35.6488 16.464C33.086 18.7243 30.5849 21.4468 28.3622 24.1264C26.1485 26.7952 24.267 29.3532 22.9376 31.2473C22.0785 32.4713 20.8796 34.2969 20.8796 34.2969C20.0341 35.6347 18.5142 36.4443 16.8844 36.4239C15.2542 36.4036 13.7569 35.5569 12.948 34.198C10.8804 30.7244 9.28485 29.3527 8.55155 28.8599C6.58942 27.5413 4.28711 27.3463 4.28711 24.2736C4.28711 21.8334 6.34774 19.8552 8.88967 19.8552C10.6843 19.9215 12.3524 20.6273 13.8303 21.6205C14.7751 22.2553 15.7759 23.095 16.8169 24.2003C18.0386 22.5339 19.5109 20.6113 21.1612 18.6217C23.558 15.7322 26.3871 12.6325 29.421 9.95662C32.4034 7.32615 35.8516 4.8639 39.5065 3.56206C41.8897 2.7132 44.5384 3.87972 45.4227 6.16755Z" fill="#093126"/>
</g>
<path d="M44.8835 6.18447C46.1262 8.04858 39.8026 11.5681 37.427 13.2307C35.9134 14.2901 34.554 15.5188 32.4561 17.3691C30.3994 19.183 28.0844 22.0021 26.3007 24.1524C24.5242 26.2941 23.0143 28.3469 21.9475 29.8669C21.2581 30.8491 20.2959 32.3142 20.2959 32.3142C19.6175 33.3877 18.5665 33.5409 17.2586 33.5246C15.9504 33.5083 14.9165 33.3253 14.2674 32.2348C12.6081 29.4473 10.9912 28.3464 10.4027 27.951C8.82813 26.8929 5.15137 25.8661 5.15137 23.4003C5.15137 21.4421 6.80502 19.8546 8.8449 19.8546C10.2851 19.9077 13.2506 21.543 14.4366 22.34C15.1948 22.8495 16.0867 23.9385 16.9221 24.8255C17.8792 23.52 18.9207 22.2645 20.2018 20.7201L20.2959 20.6066C22.2194 18.2879 24.7157 14.9286 27.1503 12.7812C29.5437 10.6703 35.7368 5.3651 38.6698 4.32038C41.1751 3.36907 44.8743 4.02975 44.8835 6.18447Z" fill="#33574D"/>
<defs>
<filter id="filter0_di_5431_16826" x="-1.40696" y="0.473915" width="52.809" height="44.5275" filterUnits="userSpaceOnUse" color-interpolation-filters="sRGB">
<feFlood flood-opacity="0" result="BackgroundImageFix"/>
<feColorMatrix in="SourceAlpha" type="matrix" values="0 0 0 0 0 0 0 0 0 0 0 0 0 0 0 0 0 0 127 0" result="hardAlpha"/>
<feOffset dy="2.88307"/>
<feGaussianBlur stdDeviation="2.84704"/>
<feComposite in2="hardAlpha" operator="out"/>
<feColorMatrix type="matrix" values="0 0 0 0 0.0352941 0 0 0 0 0.192157 0 0 0 0 0.14902 0 0 0 0.53 0"/>
<feBlend mode="normal" in2="BackgroundImageFix" result="effect1_dropShadow_5431_16826"/>
<feBlend mode="normal" in="SourceGraphic" in2="effect1_dropShadow_5431_16826" result="shape"/>
<feColorMatrix in="SourceAlpha" type="matrix" values="0 0 0 0 0 0 0 0 0 0 0 0 0 0 0 0 0 0 127 0" result="hardAlpha"/>
<feOffset dy="-4.97091"/>
<feGaussianBlur stdDeviation="0.621364"/>
<feComposite in2="hardAlpha" operator="arithmetic" k2="-1" k3="1"/>
<feColorMatrix type="matrix" values="0 0 0 0 0.0352941 0 0 0 0 0.192157 0 0 0 0 0.14902 0 0 0 0.42 0"/>
<feBlend mode="normal" in2="shape" result="effect2_innerShadow_5431_16826"/>
</filter>
</defs>
</svg>
