<svg width="23" height="23" viewBox="0 0 23 23" fill="none" xmlns="http://www.w3.org/2000/svg">
<path d="M12.2547 19.5095H6.7365C3.50922 19.5095 2.36377 17.2458 2.36377 15.1368V7.77312C2.36377 4.62766 3.59104 3.40039 6.7365 3.40039H12.2547C15.4001 3.40039 16.6274 4.62766 16.6274 7.77312V15.1368C16.6274 18.2822 15.4001 19.5095 12.2547 19.5095ZM6.7365 4.78221C4.36377 4.78221 3.74559 5.40039 3.74559 7.77312V15.1368C3.74559 16.2549 4.1365 18.1277 6.7365 18.1277H12.2547C14.6274 18.1277 15.2456 17.5095 15.2456 15.1368V7.77312C15.2456 5.40039 14.6274 4.78221 12.2547 4.78221H6.7365Z" fill="#FB1CD7"/>
<path d="M19.4362 17.0092C19.0453 17.0092 18.5453 16.8819 17.9726 16.4819L15.5453 14.7819C15.3635 14.6546 15.2544 14.4455 15.2544 14.2183V8.69099C15.2544 8.46372 15.3635 8.25463 15.5453 8.12736L17.9726 6.42736C19.0544 5.67281 19.8453 5.89099 20.218 6.0819C20.5908 6.2819 21.2271 6.80008 21.2271 8.11827V14.7819C21.2271 16.1001 20.5908 16.6274 20.218 16.8183C20.0453 16.9183 19.7726 17.0092 19.4362 17.0092ZM16.6271 13.8546L18.7635 15.3455C19.1726 15.6274 19.4635 15.6546 19.5817 15.591C19.7089 15.5274 19.8453 15.2728 19.8453 14.7819V8.12736C19.8453 7.62736 19.6998 7.3819 19.5817 7.31827C19.4635 7.25463 19.1726 7.2819 18.7635 7.56372L16.6271 9.05463V13.8546Z" fill="#FB1CD7"/>
<path d="M11 11.2276C9.87277 11.2276 8.95459 10.3094 8.95459 9.18217C8.95459 8.0549 9.87277 7.13672 11 7.13672C12.1273 7.13672 13.0455 8.0549 13.0455 9.18217C13.0455 10.3094 12.1273 11.2276 11 11.2276ZM11 8.50036C10.6273 8.50036 10.3182 8.80945 10.3182 9.18217C10.3182 9.5549 10.6273 9.86399 11 9.86399C11.3728 9.86399 11.6819 9.5549 11.6819 9.18217C11.6819 8.80945 11.3728 8.50036 11 8.50036Z" fill="#FB1CD7"/>
</svg>
