<svg width="21" height="18" viewBox="0 0 21 18" fill="none" xmlns="http://www.w3.org/2000/svg">
<path fill-rule="evenodd" clip-rule="evenodd" d="M8.46798 1.16592C9.35365 -0.388639 11.6464 -0.388642 12.532 1.16592L20.2041 14.6324C21.0649 16.1433 19.9445 18 18.1721 18H2.82789C1.05546 18 -0.0648959 16.1433 0.79587 14.6324L8.46798 1.16592ZM11.4999 14C11.4999 14.5523 11.0522 15 10.4999 15C9.94765 15 9.49994 14.5523 9.49994 14C9.49994 13.4477 9.94765 13 10.4999 13C11.0522 13 11.4999 13.4477 11.4999 14ZM11.2499 6C11.2499 5.58579 10.9142 5.25 10.4999 5.25C10.0857 5.25 9.74994 5.58579 9.74994 6V11C9.74994 11.4142 10.0857 11.75 10.4999 11.75C10.9142 11.75 11.2499 11.4142 11.2499 11V6Z" fill="#F43F5E"/>
</svg>
