<svg width="21" height="20" viewBox="0 0 21 20" fill="none" xmlns="http://www.w3.org/2000/svg">
<path d="M17.5827 1.66699H3.41602C3.08449 1.66699 2.76655 1.79869 2.53213 2.03311C2.29771 2.26753 2.16602 2.58547 2.16602 2.91699V17.0837C2.16602 17.4152 2.29771 17.7331 2.53213 17.9675C2.76655 18.202 3.08449 18.3337 3.41602 18.3337H17.5827C17.9142 18.3337 18.2321 18.202 18.4666 17.9675C18.701 17.7331 18.8327 17.4152 18.8327 17.0837V2.91699C18.8327 2.58547 18.701 2.26753 18.4666 2.03311C18.2321 1.79869 17.9142 1.66699 17.5827 1.66699Z" stroke="#28303F" stroke-width="1.66667" stroke-linejoin="round"/>
<path d="M5.49902 7.93994C6.88444 6.27328 8.55111 5.43994 10.499 5.43994C12.4469 5.43994 14.1136 6.27328 15.499 7.93994" stroke="#28303F" stroke-width="1.66667" stroke-linecap="round"/>
<path d="M10.499 12.917C10.8305 12.917 11.1485 12.7853 11.3829 12.5509C11.6173 12.3165 11.749 11.9985 11.749 11.667C11.749 11.3355 11.6173 11.0175 11.3829 10.7831C11.1485 10.5487 10.8305 10.417 10.499 10.417C10.1675 10.417 9.84956 10.5487 9.61514 10.7831C9.38072 11.0175 9.24902 11.3355 9.24902 11.667C9.24902 11.9985 9.38072 12.3165 9.61514 12.5509C9.84956 12.7853 10.1675 12.917 10.499 12.917Z" fill="#28303F"/>
<path d="M8.41602 8.75049L10.5027 11.6672" stroke="#28303F" stroke-width="1.66667" stroke-linecap="round"/>
</svg>
