<svg width="20" height="20" viewBox="0 0 20 20" fill="none" xmlns="http://www.w3.org/2000/svg">
<path d="M15.8757 4.09204C15.1115 3.32046 14.2015 2.70868 13.1986 2.29234C12.1956 1.876 11.1199 1.66344 10.034 1.66704C5.48398 1.66704 1.77565 5.37537 1.77565 9.92537C1.77565 11.3837 2.15898 12.8004 2.87565 14.0504L1.70898 18.3337L6.08398 17.1837C7.29232 17.842 8.65065 18.192 10.034 18.192C14.584 18.192 18.2923 14.4837 18.2923 9.9337C18.2923 7.72537 17.434 5.65037 15.8757 4.09204ZM10.034 16.792C8.80065 16.792 7.59232 16.4587 6.53398 15.8337L6.28398 15.6837L3.68398 16.367L4.37565 13.8337L4.20898 13.5754C3.52361 12.4813 3.15976 11.2164 3.15898 9.92537C3.15898 6.14204 6.24232 3.0587 10.0257 3.0587C11.859 3.0587 13.584 3.77537 14.8757 5.07537C15.5153 5.71192 16.0223 6.46916 16.367 7.30314C16.7118 8.13713 16.8875 9.03128 16.884 9.9337C16.9007 13.717 13.8173 16.792 10.034 16.792ZM13.8007 11.6587C13.5923 11.5587 12.5757 11.0587 12.3923 10.9837C12.2007 10.917 12.0673 10.8837 11.9257 11.0837C11.784 11.292 11.3923 11.7587 11.2757 11.892C11.159 12.0337 11.034 12.0504 10.8257 11.942C10.6173 11.842 9.95065 11.617 9.16732 10.917C8.55065 10.367 8.14232 9.69204 8.01732 9.4837C7.90065 9.27537 8.00065 9.16704 8.10898 9.0587C8.20065 8.96704 8.31732 8.81704 8.41732 8.70037C8.51732 8.5837 8.55898 8.49204 8.62565 8.3587C8.69232 8.21704 8.65898 8.10037 8.60898 8.00037C8.55898 7.90037 8.14232 6.8837 7.97565 6.46704C7.80898 6.06704 7.63398 6.11704 7.50898 6.1087H7.10898C6.96732 6.1087 6.75065 6.1587 6.55898 6.36704C6.37565 6.57537 5.84232 7.07537 5.84232 8.09204C5.84232 9.1087 6.58398 10.092 6.68398 10.2254C6.78398 10.367 8.14232 12.4504 10.209 13.342C10.7007 13.5587 11.084 13.6837 11.384 13.7754C11.8757 13.9337 12.3257 13.9087 12.684 13.8587C13.084 13.8004 13.909 13.3587 14.0757 12.8754C14.2507 12.392 14.2507 11.9837 14.1923 11.892C14.134 11.8004 14.009 11.7587 13.8007 11.6587Z" fill="black"/>
</svg>
