<svg width="20" height="20" viewBox="0 0 20 20" fill="none" xmlns="http://www.w3.org/2000/svg">
<path d="M11.6657 7.5C11.6657 8.42047 10.9195 9.16667 9.99902 9.16667C9.07855 9.16667 8.33236 8.42047 8.33236 7.5C8.33236 6.57953 9.07855 5.83333 9.99902 5.83333C10.9195 5.83333 11.6657 6.57953 11.6657 7.5Z" stroke="#28303F" stroke-width="1.25"/>
<path d="M14.999 7.5C14.999 10.2614 11.6657 14.1667 9.99902 14.1667C8.33236 14.1667 4.99902 10.2614 4.99902 7.5C4.99902 4.73858 7.2376 2.5 9.99902 2.5C12.7604 2.5 14.999 4.73858 14.999 7.5Z" stroke="#28303F" stroke-width="1.25"/>
<path d="M12.4988 12.5H13.4376C14.4268 12.5 15.365 12.9394 15.9983 13.6994L16.8875 14.7664C17.7921 15.8519 17.0201 17.5 15.6071 17.5H4.39056C2.97749 17.5 2.20557 15.8519 3.11019 14.7664L3.99933 13.6994C4.63264 12.9394 5.5708 12.5 6.56007 12.5H7.49882" stroke="#28303F" stroke-width="1.25" stroke-linejoin="round"/>
</svg>
